SplineFontDB: 3.0
FontName: Untitled1
FullName: Untitled1
FamilyName: Untitled1
Weight: Medium
Copyright: Created by Rémi G.,,, with FontForge 2.0 (http://fontforge.sf.net)
UComments: "2010-10-13: Created." 
Version: 001.000
ItalicAngle: 0
UnderlinePosition: -100
UnderlineWidth: 50
Ascent: 800
Descent: 200
LayerCount: 2
Layer: 0 0 "Back"  1
Layer: 1 0 "Fore"  0
NeedsXUIDChange: 1
XUID: [1021 425 1453733837 2460754]
OS2Version: 0
OS2_WeightWidthSlopeOnly: 0
OS2_UseTypoMetrics: 1
CreationTime: 1286994416
ModificationTime: 1288107385
OS2TypoAscent: 0
OS2TypoAOffset: 1
OS2TypoDescent: 0
OS2TypoDOffset: 1
OS2TypoLinegap: 0
OS2WinAscent: 0
OS2WinAOffset: 1
OS2WinDescent: 0
OS2WinDOffset: 1
HheadAscent: 0
HheadAOffset: 1
HheadDescent: 0
HheadDOffset: 1
OS2Vendor: 'PfEd'
DEI: 91125
Encoding: TeX-Base-Encoding
UnicodeInterp: none
NameList: Adobe Glyph List
DisplaySize: -36
AntiAlias: 1
FitToEm: 1
WinInfo: 0 26 16
BeginChars: 256 115

StartChar: fraction
Encoding: 4 8260 0
Width: 1520
Flags: W
HStem: -195 82<291.119 1236.41> 489 105<954.668 1043.67> 699 93<271.557 1229.59>
VStem: 160 86<-68.8945 672.193> 834 97<372 462.406> 1064 106<330 458.216> 1276 87<-70.9277 652.955>
LayerCount: 2
Fore
SplineSet
396 593 m 1
 396 0 l 1
 502 0 l 1
 502 248 l 1
 724 248 l 1
 723 349 l 1
 505 349 l 1
 505 480 l 1
 758 480 l 1
 758 593 l 1
 396 593 l 1
834 372 m 1
 931 372 l 1
 928.333 399.333 932 424.333 942 447 c 0
 954.667 475 974 489 1000 489 c 0
 1021.33 489 1038 479 1050 459 c 1
 1058.67 442.333 1063.33 422.333 1064 399 c 0
 1064.67 361 1044.67 323 1004 285 c 2
 888 177 l 1
 846 126.333 824.333 67.3333 823 0 c 1
 1160 0 l 1
 1160 97 l 1
 961 97 l 1
 961.667 112.333 980 135 1016 165 c 0
 1066 207 1099.67 238.667 1117 260 c 0
 1153 304.667 1170.67 353.333 1170 406 c 0
 1169.33 478.667 1139.67 532.333 1081 567 c 0
 1049.67 585 1019.33 594 990 594 c 0
 964 594 938.667 586.667 914 572 c 0
 856.667 537.333 830 470.667 834 372 c 1
344 792 m 2
 1196 792 l 2
 1250 792 1291.33 777.5 1320 748.5 c 0
 1348.67 719.5 1363 678 1363 624 c 2
 1363 -27 l 2
 1363 -139 1301.67 -195 1179 -195 c 2
 327 -195 l 2
 273 -195 231.667 -180.333 203 -151 c 0
 174.333 -121.667 160 -80.3333 160 -27 c 2
 157 606 l 2
 157 666 173.333 712 206 744 c 0
 238.667 776 284.667 792 344 792 c 2
315 699 m 1
 291.667 697 274 685.333 262 664 c 0
 251.333 645.333 246 623.667 246 599 c 2
 246 -14 l 2
 246 -37.3333 256.833 -59.6667 278.5 -81 c 0
 300.167 -102.333 322.667 -113 346 -113 c 2
 1177 -113 l 2
 1203 -113 1226 -103 1246 -83 c 0
 1266 -63 1276 -40 1276 -14 c 2
 1276 599 l 2
 1276 621 1265 643.167 1243 665.5 c 0
 1221 687.833 1199 699 1177 699 c 2
 315 699 l 1
EndSplineSet
Validated: 41
EndChar

StartChar: Lslash
Encoding: 6 321 1
Width: 1520
Flags: W
HStem: -195 82<291.119 1236.41> 699 93<271.557 1229.59>
VStem: 160 86<-68.8945 672.193> 1276 87<-70.9277 652.955>
LayerCount: 2
Fore
SplineSet
390 595 m 1
 390 0 l 1
 498 0 l 1
 498 249 l 1
 719 249 l 1
 719 355 l 1
 501 355 l 1
 501 482 l 1
 754 482 l 1
 754 595 l 1
 390 595 l 1
987 588 m 1
 797 253 l 1
 797 134 l 1
 1019 134 l 1
 1019 0 l 1
 1115 0 l 1
 1115 130 l 1
 1171 130 l 1
 1171 232 l 1
 1112 232 l 1
 1112 588 l 1
 987 588 l 1
1017 476 m 1
 1017 232 l 1
 872 232 l 1
 1017 476 l 1
344 792 m 2
 1196 792 l 2
 1250 792 1291.33 777.5 1320 748.5 c 0
 1348.67 719.5 1363 678 1363 624 c 2
 1363 -27 l 2
 1363 -139 1301.67 -195 1179 -195 c 2
 327 -195 l 2
 273 -195 231.667 -180.333 203 -151 c 0
 174.333 -121.667 160 -80.3333 160 -27 c 2
 157 606 l 2
 157 666 173.333 712 206 744 c 0
 238.667 776 284.667 792 344 792 c 2
315 699 m 1
 291.667 697 274 685.333 262 664 c 0
 251.333 645.333 246 623.667 246 599 c 2
 246 -14 l 2
 246 -37.3333 256.833 -59.6667 278.5 -81 c 0
 300.167 -102.333 322.667 -113 346 -113 c 2
 1177 -113 l 2
 1203 -113 1226 -103 1246 -83 c 0
 1266 -63 1276 -40 1276 -14 c 2
 1276 599 l 2
 1276 621 1265 643.167 1243 665.5 c 0
 1221 687.833 1199 699 1177 699 c 2
 315 699 l 1
EndSplineSet
Validated: 9
EndChar

StartChar: hungarumlaut
Encoding: 5 733 2
Width: 1520
Flags: W
HStem: -195 82<291.119 1236.41> 0 85<930.5 1023.49> 261 83<939 1020.04> 492 112<928.175 1024.89> 699 93<271.557 1229.59>
VStem: 160 86<-68.8945 672.193> 809 101<104.356 188> 816 94<405 472.742> 1276 87<-70.9277 652.955>
LayerCount: 2
Fore
SplineSet
395 604 m 1xfc80
 395 0 l 1
 502 0 l 1
 502 255 l 1
 724 255 l 1
 724 353 l 1
 505 353 l 1
 505 492 l 1
 764 492 l 1
 764 604 l 1
 395 604 l 1xfc80
816 405 m 1xfd80
 910 405 l 1xfd80
 914.667 466.333 937 497 977 497 c 0
 996.333 497 1012 489.167 1024 473.5 c 0
 1036 457.833 1041.33 440 1040 420 c 0
 1037.33 383.333 1023.33 360 998 350 c 0
 988 346 968.333 344 939 344 c 1
 939 261 l 1
 972.333 261 995.667 258 1009 252 c 0
 1034.33 240.667 1048.33 217 1051 181 c 0
 1053 157.667 1046.5 135.833 1031.5 115.5 c 0
 1016.5 95.1667 997.333 85 974 85 c 0
 932 85 910.667 119.333 910 188 c 1
 809 188 l 1xfe80
 810.333 125.333 823 79.3333 847 50 c 0
 873.667 16.6667 917.667 1.73472e-18 979 0 c 0
 1037.67 0 1082.5 15.6667 1113.5 47 c 0
 1144.5 78.3333 1160 123 1160 181 c 0
 1160 207 1152 233.333 1136 260 c 0
 1121.33 284.667 1102.67 305.333 1080 322 c 1
 1119.33 353.333 1138.67 398 1138 456 c 0
 1137.33 511.333 1109.67 554.333 1055 585 c 0
 1025.67 601 997 609 969 609 c 0
 945.667 609 923 603 901 591 c 0
 845.667 560.333 817.333 498.333 816 405 c 1xfd80
344 792 m 2
 1196 792 l 2
 1250 792 1291.33 777.5 1320 748.5 c 0
 1348.67 719.5 1363 678 1363 624 c 2
 1363 -27 l 2
 1363 -139 1301.67 -195 1179 -195 c 2
 327 -195 l 2
 273 -195 231.667 -180.333 203 -151 c 0
 174.333 -121.667 160 -80.3333 160 -27 c 2
 157 606 l 2
 157 666 173.333 712 206 744 c 0
 238.667 776 284.667 792 344 792 c 2
315 699 m 1
 291.667 697 274 685.333 262 664 c 0
 251.333 645.333 246 623.667 246 599 c 2
 246 -14 l 2
 246 -37.3333 256.833 -59.6667 278.5 -81 c 0
 300.167 -102.333 322.667 -113 346 -113 c 2
 1177 -113 l 2
 1203 -113 1226 -103 1246 -83 c 0
 1266 -63 1276 -40 1276 -14 c 2
 1276 599 l 2
 1276 621 1265 643.167 1243 665.5 c 0
 1221 687.833 1199 699 1177 699 c 2
 315 699 l 1
EndSplineSet
Validated: 41
EndChar

StartChar: lslash
Encoding: 7 322 3
Width: 1520
Flags: W
HStem: -195 82<291.119 1236.41> -9 99<943.927 1031.33> 298 99<936.132 1035.21> 699 93<271.557 1229.59>
VStem: 160 86<-68.8945 672.193> 1057 107<116.622 277.221> 1276 87<-70.9277 652.955>
LayerCount: 2
Fore
SplineSet
395 597 m 1
 395 0 l 1
 504 0 l 1
 504 246 l 1
 717 246 l 1
 715 351 l 1
 503 351 l 1
 503 483 l 1
 754 483 l 1
 754 597 l 1
 395 597 l 1
864 587 m 1
 825 259 l 1
 926 259 l 1
 936 285 959 298 995 298 c 0
 1017 298 1033.33 286 1044 262 c 0
 1052.67 243.333 1057 221.667 1057 197 c 0
 1057 171 1052 148 1042 128 c 0
 1030 103.333 1012.33 90.6667 989 90 c 0
 957 89.3333 932 115.333 914 168 c 1
 812 168 l 1
 814.667 134.667 822.667 105.333 836 80 c 0
 867.333 20.6667 920.667 -9 996 -9 c 0
 1048.67 -9 1091 15.3333 1123 64 c 0
 1150.33 106.667 1164 155.667 1164 211 c 0
 1164 264.333 1151 308 1125 342 c 0
 1096.33 378.667 1056 397 1004 397 c 0
 974 397 947.333 387 924 367 c 1
 942 481 l 1
 1145 481 l 1
 1145 587 l 1
 864 587 l 1
344 792 m 2
 1196 792 l 2
 1250 792 1291.33 777.5 1320 748.5 c 0
 1348.67 719.5 1363 678 1363 624 c 2
 1363 -27 l 2
 1363 -139 1301.67 -195 1179 -195 c 2
 327 -195 l 2
 273 -195 231.667 -180.333 203 -151 c 0
 174.333 -121.667 160 -80.3333 160 -27 c 2
 157 606 l 2
 157 666 173.333 712 206 744 c 0
 238.667 776 284.667 792 344 792 c 2
315 699 m 1
 291.667 697 274 685.333 262 664 c 0
 251.333 645.333 246 623.667 246 599 c 2
 246 -14 l 2
 246 -37.3333 256.833 -59.6667 278.5 -81 c 0
 300.167 -102.333 322.667 -113 346 -113 c 2
 1177 -113 l 2
 1203 -113 1226 -103 1246 -83 c 0
 1266 -63 1276 -40 1276 -14 c 2
 1276 599 l 2
 1276 621 1265 643.167 1243 665.5 c 0
 1221 687.833 1199 699 1177 699 c 2
 315 699 l 1
EndSplineSet
Validated: 41
EndChar

StartChar: ogonek
Encoding: 8 731 4
Width: 1520
Flags: W
HStem: -195 82<291.119 1236.41> -22 100<958.603 1047.35> 491 104<968.186 1054.86> 699 93<271.557 1229.59>
VStem: 160 86<-68.8945 672.193> 824 108<107.511 275.425> 1080 101<113.872 251.004> 1276 87<-70.9277 652.955>
LayerCount: 2
Fore
SplineSet
825 293 m 0
 824.333 281 824 267 824 251 c 0
 824 179.667 836.333 120 861 72 c 0
 892.333 9.33333 940 -22 1004 -22 c 0
 1061.33 -22 1106.33 -0.333333 1139 43 c 0
 1169 82.3333 1183 131.333 1181 190 c 0
 1179.67 238.667 1165.33 282.333 1138 321 c 0
 1107.33 365 1068.67 385 1022 381 c 0
 976 377 944.667 362.667 928 338 c 1
 926.667 371.333 932.667 403 946 433 c 1
 962 471.667 985 491 1015 491 c 0
 1040.33 491 1059.33 473 1072 437 c 1
 1160 435 l 1
 1160 477 1144.83 514.167 1114.5 546.5 c 0
 1084.17 578.833 1048.33 595 1007 595 c 0
 945 595 897.667 558 865 484 c 0
 842.333 431.333 829 367.667 825 293 c 0
932 182 m 0
 932 206 937.333 228.333 948 249 c 1
 961.333 273 979.333 285 1002 285 c 256
 1024.67 285 1043.33 274.167 1058 252.5 c 0
 1072.67 230.833 1080 208 1080 184 c 256
 1080 160 1073 137 1059 115 c 0
 1043.67 90.3333 1024.67 78 1002 78 c 256
 979.333 78 961.333 90.3333 948 115 c 0
 937.333 135 932 157.333 932 182 c 0
394 597 m 1
 394 0 l 1
 504 0 l 1
 504 245 l 1
 720 245 l 1
 720 348 l 1
 504 348 l 1
 504 486 l 1
 757 486 l 1
 757 597 l 1
 394 597 l 1
344 792 m 2
 1196 792 l 2
 1250 792 1291.33 777.5 1320 748.5 c 0
 1348.67 719.5 1363 678 1363 624 c 2
 1363 -27 l 2
 1363 -139 1301.67 -195 1179 -195 c 2
 327 -195 l 2
 273 -195 231.667 -180.333 203 -151 c 0
 174.333 -121.667 160 -80.3333 160 -27 c 2
 157 606 l 2
 157 666 173.333 712 206 744 c 0
 238.667 776 284.667 792 344 792 c 2
315 699 m 1
 291.667 697 274 685.333 262 664 c 0
 251.333 645.333 246 623.667 246 599 c 2
 246 -14 l 2
 246 -37.3333 256.833 -59.6667 278.5 -81 c 0
 300.167 -102.333 322.667 -113 346 -113 c 2
 1177 -113 l 2
 1203 -113 1226 -103 1246 -83 c 0
 1266 -63 1276 -40 1276 -14 c 2
 1276 599 l 2
 1276 621 1265 643.167 1243 665.5 c 0
 1221 687.833 1199 699 1177 699 c 2
 315 699 l 1
EndSplineSet
Validated: 41
EndChar

StartChar: ring
Encoding: 9 730 5
Width: 1874
Flags: W
HStem: -195 82<288.119 1590.41> 27 76<418.75 507.422> 236 88<1126 1256> 434 96<1124 1277 1300 1399 1464 1560> 445 87<420.353 500.931> 699 93<269.305 1583.59>
VStem: 157 86<-68.8945 671.191> 344 65<112.557 187 347.281 426.952> 518 58<369 421.28> 521 63<116.832 207.276> 931 70<31 529> 1056 70<28 236 324 435> 1399 65<31 434> 1630 87<-70.9277 652.955>
LayerCount: 2
Fore
SplineSet
576 366 m 1xefbc
 575.333 418 567.667 456.667 553 482 c 0
 533.667 515.333 500.333 532 453 532 c 0
 420.333 532 393.667 516.667 373 486 c 1
 353.667 458.667 344 428 344 394 c 0
 344 340 359.667 299.333 391 272 c 1
 391 272 391 272 478 223 c 0
 508 206.333 522.333 182.667 521 152 c 0
 520.333 138 513.833 126.333 501.5 117 c 0
 489.167 107.667 476 103 462 103 c 0
 424 103 404.333 131 403 187 c 1
 344 189 l 1
 346 145 350 115 356 99 c 0
 374 52.3333 411.333 28.3333 468 27 c 0
 545.333 25.6667 584 71.3333 584 164 c 0xef7c
 584 172.667 583.667 180.333 583 187 c 1
 583 229 568 261.667 538 285 c 0
 532 289.667 504.333 304.667 455 330 c 0
 425 345.333 409.667 364 409 386 c 0
 408.333 402 412.5 415.833 421.5 427.5 c 0
 430.5 439.167 442.667 445 458 445 c 0
 477.333 445 492.167 437.333 502.5 422 c 0
 512.833 406.667 518 389 518 369 c 1
 576 366 l 1xefbc
624 533 m 1
 625 31 l 1
 694 31 l 1
 694 247 l 1
 811 247 l 1
 811 31 l 1
 879 31 l 1
 879 529 l 1
 809 530 l 1xf73c
 809 331 l 1
 697 331 l 1
 697 533 l 1
 624 533 l 1
930 529 m 1
 1001 530 l 1
 1001 31 l 1
 931 31 l 1
 930 529 l 1
1056 533 m 1
 1277 533 l 1
 1277 435 l 1
 1124 435 l 1
 1124 324 l 1
 1256 324 l 1
 1256 236 l 1
 1126 236 l 1
 1126 28 l 1
 1056 28 l 1
 1056 533 l 1
1300 530 m 1
 1560 530 l 1
 1560 434 l 1
 1464 434 l 1
 1464 31 l 1
 1399 30 l 1
 1399 434 l 1
 1300 434 l 1
 1300 530 l 1
341 792 m 2
 1550 792 l 2
 1604 792 1645.33 777.5 1674 748.5 c 0
 1702.67 719.5 1717 678 1717 624 c 2
 1717 -27 l 2
 1717 -139 1655.67 -195 1533 -195 c 2
 324 -195 l 2
 270 -195 228.667 -180.333 200 -151 c 0
 171.333 -121.667 157 -80.3333 157 -27 c 2
 157 609 l 2
 157 731 218.333 792 341 792 c 2
312 699 m 1
 288.667 697 271 685.333 259 664 c 0
 248.333 645.333 243 623.667 243 599 c 2
 243 -14 l 2
 243 -37.3333 253.833 -59.6667 275.5 -81 c 0
 297.167 -102.333 319.667 -113 343 -113 c 2
 1531 -113 l 2
 1557 -113 1580 -103 1600 -83 c 0
 1620 -63 1630 -40 1630 -14 c 2
 1630 599 l 2
 1630 621 1619 643.167 1597 665.5 c 0
 1575 687.833 1553 699 1531 699 c 2
 312 699 l 1
EndSplineSet
Validated: 41
EndChar

StartChar: caron
Encoding: 16 711 6
Width: 1520
Flags: W
HStem: -173 77<592.904 941.255> 694 76<575.208 928.656>
VStem: 143 75<183.66 417.055> 1303 74<181.24 413.103>
LayerCount: 2
Fore
SplineSet
143 299 m 0
 143 446.333 210.667 564.667 346 654 c 0
 463.333 731.333 599.667 770 755 770 c 256
 910.333 770 1048.33 730.667 1169 652 c 0
 1307.67 562 1377 443 1377 295 c 0
 1377 153 1308.33 36.6667 1171 -54 c 0
 1050.33 -134 915.667 -173.667 767 -173 c 0
 611.667 -172.333 473.667 -133.333 353 -56 c 0
 213 34 143 152.333 143 299 c 0
218 299 m 256
 218 175.667 281.667 76.3333 409 1 c 0
 517.667 -63.6667 637.667 -96 769 -96 c 0
 899.667 -96 1017.33 -63.6667 1122 1 c 1
 1242.67 77 1303 176.667 1303 300 c 0
 1303 422.667 1239 522 1111 598 c 0
 1002.33 662 882.333 694 751 694 c 256
 619.667 694 502 661.667 398 597 c 0
 278 521.667 218 422.333 218 299 c 256
502 616 m 1
 502 17 l 1
 1187 304 l 1
 502 616 l 1
EndSplineSet
Validated: 41
EndChar

StartChar: breve
Encoding: 11 728 7
Width: 1874
Flags: W
HStem: -195 82<288.119 1590.41> -15 97<417.55 506.45> 199 95<727 826.5> 455 98<727 827.455 953 1048 1115 1210> 472 97<417.121 506.879> 699 93<269.305 1583.59>
VStem: 157 86<-68.8945 671.191> 310 66<136.991 416.685> 548 66<136.991 416.685> 661 66<0 199 294 457> 839 66<305.725 446.562> 1048 67<0 455> 1270 61<0 392> 1466 62<167 553> 1630 87<-70.9277 652.955>
LayerCount: 2
Fore
SplineSet
341 792 m 2xe7fe
 1550 792 l 2
 1604 792 1645.33 777.5 1674 748.5 c 0
 1702.67 719.5 1717 678 1717 624 c 2
 1717 -27 l 2
 1717 -139 1655.67 -195 1533 -195 c 2
 324 -195 l 2
 270 -195 228.667 -180.333 200 -151 c 0
 171.333 -121.667 157 -80.3333 157 -27 c 2
 157 609 l 2
 157 731 218.333 792 341 792 c 2xe7fe
312 699 m 1
 288.667 697 271 685.333 259 664 c 0
 248.333 645.333 243 623.667 243 599 c 2
 243 -14 l 2
 243 -37.3333 253.833 -59.6667 275.5 -81 c 0
 297.167 -102.333 319.667 -113 343 -113 c 2
 1531 -113 l 2
 1557 -113 1580 -103 1600 -83 c 0
 1620 -63 1630 -40 1630 -14 c 2
 1630 599 l 2
 1630 621 1619 643.167 1597 665.5 c 0
 1575 687.833 1553 699 1531 699 c 2
 312 699 l 1
462 82 m 256
 496 82 520 108 534 160 c 0
 543.333 194 548 233 548 277 c 256
 548 321 543.333 360 534 394 c 0
 520 446 496 472 462 472 c 256xeffe
 428 472 404 446 390 394 c 0
 380.667 360 376 321 376 277 c 256
 376 233 380.667 194 390 160 c 0
 404 108 428 82 462 82 c 256
614 277 m 0
 614 179.667 598 103.667 566 49 c 0
 541.333 6.33333 506.667 -15 462 -15 c 256
 417.333 -15 382.667 6.33333 358 49 c 0
 326 103.667 310 179.667 310 277 c 0
 310 348.333 318.667 409 336 459 c 0
 362 532.333 404 569 462 569 c 256
 520 569 562 532.333 588 459 c 0
 605.333 409 614 348.333 614 277 c 0
839 377 m 0
 839 430.333 822.333 457 789 457 c 2
 727 457 l 1
 727 294 l 1
 789 294 l 2
 822.333 294 839 321.667 839 377 c 0
905 377 m 0
 905 258.333 868.333 199 795 199 c 2
 727 199 l 1
 727 0 l 1
 661 0 l 1
 661 553 l 1
 800 553 l 2xf7fe
 870 553 905 494.333 905 377 c 0
1210 553 m 1
 1210 455 l 1
 1115 455 l 1
 1115 0 l 1
 1048 0 l 1
 1048 455 l 1
 953 455 l 1
 953 553 l 1
 1210 553 l 1
1270 553 m 1
 1339 553 l 1
 1466 167 l 1
 1466 553 l 1
 1528 553 l 1
 1528 0 l 1
 1461 0 l 1
 1331 392 l 1
 1331 0 l 1
 1270 0 l 1
 1270 553 l 1
EndSplineSet
Validated: 1
EndChar

StartChar: minus
Encoding: 12 8722 8
Width: 1874
Flags: W
HStem: -195 82<288.119 1590.41> -15 97<1348.62 1463.98> 116 97<664 757> 221 94<997 1124.14> 466 98<997 1131.12> 483 98<1347.27 1447.59> 699 93<269.305 1583.59>
VStem: 157 86<-68.8945 671.191> 295 82<532.161 564> 538 79<532.416 564> 922 75<0 221 315 466> 1136 77<14.2847 208.957> 1146 77<0 199.519 327.896 452.896> 1259 71<101.25 174 367.361 465.054> 1469 74<396 460.819> 1481 74<98.6017 200.983> 1630 87<-70.9277 652.955>
LayerCount: 2
Fore
SplineSet
341 792 m 2xf3e480
 1550 792 l 2
 1604 792 1645.33 777.5 1674 748.5 c 0
 1702.67 719.5 1717 678 1717 624 c 2
 1717 -27 l 2
 1717 -139 1655.67 -195 1533 -195 c 2
 324 -195 l 2
 270 -195 228.667 -180.333 200 -151 c 0
 171.333 -121.667 157 -80.3333 157 -27 c 2
 157 609 l 2
 157 731 218.333 792 341 792 c 2xf3e480
312 699 m 1
 288.667 697 271 685.333 259 664 c 0
 248.333 645.333 243 623.667 243 599 c 2
 243 -14 l 2
 243 -37.3333 253.833 -59.6667 275.5 -81 c 0
 297.167 -102.333 319.667 -113 343 -113 c 2
 1531 -113 l 2
 1557 -113 1580 -103 1600 -83 c 0
 1620 -63 1630 -40 1630 -14 c 2
 1630 599 l 2
 1630 621 1619 643.167 1597 665.5 c 0
 1575 687.833 1553 699 1531 699 c 2
 312 699 l 1
538 564 m 1xfbe480
 617 564 l 1
 492 0 l 1
 419 0 l 1
 295 564 l 1
 377 564 l 1
 457 136 l 1
 538 564 l 1xfbe480
664 213 m 1
 757 213 l 1
 711 435 l 1
 664 213 l 1
669 564 m 1
 755 564 l 1
 886 0 l 1
 802 0 l 1
 779 116 l 1
 643 116 l 1
 618 0 l 1
 538 0 l 1
 669 564 l 1
997 466 m 1
 997 315 l 1
 1084 315 l 2
 1125.33 315 1146 339 1146 387 c 0xfbec80
 1146 439.667 1126 466 1086 466 c 2
 997 466 l 1
1102 564 m 2
 1143.33 564 1174.67 546.667 1196 512 c 0
 1214 483.333 1223 447 1223 403 c 0xfbec80
 1223 334.333 1204 289.667 1166 269 c 1
 1197.33 250.333 1213 206.333 1213 137 c 2
 1213 99 l 2
 1213 71.6667 1213.67 54 1215 46 c 0
 1217.67 30.6667 1222.33 20 1229 14 c 1
 1229 0 l 1
 1144 0 l 1
 1139.33 26.6667 1136.67 53 1136 79 c 2xfbf480
 1135 131 l 2
 1134.33 163 1131.67 184 1127 194 c 0
 1119.67 212 1102.67 221 1076 221 c 2
 997 221 l 1
 997 0 l 1
 922 0 l 1
 922 564 l 1
 1102 564 l 2
1326 174 m 1
 1329.33 146 1334 126.667 1340 116 c 0
 1352.67 93.3333 1374 82 1404 82 c 0
 1455.33 82 1481 106.667 1481 156 c 0xf7e580
 1481 187.333 1458.67 210.667 1414 226 c 2
 1376 239 l 2
 1338 252.333 1311.33 267 1296 283 c 0
 1271.33 309 1259 349.667 1259 405 c 0
 1259 455 1270 495.667 1292 527 c 0
 1316.67 563 1353 581 1401 581 c 0
 1447.67 581 1483.67 561 1509 521 c 0
 1530.33 487.667 1541.67 446 1543 396 c 1
 1469 396 l 1xf7e680
 1465.67 454 1441 483 1395 483 c 0
 1375 483 1359.17 476.5 1347.5 463.5 c 0
 1335.83 450.5 1330 433.667 1330 413 c 0
 1330 393 1336 378 1348 368 c 1
 1353.33 362.667 1369.33 355 1396 345 c 2
 1459 321 l 2
 1494.33 307.667 1519.67 288 1535 262 c 1
 1548.33 238 1555 205.667 1555 165 c 0xf7e580
 1555 115.667 1543 74.3333 1519 41 c 0
 1492.33 3.66667 1455 -15 1407 -15 c 0
 1355.67 -15 1316.33 4.33333 1289 43 c 0
 1265 77 1253 120.667 1253 174 c 1
 1326 174 l 1
EndSplineSet
Validated: 1
EndChar

StartChar: Zcaron
Encoding: 14 381 9
Width: 1882
Flags: W
HStem: -195 82<291.119 1598.41> -29 108<1394.78 1476.07> 699 93<271.557 1591.59>
VStem: 160 86<-68.8945 672.193> 987 72<585.516 609> 1307 68<98.1405 165> 1495 68<109.783 167> 1638 87<-70.9277 652.955>
LayerCount: 2
Fore
SplineSet
344 792 m 2
 1558 792 l 2
 1612 792 1653.33 777.5 1682 748.5 c 0
 1710.67 719.5 1725 678 1725 624 c 2
 1725 -27 l 2
 1725 -139 1663.67 -195 1541 -195 c 2
 327 -195 l 2
 273 -195 231.667 -180.333 203 -151 c 0
 174.333 -121.667 160 -80.3333 160 -27 c 2
 157 606 l 2
 157 666 173.333 712 206 744 c 0
 238.667 776 284.667 792 344 792 c 2
315 699 m 1
 291.667 697 274 685.333 262 664 c 0
 251.333 645.333 246 623.667 246 599 c 2
 246 -14 l 2
 246 -37.3333 256.833 -59.6667 278.5 -81 c 0
 300.167 -102.333 322.667 -113 346 -113 c 2
 1539 -113 l 2
 1565 -113 1588 -103 1608 -83 c 0
 1628 -63 1638 -40 1638 -14 c 2
 1638 599 l 2
 1638 621 1627 643.167 1605 665.5 c 0
 1583 687.833 1561 699 1539 699 c 2
 315 699 l 1
340 -16 m 1
 399 -16 l 1
 399 475 l 1
 461 -16 l 1
 523 -16 l 1
 577 473 l 1
 577 -16 l 1
 649 -16 l 1
 649 616 l 1
 538 616 l 1
 491 159 l 1
 440 614 l 1
 340 614 l 1
 340 -16 l 1
703 616 m 1
 703 -18 l 1
 948 -18 l 1
 948 97 l 1
 775 97 l 1
 775 255 l 1
 925 255 l 1
 925 366 l 1
 777 366 l 1
 777 496 l 1
 935 496 l 1
 935 616 l 1
 703 616 l 1
987 609 m 1
 987 -18 l 1
 1051 -18 l 1
 1051 411 l 1
 1181 -16 l 1
 1249 -16 l 1
 1249 609 l 1
 1181 609 l 1
 1183 193 l 1
 1059 609 l 1
 987 609 l 1
1307 609 m 1
 1307 146 l 2
 1307 101.333 1317.67 62.3333 1339 29 c 0
 1364.33 -9.66667 1398.33 -29 1441 -29 c 0
 1483 -29 1515 -8.66667 1537 32 c 0
 1554.33 64.6667 1563 104 1563 150 c 2
 1563 609 l 1
 1495 609 l 1
 1495 167 l 2
 1495 145 1490.67 125.667 1482 109 c 1
 1470.67 89 1455 79 1435 79 c 0
 1415.67 79 1400.33 89 1389 109 c 0
 1379.67 125 1375 143.667 1375 165 c 2
 1375 609 l 1
 1307 609 l 1
EndSplineSet
Validated: 9
EndChar

StartChar: zcaron
Encoding: 15 382 10
Width: 1520
Flags: W
HStem: -173 77<592.904 941.255> 694 76<575.208 928.656>
VStem: 143 75<183.66 417.055> 1303 74<181.24 413.103>
LayerCount: 2
Fore
SplineSet
143 299 m 0
 143 446.333 210.667 564.667 346 654 c 0
 463.333 731.333 599.667 770 755 770 c 256
 910.333 770 1048.33 730.667 1169 652 c 0
 1307.67 562 1377 443 1377 295 c 0
 1377 153 1308.33 36.6667 1171 -54 c 0
 1050.33 -134 915.667 -173.667 767 -173 c 0
 611.667 -172.333 473.667 -133.333 353 -56 c 0
 213 34 143 152.333 143 299 c 0
218 299 m 256
 218 175.667 281.667 76.3333 409 1 c 0
 517.667 -63.6667 637.667 -96 769 -96 c 0
 899.667 -96 1017.33 -63.6667 1122 1 c 1
 1242.67 77 1303 176.667 1303 300 c 0
 1303 422.667 1239 522 1111 598 c 0
 1002.33 662 882.333 694 751 694 c 256
 619.667 694 502 661.667 398 597 c 0
 278 521.667 218 422.333 218 299 c 256
1006 601 m 1
 1005 0 l 1
 319 311 l 1
 1006 601 l 1
EndSplineSet
Validated: 33
EndChar

StartChar: dotlessi
Encoding: 17 305 11
Width: 1520
Flags: W
HStem: -166 77<592.904 941.255> 701 76<575.208 928.656>
VStem: 143 75<190.66 424.055> 1303 74<188.24 420.103>
LayerCount: 2
Fore
SplineSet
143 306 m 0
 143 453.333 210.667 571.667 346 661 c 0
 463.333 738.333 599.667 777 755 777 c 256
 910.333 777 1048.33 737.667 1169 659 c 0
 1307.67 569 1377 450 1377 302 c 0
 1377 160 1308.33 43.6667 1171 -47 c 0
 1050.33 -127 915.667 -166.667 767 -166 c 0
 611.667 -165.333 473.667 -126.333 353 -49 c 0
 213 41 143 159.333 143 306 c 0
218 306 m 256
 218 182.667 281.667 83.3333 409 8 c 0
 517.667 -56.6667 637.667 -89 769 -89 c 0
 899.667 -89 1017.33 -56.6667 1122 8 c 1
 1242.67 84 1303 183.667 1303 307 c 0
 1303 429.667 1239 529 1111 605 c 0
 1002.33 669 882.333 701 751 701 c 256
 619.667 701 502 668.667 398 604 c 0
 278 528.667 218 429.333 218 306 c 256
421 128 m 1
 1104 127 l 1
 755 592 l 1
 421 128 l 1
EndSplineSet
Validated: 41
EndChar

StartChar: notequal
Encoding: 22 8800 12
Width: 1520
Flags: W
HStem: -163 77<592.904 941.255> 704 76<575.208 928.656>
VStem: 143 75<193.66 427.055> 1303 74<191.24 423.103>
LayerCount: 2
Fore
SplineSet
143 309 m 0
 143 456.333 210.667 574.667 346 664 c 0
 463.333 741.333 599.667 780 755 780 c 256
 910.333 780 1048.33 740.667 1169 662 c 0
 1307.67 572 1377 453 1377 305 c 0
 1377 163 1308.33 46.6667 1171 -44 c 0
 1050.33 -124 915.667 -163.667 767 -163 c 0
 611.667 -162.333 473.667 -123.333 353 -46 c 0
 213 44 143 162.333 143 309 c 0
218 309 m 256
 218 185.667 281.667 86.3333 409 11 c 0
 517.667 -53.6667 637.667 -86 769 -86 c 0
 899.667 -86 1017.33 -53.6667 1122 11 c 1
 1242.67 87 1303 186.667 1303 310 c 0
 1303 432.667 1239 532 1111 608 c 0
 1002.33 672 882.333 704 751 704 c 256
 619.667 704 502 671.667 398 607 c 0
 278 531.667 218 432.333 218 309 c 256
431 490 m 1
 1107 490 l 1
 774 28 l 1
 431 490 l 1
EndSplineSet
Validated: 33
EndChar

StartChar: infinity
Encoding: 23 8734 13
Width: 1890
Flags: W
HStem: -195 82<291.119 1606.41> 497 86<934 967.75> 699 93<271.557 1599.59>
VStem: 160 86<-68.8945 672.193> 415 64<548.194 587> 979 66<323.878 488.195> 1427 64<542.126 581> 1646 87<-70.9277 652.955>
LayerCount: 2
Fore
SplineSet
415 587 m 1
 312 16 l 1
 378 16 l 1
 400 129 l 1
 494 129 l 1
 513 16 l 1
 581 16 l 1
 479 587 l 1
 415 587 l 1
607 589 m 1
 607 18 l 1
 793 18 l 1
 793 103 l 1
 684 103 l 1
 684 589 l 1
 607 589 l 1
836 583 m 1
 836 14 l 1
 896 14 l 1
 896 232 l 1
 964 232 l 2
 994 232 1016 254.667 1030 300 c 0
 1040 331.333 1045 366.333 1045 405 c 0
 1045 441.667 1040.33 476.667 1031 510 c 0
 1018.33 558.667 998.333 583 971 583 c 2
 836 583 l 1
1080 583 m 1
 1080 9 l 1
 1133 9 l 1
 1133 255 l 1
 1234 255 l 1
 1234 9 l 1
 1300 9 l 1
 1300 583 l 1
 1234 583 l 1
 1234 337 l 1
 1136 337 l 1
 1136 583 l 1
 1080 583 l 1
892 497 m 1
 934 497 l 2
 964 497 979 468 979 410 c 0
 979 390 976.667 371.333 972 354 c 0
 964.667 328 953.667 315 939 315 c 2
 892 315 l 1
 892 497 l 1
449 431 m 1
 474 208 l 1
 415 208 l 1
 449 431 l 1
1427 581 m 1
 1324 9 l 1
 1390 9 l 1
 1412 123 l 1
 1506 123 l 1
 1525 9 l 1
 1593 9 l 1
 1491 581 l 1
 1427 581 l 1
1461 424 m 1
 1486 202 l 1
 1427 202 l 1
 1461 424 l 1
344 792 m 2
 1566 792 l 2
 1620 792 1661.33 777.5 1690 748.5 c 0
 1718.67 719.5 1733 678 1733 624 c 2
 1733 -27 l 2
 1733 -139 1671.67 -195 1549 -195 c 2
 327 -195 l 2
 273 -195 231.667 -180.333 203 -151 c 0
 174.333 -121.667 160 -80.3333 160 -27 c 2
 157 606 l 2
 157 666 173.333 712 206 744 c 0
 238.667 776 284.667 792 344 792 c 2
315 699 m 1
 291.667 697 274 685.333 262 664 c 0
 251.333 645.333 246 623.667 246 599 c 2
 246 -14 l 2
 246 -37.3333 256.833 -59.6667 278.5 -81 c 0
 300.167 -102.333 322.667 -113 346 -113 c 2
 1547 -113 l 2
 1573 -113 1596 -103 1616 -83 c 0
 1636 -63 1646 -40 1646 -14 c 2
 1646 599 l 2
 1646 621 1635 643.167 1613 665.5 c 0
 1591 687.833 1569 699 1547 699 c 2
 315 699 l 1
EndSplineSet
Validated: 9
EndChar

StartChar: lessequal
Encoding: 24 8804 14
Width: 1520
Flags: W
HStem: -195 82<291.119 1236.41> -33 138<385.143 470.285> -9 81<743.149 811.47> 306 67<1164 1201> 395 124<797.923 904.996> 425 75<528.565 622.333> 557 65<1022.6 1110.6> 699 93<271.557 1229.59>
VStem: 160 86<-68.8945 672.193> 1117 79<470.442 551.127> 1276 87<-70.9277 652.955>
LayerCount: 2
Fore
SplineSet
344 792 m 2x93e0
 1196 792 l 2
 1250 792 1291.33 777.5 1320 748.5 c 0
 1348.67 719.5 1363 678 1363 624 c 2
 1363 -27 l 2
 1363 -139 1301.67 -195 1179 -195 c 2
 327 -195 l 2
 273 -195 231.667 -180.333 203 -151 c 0
 174.333 -121.667 160 -80.3333 160 -27 c 2
 157 606 l 2
 157 666 173.333 712 206 744 c 0
 238.667 776 284.667 792 344 792 c 2x93e0
315 699 m 1
 291.667 697 274 685.333 262 664 c 0
 251.333 645.333 246 623.667 246 599 c 2
 246 -14 l 2
 246 -37.3333 256.833 -59.6667 278.5 -81 c 0
 300.167 -102.333 322.667 -113 346 -113 c 2
 1177 -113 l 2
 1203 -113 1226 -103 1246 -83 c 0
 1266 -63 1276 -40 1276 -14 c 2
 1276 599 l 2
 1276 621 1265 643.167 1243 665.5 c 0
 1221 687.833 1199 699 1177 699 c 2
 315 699 l 1
597 500 m 0x97e0
 555.667 500 515.667 477 477 431 c 0
 441.667 389 424 351.667 424 319 c 0
 424 301 430.667 292 444 292 c 0
 452.667 292 469.167 314.167 493.5 358.5 c 0
 517.833 402.833 539 425 557 425 c 0
 589 425 605 360.667 605 232 c 1
 478 75 l 1
 461.333 95 446 105 432 105 c 0
 412 105 395.667 99 383 87 c 0
 370.333 75 364 59.3333 364 40 c 0
 364 18.6667 370.833 1.16667 384.5 -12.5 c 0
 398.167 -26.1667 415.667 -33 437 -33 c 0xd7e0
 491 -33 549 19.3333 611 124 c 1
 624.333 35.3333 671.333 -9 752 -9 c 0
 790.667 -9 828 17 864 69 c 0
 896 115 912 153 912 183 c 0
 912 193.667 906 199 894 199 c 0
 881.333 199 863.5 177.833 840.5 135.5 c 0
 817.5 93.1667 796 72 776 72 c 0
 734 72 714 138 716 270 c 1
 798 406 l 1
 796 398.667 816.667 395 860 395 c 0
 878 395 893 402.167 905 416.5 c 0
 917 430.833 923 447 923 465 c 0
 923 501 902 519 860 519 c 0
 800 519 745.667 477.667 697 395 c 1xbbe0
 681 465 647.667 500 597 500 c 0x97e0
1101 622 m 0
 1075.67 622 1050 615 1024 601 c 0
 994 584.333 979 564.333 979 541 c 0
 979 529 984.333 523 995 523 c 0
 995.667 523 999.333 526.833 1006 534.5 c 0
 1012.67 542.167 1017.33 546.667 1020 548 c 0
 1030.67 554 1046 557 1066 557 c 0
 1100 557 1117 541.333 1117 510 c 0
 1117 473.333 1099 436.667 1063 400 c 0
 1046.33 383.333 1025.67 365 1001 345 c 0
 987 333.667 980 326 980 322 c 0
 980 312.667 986.667 307 1000 305 c 0
 1010 303.667 1020 304 1030 306 c 1
 1201 305 l 1
 1228 411 l 1
 1204 388.333 1182.67 375.667 1164 373 c 1
 1125 373 1125 373 1085 373 c 1
 1166 460 l 2
 1186 481.333 1196 508.333 1196 541 c 0
 1196 595 1164.33 622 1101 622 c 0
EndSplineSet
Validated: 41
EndChar

StartChar: greaterequal
Encoding: 25 8805 15
Width: 1520
Flags: W
HStem: -195 82<281.653 1238.01> 699 93<262.73 1235.25>
VStem: 151 86<-67.6997 671.061> 1282 87<-70.9277 650.736>
LayerCount: 2
Fore
SplineSet
335 792 m 2
 1202 792 l 2
 1255.33 792 1296.5 777.5 1325.5 748.5 c 0
 1354.5 719.5 1369 678 1369 624 c 2
 1369 -27 l 2
 1369 -139 1307.67 -195 1185 -195 c 2
 318 -195 l 2
 259.333 -195 215.667 -177.667 187 -143 c 0
 163 -114.333 151 -75.6667 151 -27 c 2
 151 601 l 2
 151 662.333 167.333 709.5 200 742.5 c 0
 232.667 775.5 277.667 792 335 792 c 2
306 699 m 1
 283.333 697 265.667 685.333 253 664 c 0
 242.333 646 237 624.333 237 599 c 2
 237 -14 l 2
 237 -33.3333 246.333 -54 265 -76 c 0
 286.333 -100.667 310.333 -113 337 -113 c 2
 1183 -113 l 2
 1204.33 -113 1225.33 -104.667 1246 -88 c 0
 1270 -68 1282 -43.3333 1282 -14 c 2
 1282 599 l 2
 1282 618.333 1272.33 639 1253 661 c 0
 1231.67 686.333 1208.33 699 1183 699 c 2
 306 699 l 1
767 628 m 1
 317 0 l 1
 460 0 l 1
 765 431 l 1
 1073 0 l 1
 1209 0 l 1
 767 628 l 1
EndSplineSet
Validated: 9
EndChar

StartChar: product
Encoding: 28 8719 16
Width: 1520
Flags: W
HStem: -195 82<291.119 1236.41> -42 79<959.871 1053.18> 99 85<625.614 707.339> 105 91<963.477 1034.1> 416 79<622.014 708.307 974.688 1033.85> 699 93<271.557 1229.59>
VStem: 160 86<-68.8945 672.193> 390 74<112 618> 510 79<226.886 378.505> 736 85<215.72 385.225> 861 84<213.075 382.316> 1064 79<209.18 384.365 433.134 477> 1276 87<-70.9277 652.955>
LayerCount: 2
Fore
SplineSet
1143 79 m 2xdff8
 1143 39 1130.17 8.83333 1104.5 -11.5 c 0
 1078.83 -31.8333 1045.67 -42 1005 -42 c 0
 969.667 -42 943.333 -37 926 -27 c 0
 896.667 -10.3333 877 22 867 70 c 1
 956 70 l 1
 960.667 48 976 37 1002 37 c 0
 1032 37 1051 47.6667 1059 69 c 0
 1060.33 74.3333 1063.33 101.667 1068 151 c 1
 1060.67 147.667 1047.67 138 1029 122 c 0
 1015.67 110.667 1001 105 985 105 c 0
 937 105 902.333 132.667 881 188 c 0
 867.667 222 861 257.333 861 294 c 0
 861 335.333 867.667 373.667 881 409 c 0
 901 462.333 933.667 489 979 489 c 0
 1002.33 489 1020.67 483.667 1034 473 c 0
 1040.67 467.667 1051.67 454.333 1067 433 c 1
 1069 435.667 1070 450.333 1070 477 c 1
 1143 477 l 1
 1143 79 l 2xdff8
821 294 m 0
 821 252 808.667 211 784 171 c 0
 754 123 714.667 99 666 99 c 0xeff8
 616 99 576 124 546 174 c 0
 522 214 510 255 510 297 c 0
 510 347.667 523 392 549 430 c 0
 579 473.333 618 495 666 495 c 0
 716.667 495 756.333 473.333 785 430 c 0
 809 392.667 821 347.333 821 294 c 0
464 112 m 1
 390 112 l 1
 390 618 l 1
 464 618 l 1
 464 112 l 1
1064 300 m 0
 1064 322.667 1059.33 345.333 1050 368 c 0
 1038.67 396 1023.67 410 1005 410 c 256
 986.333 410 971 395.667 959 367 c 0
 949.667 344.333 945 321 945 297 c 256
 945 273 946 257.333 948 250 c 0
 952 234 962.667 216 980 196 c 1
 1029 196 l 1xdff8
 1052.33 212 1064 246.667 1064 300 c 0
736 297 m 0
 736 324.333 731 349.333 721 372 c 0
 708.333 401.333 690.667 416 668 416 c 0
 640.667 416 619.667 399.667 605 367 c 0
 594.333 343.667 589 320.333 589 297 c 0
 589 278.333 595.333 256.333 608 231 c 0
 624 199.667 644 184 668 184 c 0xeff8
 689.333 184 706.667 198 720 226 c 0
 730.667 249.333 736 273 736 297 c 0
344 792 m 2
 1196 792 l 2
 1250 792 1291.33 777.5 1320 748.5 c 0
 1348.67 719.5 1363 678 1363 624 c 2
 1363 -27 l 2
 1363 -139 1301.67 -195 1179 -195 c 2
 327 -195 l 2
 273 -195 231.667 -180.333 203 -151 c 0
 174.333 -121.667 160 -80.3333 160 -27 c 2
 157 606 l 2
 157 666 173.333 712 206 744 c 0
 238.667 776 284.667 792 344 792 c 2
315 699 m 1
 291.667 697 274 685.333 262 664 c 0
 251.333 645.333 246 623.667 246 599 c 2
 246 -14 l 2
 246 -37.3333 256.833 -59.6667 278.5 -81 c 0
 300.167 -102.333 322.667 -113 346 -113 c 2
 1177 -113 l 2
 1203 -113 1226 -103 1246 -83 c 0
 1266 -63 1276 -40 1276 -14 c 2
 1276 599 l 2
 1276 621 1265 643.167 1243 665.5 c 0
 1221 687.833 1199 699 1177 699 c 2
 315 699 l 1
EndSplineSet
Validated: 1
EndChar

StartChar: pi
Encoding: 29 960 17
Width: 1520
Flags: W
HStem: -195 82<291.119 1236.41> 345 96<868.188 944.6> 699 93<271.557 1229.59>
VStem: 160 86<-68.8945 672.193> 762 75<252 319.54> 952 86<286 339.175> 1276 87<-70.9277 652.955>
LayerCount: 2
Fore
SplineSet
518 583 m 1
 518 18 l 1
 608 18 l 1
 608 583 l 1
 518 583 l 1
762 436 m 1
 762 27 l 1
 837 27 l 1
 837 252 l 2
 837 275.333 843 296 855 314 c 0
 868.333 334.667 886 345 908 345 c 0
 937.333 345 952 325.333 952 286 c 2
 952 25 l 1
 1038 25 l 1
 1038 288 l 2
 1038 328.667 1030.67 362.667 1016 390 c 0
 997.333 424 969.333 441 932 441 c 0
 910 441 890 434.667 872 422 c 0
 852 408.667 841 391.667 839 371 c 1
 839 436 l 1
 762 436 l 1
344 792 m 2
 1196 792 l 2
 1250 792 1291.33 777.5 1320 748.5 c 0
 1348.67 719.5 1363 678 1363 624 c 2
 1363 -27 l 2
 1363 -139 1301.67 -195 1179 -195 c 2
 327 -195 l 2
 273 -195 231.667 -180.333 203 -151 c 0
 174.333 -121.667 160 -80.3333 160 -27 c 2
 157 606 l 2
 157 666 173.333 712 206 744 c 0
 238.667 776 284.667 792 344 792 c 2
315 699 m 1
 291.667 697 274 685.333 262 664 c 0
 251.333 645.333 246 623.667 246 599 c 2
 246 -14 l 2
 246 -37.3333 256.833 -59.6667 278.5 -81 c 0
 300.167 -102.333 322.667 -113 346 -113 c 2
 1177 -113 l 2
 1203 -113 1226 -103 1246 -83 c 0
 1266 -63 1276 -40 1276 -14 c 2
 1276 599 l 2
 1276 621 1265 643.167 1243 665.5 c 0
 1221 687.833 1199 699 1177 699 c 2
 315 699 l 1
EndSplineSet
Validated: 9
EndChar

StartChar: grave
Encoding: 30 96 18
Width: 1520
Flags: W
HStem: -195 82<280.119 1248.41> 11 81<436.619 536.232> 345 86<1003.18 1079.31> 363 73<445.666 525.76> 699 93<260.557 1241.59>
VStem: 149 86<-68.8945 672.193> 335 83<109.019 154> 346 94<283.875 357.894> 539 106<99.0469 165.819> 540 83<302 344.951> 875 96<278 324.496> 1092 85<265 334.324> 1288 87<-70.9277 652.955>
LayerCount: 2
Fore
SplineSet
623 302 m 1xdd78
 621 391.333 573 436 479 436 c 0
 398.333 436 354 395 346 313 c 1xdd78
 346 271.667 362.333 240.333 395 219 c 0
 399.667 216.333 430.333 204 487 182 c 0
 521 169.333 538.333 152.333 539 131 c 0
 540.333 105 523 92 487 92 c 0
 467.667 92 451.333 97.5 438 108.5 c 0
 424.667 119.5 418 134.667 418 154 c 1
 335 154 l 1
 334.333 126 338.667 102.333 348 83 c 0
 370.667 35 416 11 484 11 c 0
 577.333 11 631 49.3333 645 126 c 1xdeb8
 645 174.667 627.333 210 592 232 c 0
 582 238.667 548.667 251 492 269 c 0
 456.667 280.333 439.333 297.333 440 320 c 0
 440.667 348.667 455 363 483 363 c 0
 500.333 363 514.333 357.167 525 345.5 c 0
 535.667 333.833 540.667 319.333 540 302 c 1
 623 302 l 1xdd78
701 422 m 1
 701 25 l 1
 795 25 l 1
 795 422 l 1
 701 422 l 1
697 573 m 1
 697 473 l 1
 793 473 l 1
 793 573 l 1
 697 573 l 1
875 422 m 1
 875 23 l 1
 971 23 l 1
 971 278 l 2
 971 295.333 978.167 310.833 992.5 324.5 c 0
 1006.83 338.167 1022.67 345 1040 345 c 0
 1074.67 345 1092 318.333 1092 265 c 2
 1092 21 l 1
 1177 21 l 1
 1178.33 95 1178.33 188.667 1177 302 c 0
 1176.33 338.667 1168.33 368.333 1153 391 c 0
 1135 417.667 1108.67 431 1074 431 c 0xec38
 1052.67 431 1031.67 425.333 1011 414 c 0
 987 400.667 974.333 384 973 364 c 1
 973 422 l 1
 875 422 l 1
333 792 m 2
 1208 792 l 2
 1262 792 1303.33 777.5 1332 748.5 c 0
 1360.67 719.5 1375 678 1375 624 c 2
 1375 -27 l 2
 1375 -139 1313.67 -195 1191 -195 c 2
 316 -195 l 2
 262 -195 220.667 -180.333 192 -151 c 0
 163.333 -121.667 149 -80.3333 149 -27 c 2
 146 606 l 2
 146 666 162.333 712 195 744 c 0
 227.667 776 273.667 792 333 792 c 2
304 699 m 1
 280.667 697 263 685.333 251 664 c 0
 240.333 645.333 235 623.667 235 599 c 2
 235 -14 l 2
 235 -37.3333 245.833 -59.6667 267.5 -81 c 0
 289.167 -102.333 311.667 -113 335 -113 c 2xce38
 1189 -113 l 2
 1215 -113 1238 -103 1258 -83 c 0
 1278 -63 1288 -40 1288 -14 c 2
 1288 599 l 2
 1288 621 1277 643.167 1255 665.5 c 0
 1233 687.833 1211 699 1189 699 c 2
 304 699 l 1
EndSplineSet
Validated: 41
EndChar

StartChar: quotesingle
Encoding: 31 39 19
Width: 1520
Flags: W
HStem: -195 82<291.119 1236.41> 88 86<412.821 485.78 728.65 811.317 1051.34 1138.27> 434 90<405.542 495.774 724.15 816.114 1053.11 1135.21> 699 93<271.557 1229.59>
VStem: 160 86<-68.8945 672.193> 301 83<205.376 412.891> 505 83<193.317 255 370 426.574> 615 78<217.743 398.895> 843 85<209.932 405.418> 957 86<182.297 233> 966 86<364.109 433.962> 1143 97<180.215 248.099> 1144 76<384 426.133> 1276 87<-70.9277 652.955>
LayerCount: 2
Fore
SplineSet
1220 384 m 1xffac
 1218 473.333 1174 518.333 1088 519 c 0
 1014.67 519 974 477.667 966 395 c 1xffac
 966 353.667 981.333 322 1012 300 c 0
 1017.33 296 1045.67 283.333 1097 262 c 0
 1127.67 249.333 1143 232.333 1143 211 c 0
 1143 199.667 1138.17 190.667 1128.5 184 c 0
 1118.83 177.333 1108.33 174 1097 174 c 0
 1061 174 1043 193.667 1043 233 c 1
 957 234 l 1
 955.667 188.667 966.5 153 989.5 127 c 0
 1012.5 101 1047 88 1093 88 c 0
 1178.33 88 1227.33 127 1240 205 c 1xffd4
 1240 254.333 1223.67 290.333 1191 313 c 0
 1183 318.333 1152.67 330.667 1100 350 c 0
 1067.33 362 1051.33 379.333 1052 402 c 0
 1052.67 426 1064.67 438 1088 438 c 0
 1102.67 438 1115.67 432.667 1127 422 c 0
 1138.33 411.333 1144 398.667 1144 384 c 1
 1220 384 l 1xffac
772 524 m 256
 824 524 864.667 496.667 894 442 c 0
 918 397.333 929.333 348 928 294 c 0
 926.667 236.667 914.667 189.667 892 153 c 0
 864 108.333 823 86 769 86 c 256
 715 86 673.667 116 645 176 c 0
 625 218 615 261.333 615 306 c 0
 615 357.333 626.667 403.667 650 445 c 0
 679.333 497.667 720 524 772 524 c 256
769 434 m 0
 742.333 434 722 418.333 708 387 c 0
 698 363.667 693 336.667 693 306 c 0
 693 280 699.333 252.667 712 224 c 0
 727.333 189.333 745.667 172.667 767 174 c 0
 793.667 175.333 814 191.333 828 222 c 0
 838 245.333 843 272.667 843 304 c 0
 843 390.667 818.333 434 769 434 c 0
502 370 m 1
 583 370 l 1
 583 412 570.833 447.667 546.5 477 c 0
 522.167 506.333 489.333 522 448 524 c 0
 396.667 526.667 357.667 501.667 331 449 c 1
 311 407.667 301 358.667 301 302 c 0
 301 252.667 310.333 207.333 329 166 c 0
 353.667 112.667 387.667 86 431 86 c 0
 515.667 86 568 142.333 588 255 c 1
 505 255 l 1
 502.333 204.333 482.667 179 446 179 c 0
 423.333 179 406.333 195.667 395 229 c 0
 387.667 251.667 384 277.667 384 307 c 0
 384 334.333 387.667 360.333 395 385 c 0
 405 421 420.333 439 441 439 c 0
 486.333 439 506.667 416 502 370 c 1
344 792 m 2
 1196 792 l 2
 1250 792 1291.33 777.5 1320 748.5 c 0
 1348.67 719.5 1363 678 1363 624 c 2
 1363 -27 l 2
 1363 -139 1301.67 -195 1179 -195 c 2
 327 -195 l 2
 273 -195 231.667 -180.333 203 -151 c 0
 174.333 -121.667 160 -80.3333 160 -27 c 2
 157 606 l 2
 157 666 173.333 712 206 744 c 0
 238.667 776 284.667 792 344 792 c 2
315 699 m 1
 291.667 697 274 685.333 262 664 c 0
 251.333 645.333 246 623.667 246 599 c 2
 246 -14 l 2
 246 -37.3333 256.833 -59.6667 278.5 -81 c 0
 300.167 -102.333 322.667 -113 346 -113 c 2
 1177 -113 l 2
 1203 -113 1226 -103 1246 -83 c 0
 1266 -63 1276 -40 1276 -14 c 2
 1276 599 l 2
 1276 621 1265 643.167 1243 665.5 c 0
 1221 687.833 1199 699 1177 699 c 2
 315 699 l 1
EndSplineSet
Validated: 41
EndChar

StartChar: exclam
Encoding: 33 33 20
Width: 1520
Flags: W
HStem: -195 82<281.119 1247.41> 37 80<456.16 504.533 647.861 715.685> 231 66<665.106 747.077> 382 87<1019.18 1095.31> 382 79<648.476 740.492> 699 93<261.557 1240.59>
VStem: 150 86<-68.8945 672.193> 387 123<44 116.732> 549 87<131.923 201.114> 558 84<327 378.961> 749 83<44.1809 106 140.748 225.625 295.504 374.935> 899 88<315 361.496> 1108 86<302 370.806> 1287 87<-70.9277 652.955>
LayerCount: 2
Fore
SplineSet
375 561 m 1xef3c
 375 461 l 1
 327 461 l 1
 327 382 l 1
 378 382 l 1
 378 131 l 2
 378 99 381 77 387 65 c 0
 396.333 46.3333 415.667 37 445 37 c 2
 510 37 l 1
 505 119 l 1
 495 117.667 487.333 117 482 117 c 0
 468 117 459.333 122 456 132 c 1
 455.333 136.667 455.333 148 456 166 c 0
 457.333 191.333 457.333 262.333 456 379 c 1
 512 379 l 1
 512 464 l 1
 459 464 l 1
 459 561 l 1
 375 561 l 1xef3c
698 466 m 0
 656 466 622.167 453.333 596.5 428 c 0
 570.833 402.667 558 369 558 327 c 1
 642 327 l 1xe77c
 643.333 365.667 657 385 683 385 c 0
 686.333 385 689.667 384.667 693 384 c 0
 728.333 382 745.333 368 744 342 c 0
 742.667 321.333 744.333 305.667 749 295 c 1
 739 296.333 727.667 297 715 297 c 0
 603 297 547.667 246.667 549 146 c 0xe7bc
 549.667 74.6667 580.667 38.3333 642 37 c 0xe77c
 696 36.3333 731.667 59.3333 749 106 c 1
 749.667 64.6667 755 44 765 44 c 2
 860 44 l 1
 842 38 832.667 63 832 119 c 1
 832 360 l 1
 832.667 396.667 819 424.333 791 443 c 0
 767.667 458.333 736.667 466 698 466 c 0
899 459 m 1
 899 39 l 1
 987 39 l 1
 987 315 l 2
 987 332.333 994.167 347.833 1008.5 361.5 c 0
 1022.83 375.167 1038.67 382 1056 382 c 0
 1090.67 382 1108 355.333 1108 302 c 2
 1108 37 l 1
 1194 37 l 1
 1195.33 126.333 1195.33 227.333 1194 340 c 0
 1193.33 376.667 1185.33 406.333 1170 429 c 0
 1151.33 455.667 1124.67 469 1090 469 c 0xf73c
 1068.67 469 1047.67 463.333 1027 452 c 0
 1003 438.667 990.667 422 990 402 c 1
 990 459 l 1
 899 459 l 1
746 226 m 1
 748 218 749 209.333 749 200 c 0
 749 165.333 735 140.667 707 126 c 0
 697 120.667 687 118 677 118 c 0
 665 118 655.167 122.5 647.5 131.5 c 0
 639.833 140.5 636 151 636 163 c 0xe7bc
 636 174.333 639.667 184.333 647 193 c 0
 668.333 218.333 692.667 231 720 231 c 0
 729.333 231 738 229.333 746 226 c 1
334 792 m 2
 1207 792 l 2
 1261 792 1302.33 777.5 1331 748.5 c 0
 1359.67 719.5 1374 678 1374 624 c 2
 1374 -27 l 2
 1374 -139 1312.67 -195 1190 -195 c 2
 317 -195 l 2
 263 -195 221.667 -180.333 193 -151 c 0
 164.333 -121.667 150 -80.3333 150 -27 c 2
 147 606 l 2
 147 666 163.333 712 196 744 c 0
 228.667 776 274.667 792 334 792 c 2
305 699 m 1
 281.667 697 264 685.333 252 664 c 0
 241.333 645.333 236 623.667 236 599 c 2
 236 -14 l 2
 236 -37.3333 246.833 -59.6667 268.5 -81 c 0
 290.167 -102.333 312.667 -113 336 -113 c 2
 1188 -113 l 2
 1214 -113 1237 -103 1257 -83 c 0
 1277 -63 1287 -40 1287 -14 c 2
 1287 599 l 2
 1287 621 1276 643.167 1254 665.5 c 0
 1232 687.833 1210 699 1188 699 c 2
 305 699 l 1
EndSplineSet
Validated: 37
EndChar

StartChar: quotedbl
Encoding: 34 34 21
Width: 1520
Flags: W
HStem: -198 83<266.024 328 1192 1253.97> 711 83<266.024 328 1192 1253.97>
VStem: 145 83<-76.9757 -15 611 672.976> 1292 83<-76.9757 -15 611 672.976>
LayerCount: 2
Fore
SplineSet
328 794 m 0
 277.333 794 234.167 776.167 198.5 740.5 c 0
 162.833 704.833 145 661.667 145 611 c 0
 145 -15 l 0
 145 -65.6667 162.833 -108.833 198.5 -144.5 c 0
 234.167 -180.167 277.333 -198 328 -198 c 0
 1192 -198 l 0
 1242.67 -198 1285.83 -180.167 1321.5 -144.5 c 0
 1357.17 -108.833 1375 -65.6667 1375 -15 c 0
 1375 611 l 0
 1375 661.667 1357.17 704.833 1321.5 740.5 c 0
 1285.83 776.167 1242.67 794 1192 794 c 0
 328 794 l 0
228 -15 m 0
 228 611 l 0
 228 638.333 237.833 661.833 257.5 681.5 c 0
 277.167 701.167 300.667 711 328 711 c 0
 1192 711 l 0
 1219.33 711 1242.83 701.167 1262.5 681.5 c 0
 1282.17 661.833 1292 638.333 1292 611 c 0
 1292 -15 l 0
 1292 -42.3333 1282.17 -65.8333 1262.5 -85.5 c 0
 1242.83 -105.167 1219.33 -115 1192 -115 c 0
 328 -115 l 0
 300.667 -115 277.167 -105.167 257.5 -85.5 c 0
 237.833 -65.8333 228 -42.3333 228 -15 c 0
471 -45 m 0
 1049 -45 l 0
 1049 226 l 0
 471 226 l 0
 471 -45 l 0
1000 179 m 0
 1000 2 l 0
 520 2 l 0
 520 179 l 0
 1000 179 l 0
465 368 m 0
 1055 368 l 0
 1055 639 l 0
 465 639 l 0
 465 368 l 0
335 321 m 0
 335 274 l 0
 1185 274 l 0
 1185 321 l 0
 335 321 l 0
EndSplineSet
Validated: 9
EndChar

StartChar: numbersign
Encoding: 35 35 22
Width: 1520
Flags: W
HStem: -195 82<291.119 1236.41> 0 103<1006 1120.58> 249 103<401 561> 488 105<401 583 1006 1128.93> 699 93<271.557 1229.59>
VStem: 160 86<-68.8945 672.193> 325 76<0 249 352 488> 932 74<103 490> 1163 77<160.001 450.173> 1276 87<-70.9277 652.955>
LayerCount: 2
Fore
SplineSet
344 792 m 2
 1196 792 l 2
 1250 792 1291.33 777.5 1320 748.5 c 0
 1348.67 719.5 1363 678 1363 624 c 2
 1363 -27 l 2
 1363 -139 1301.67 -195 1179 -195 c 2
 327 -195 l 2
 273 -195 231.667 -180.333 203 -151 c 0
 174.333 -121.667 160 -80.3333 160 -27 c 2
 157 606 l 2
 157 666 173.333 712 206 744 c 0
 238.667 776 284.667 792 344 792 c 2
315 699 m 1
 291.667 697 274 685.333 262 664 c 0
 251.333 645.333 246 623.667 246 599 c 2
 246 -14 l 2
 246 -37.3333 256.833 -59.6667 278.5 -81 c 0
 300.167 -102.333 322.667 -113 346 -113 c 2
 1177 -113 l 2
 1203 -113 1226 -103 1246 -83 c 0
 1266 -63 1276 -40 1276 -14 c 2
 1276 599 l 2
 1276 621 1265 643.167 1243 665.5 c 0
 1221 687.833 1199 699 1177 699 c 2
 315 699 l 1
325 593 m 1
 583 593 l 1
 583 488 l 1
 401 488 l 1
 401 352 l 1
 561 352 l 1
 561 249 l 1
 401 249 l 1
 401 0 l 1
 325 0 l 1
 325 593 l 1
1006 490 m 1
 1006 103 l 1
 1076 103 l 2
 1111.33 103 1136.33 132 1151 190 c 0
 1159 222 1163 259.667 1163 303 c 0
 1163 356.333 1159.67 395.333 1153 420 c 0
 1140.33 466.667 1114.67 490 1076 490 c 2
 1006 490 l 1
1089 594 m 2
 1143 594 1182.33 564.333 1207 505 c 0
 1229 453 1240 388.333 1240 311 c 0
 1240 231.667 1230.33 165 1211 111 c 0
 1184.33 37 1143.67 0 1089 0 c 2
 932 0 l 1
 932 594 l 1
 1089 594 l 2
663 392 m 1
 595 267 l 1
 665 129 l 1
 665 230 l 1
 827 230 l 1
 827 129 l 1
 900 259 l 1
 827 397 l 1
 827 303 l 1
 663 303 l 1
 663 392 l 1
EndSplineSet
Validated: 9
EndChar

StartChar: dollar
Encoding: 36 36 23
Width: 1520
Flags: W
HStem: -152 78<314.328 1211.67> 697 89<290.996 1205.67>
VStem: 189 81<-29.5 664.185> 626 109<202.008 434.953> 1249 82<-33.8359 654.594>
LayerCount: 2
Fore
SplineSet
796 626 m 0
 745.333 590.667 704.667 545.667 674 491 c 0
 642 434.333 626 376 626 316 c 0
 626 203.333 684.333 101.333 801 10 c 0
 821.667 -6 838 -14 850 -14 c 0
 862.667 -14 869 -7 869 7 c 0
 869 28.3333 857 51.3333 833 76 c 0
 767.667 144 735 226.333 735 323 c 0
 735 425.667 768.667 510.667 836 578 c 0
 865.333 607.333 880 628.333 880 641 c 0
 880 649 874.667 653 864 653 c 0
 844 653 821.333 644 796 626 c 0
363 786 m 2
 1173 786 l 2
 1278.33 786 1331 732.667 1331 626 c 2
 1331 8 l 2
 1331 -98.6667 1273 -152 1157 -152 c 2
 347 -152 l 2
 241.667 -152 189 -98.6667 189 8 c 2
 189 612 l 2
 189 728 247 786 363 786 c 2
336 697 m 2
 313.333 697 296 686.333 284 665 c 0
 274.667 647.667 270 626.667 270 602 c 2
 270 20 l 2
 270 -2 280.333 -23.1667 301 -43.5 c 0
 321.667 -63.8333 343 -74 365 -74 c 2
 1155 -74 l 2
 1179 -74 1200.67 -64.3333 1220 -45 c 0
 1239.33 -25.6667 1249 -4 1249 20 c 2
 1249 602 l 2
 1249 624 1238.83 645.333 1218.5 666 c 0
 1198.17 686.667 1177 697 1155 697 c 2
 336 697 l 2
EndSplineSet
Validated: 9
EndChar

StartChar: percent
Encoding: 37 37 24
Width: 1520
Flags: W
HStem: -152 78<312.75 1212.71> 697 89<293.772 1206.88>
VStem: 190 82<-32.0606 664.154> 790 108<195.091 425.601> 1250 83<-33.8359 654.594>
LayerCount: 2
Fore
SplineSet
365 786 m 2
 1174 786 l 2
 1280 786 1333 732.667 1333 626 c 2
 1333 8 l 2
 1333 -98.6667 1274.67 -152 1158 -152 c 2
 349 -152 l 2
 297.667 -152 258.333 -138 231 -110 c 0
 203.667 -82 190 -42.6667 190 8 c 2
 187 609 l 2
 187 665.667 202.5 709.333 233.5 740 c 0
 264.5 770.667 308.333 786 365 786 c 2
337 697 m 2
 315 697 298 686.333 286 665 c 1
 276.667 647 272 626 272 602 c 2
 272 20 l 2
 272 -2 282.333 -23.1667 303 -43.5 c 0
 323.667 -63.8333 345 -74 367 -74 c 2
 1156 -74 l 2
 1180 -74 1201.67 -64.3333 1221 -45 c 0
 1240.33 -25.6667 1250 -4 1250 20 c 2
 1250 602 l 2
 1250 624 1239.83 645.333 1219.5 666 c 0
 1199.17 686.667 1178 697 1156 697 c 2
 337 697 l 2
729 617 m 0
 779 581.667 819.333 536.667 850 482 c 0
 882 424.667 898 366.667 898 308 c 0
 898 194.667 839.667 92.6667 723 2 c 0
 702.333 -14 685.667 -22 673 -22 c 0
 661 -22 655 -15.3333 655 -2 c 0
 655 18.6667 667.333 41.6667 692 67 c 0
 757.333 135 790 217 790 313 c 0
 790 416.333 756.333 501.667 689 569 c 0
 659 599 644 620.333 644 633 c 0
 644 640.333 649.333 644 660 644 c 0
 680.667 644 703.667 635 729 617 c 0
EndSplineSet
Validated: 1
EndChar

StartChar: ampersand
Encoding: 38 38 25
Width: 1520
Flags: W
HStem: -152 78<314.328 1211.67> 697 89<290.996 1205.67>
VStem: 189 81<-29.5 664.185> 628 256<305.094 435.602> 1249 82<-33.8359 654.594>
LayerCount: 2
Fore
SplineSet
363 786 m 2
 1173 786 l 2
 1278.33 786 1331 732.667 1331 626 c 2
 1331 8 l 2
 1331 -98.6667 1273 -152 1157 -152 c 2
 347 -152 l 2
 241.667 -152 189 -98.6667 189 8 c 2
 189 612 l 2
 189 728 247 786 363 786 c 2
336 697 m 2
 313.333 697 296 686.333 284 665 c 0
 274.667 647.667 270 626.667 270 602 c 2
 270 20 l 2
 270 -2 280.333 -23.1667 301 -43.5 c 0
 321.667 -63.8333 343 -74 365 -74 c 2
 1155 -74 l 2
 1179 -74 1200.67 -64.3333 1220 -45 c 0
 1239.33 -25.6667 1249 -4 1249 20 c 2
 1249 602 l 2
 1249 624 1238.83 645.333 1218.5 666 c 0
 1198.17 686.667 1177 697 1155 697 c 2
 336 697 l 2
670 99 m 1
 690 103 717.667 119.667 753 149 c 0
 798.333 187 833.333 229 858 275 c 0
 875.333 307.667 884 338.333 884 367 c 0
 884 416.333 858.333 456 807 486 c 0
 795.667 492.667 782.667 496 768 496 c 0
 744.667 496 720.333 488.667 695 474 c 0
 669.667 459.333 651 441.667 639 421 c 0
 631.667 409 628 394.667 628 378 c 0
 628 357.333 633.667 336 645 314 c 0
 656.333 292 670.333 276.333 687 267 c 0
 719 249 736.333 240 739 240 c 0
 739.667 240 741.333 240.333 744 241 c 256
 746.667 241.667 750.667 241.667 756 241 c 1
 756 246 l 1
 758 252 759 255.333 759 256 c 1
 757.667 256 750 247.333 736 230 c 0
 694 176.667 672 133 670 99 c 1
EndSplineSet
Validated: 5
EndChar

StartChar: quoteright
Encoding: 39 8217 26
Width: 1520
Flags: W
HStem: -195 82<291.119 1236.41> 222 137<361 964> 699 93<271.557 1229.59>
VStem: 160 86<-68.8945 672.193> 1276 87<-70.9277 652.955>
LayerCount: 2
Fore
SplineSet
344 792 m 2
 1196 792 l 2
 1250 792 1291.33 777.5 1320 748.5 c 0
 1348.67 719.5 1363 678 1363 624 c 2
 1363 -27 l 2
 1363 -139 1301.67 -195 1179 -195 c 2
 327 -195 l 2
 273 -195 231.667 -180.333 203 -151 c 0
 174.333 -121.667 160 -80.3333 160 -27 c 2
 157 606 l 2
 157 666 173.333 712 206 744 c 0
 238.667 776 284.667 792 344 792 c 2
315 699 m 1
 291.667 697 274 685.333 262 664 c 0
 251.333 645.333 246 623.667 246 599 c 2
 246 -14 l 2
 246 -37.3333 256.833 -59.6667 278.5 -81 c 0
 300.167 -102.333 322.667 -113 346 -113 c 2
 1177 -113 l 2
 1203 -113 1226 -103 1246 -83 c 0
 1266 -63 1276 -40 1276 -14 c 2
 1276 599 l 2
 1276 621 1265 643.167 1243 665.5 c 0
 1221 687.833 1199 699 1177 699 c 2
 315 699 l 1
361 359 m 1
 967 359 l 1
 967 465 l 1
 1192 294 l 1
 964 119 l 1
 964 222 l 1
 361 222 l 1
 361 359 l 1
EndSplineSet
Validated: 1
EndChar

StartChar: asterisk
Encoding: 42 42 27
Width: 1520
Flags: W
HStem: -152 78<314.328 1211.67> 30 90<688.954 807.543> 509 97<698.414 810.577> 697 89<290.996 1205.67>
VStem: 189 81<-29.5 664.185> 551 114<349.055 473.672> 571 96<137.529 187> 846 121<166.598 267> 1249 82<-33.8359 654.594>
LayerCount: 2
Fore
SplineSet
757 606 m 0xfd80
 839.667 606 897.333 577 930 519 c 0
 954.667 475.667 967 409 967 319 c 0
 967 126.333 897 30 757 30 c 0
 696.333 30 651.333 41 622 63 c 0
 588.667 87.6667 571.667 129 571 187 c 1
 667 190 l 1xfb80
 671.667 164 679.667 145.833 691 135.5 c 0
 702.333 125.167 720.667 120 746 120 c 0
 812.667 120 846 165.333 846 256 c 2
 846 267 l 1
 806 237.667 770.333 224.333 739 227 c 0
 681.667 232.333 639.667 244 613 262 c 0
 571.667 290 551 338.667 551 408 c 0
 551 472 569.333 521 606 555 c 0
 642.667 589 693 606 757 606 c 0xfd80
753 509 m 0
 727 508.333 705.667 498 689 478 c 0
 672.333 458 664.333 434.667 665 408 c 0xfd80
 665.667 382 675.333 359.5 694 340.5 c 0
 712.667 321.5 735 313 761 315 c 0
 786.333 317 807 328 823 348 c 0
 839 368 846.333 390.667 845 416 c 256
 843.667 441.333 834.167 463.333 816.5 482 c 0
 798.833 500.667 777.667 509.667 753 509 c 0
363 786 m 2
 1173 786 l 2
 1278.33 786 1331 732.667 1331 626 c 2
 1331 8 l 2
 1331 -98.6667 1273 -152 1157 -152 c 2
 347 -152 l 2
 241.667 -152 189 -98.6667 189 8 c 2
 189 612 l 2
 189 728 247 786 363 786 c 2
336 697 m 2
 313.333 697 296 686.333 284 665 c 0
 274.667 647.667 270 626.667 270 602 c 2
 270 20 l 2
 270 -2 280.333 -23.1667 301 -43.5 c 0
 321.667 -63.8333 343 -74 365 -74 c 2
 1155 -74 l 2
 1179 -74 1200.67 -64.3333 1220 -45 c 0
 1239.33 -25.6667 1249 -4 1249 20 c 2
 1249 602 l 2
 1249 624 1238.83 645.333 1218.5 666 c 0
 1198.17 686.667 1177 697 1155 697 c 2
 336 697 l 2
EndSplineSet
Validated: 33
EndChar

StartChar: plus
Encoding: 43 43 28
Width: 1520
Flags: W
HStem: -195 82<279.653 1243.01> 699 93<261.959 1240.25>
VStem: 149 86<-67.6997 670.685> 527 86<162.354 448.085> 1287 87<-70.9277 650.736>
LayerCount: 2
Fore
SplineSet
333 792 m 2
 1207 792 l 2
 1260.33 792 1301.5 777.5 1330.5 748.5 c 0
 1359.5 719.5 1374 678 1374 624 c 2
 1374 -27 l 2
 1374 -139 1312.67 -195 1190 -195 c 2
 316 -195 l 2
 257.333 -195 213.667 -177.667 185 -143 c 0
 161 -114.333 149 -75.6667 149 -27 c 2
 146 606 l 2
 146 666.667 163 713.333 197 746 c 0
 229.667 776.667 275 792 333 792 c 2
304 699 m 1
 281.333 697 263.667 685.333 251 664 c 0
 240.333 646 235 624.333 235 599 c 2
 235 -14 l 2
 235 -33.3333 244.333 -54 263 -76 c 0
 284.333 -100.667 308.333 -113 335 -113 c 2
 1188 -113 l 2
 1209.33 -113 1230.33 -104.667 1251 -88 c 0
 1275 -68 1287 -43.3333 1287 -14 c 2
 1287 599 l 2
 1287 618.333 1277.33 639 1258 661 c 0
 1236.67 686.333 1213.33 699 1188 699 c 2
 304 699 l 1
300 603 m 1
 300 0 l 1
 464 0 l 2
 509.333 0 546.333 33 575 99 c 1
 600.333 159 613 230.667 613 314 c 0
 613 394 600.667 460.333 576 513 c 0
 548.667 573 510.667 603 462 603 c 2
 300 603 l 1
373 495 m 1
 457 495 l 2
 479 495 496.333 476 509 438 c 0
 521 404 527 361.333 527 310 c 0
 527 254 520.333 206.333 507 167 c 0
 491.667 122.333 471.667 100 447 100 c 2
 373 100 l 1
 373 495 l 1
653 603 m 1
 653 -10 l 1
 919 -10 l 1
 919 100 l 1
 730 100 l 1
 730 260 l 1
 895 260 l 1
 895 366 l 1
 728 366 l 1
 728 493 l 1
 914 493 l 1
 914 603 l 1
 653 603 l 1
981 603 m 1
 981 -10 l 1
 1228 -10 l 1
 1228 97 l 1
 1056 97 l 1
 1056 603 l 1
 981 603 l 1
EndSplineSet
Validated: 9
EndChar

StartChar: comma
Encoding: 44 44 29
Width: 1887
Flags: W
HStem: -195 82<291.119 1603.41> 0 107<698.099 770.224> 201 71<1179.86 1260.41> 505 105<696.898 770.831> 534 73<1179.06 1258.52> 699 93<271.557 1596.59>
VStem: 160 86<-68.8945 672.193> 585 76<155.246 456.56> 794 67<131.75 218 403 481.012> 919 56<134 155.261> 1093 58<304.673 501.926> 1288 56<301.797 500.312> 1643 87<-70.9277 652.955>
LayerCount: 2
Fore
SplineSet
344 792 m 2xe7f8
 1563 792 l 2
 1617 792 1658.33 777.5 1687 748.5 c 0
 1715.67 719.5 1730 678 1730 624 c 2
 1730 -27 l 2
 1730 -139 1668.67 -195 1546 -195 c 2
 327 -195 l 2
 273 -195 231.667 -180.333 203 -151 c 0
 174.333 -121.667 160 -80.3333 160 -27 c 2
 157 606 l 2
 157 666 173.333 712 206 744 c 0
 238.667 776 284.667 792 344 792 c 2xe7f8
315 699 m 1
 291.667 697 274 685.333 262 664 c 0
 251.333 645.333 246 623.667 246 599 c 2
 246 -14 l 2
 246 -37.3333 256.833 -59.6667 278.5 -81 c 0
 300.167 -102.333 322.667 -113 346 -113 c 2
 1544 -113 l 2
 1570 -113 1593 -103 1613 -83 c 0
 1633 -63 1643 -40 1643 -14 c 2
 1643 599 l 2
 1643 621 1632 643.167 1610 665.5 c 0
 1588 687.833 1566 699 1544 699 c 2
 315 699 l 1
397 593 m 1
 283 14 l 1
 353 14 l 1
 374 132 l 1
 485 132 l 1
 508 14 l 1
 578 14 l 1
 462 593 l 1
 397 593 l 1
861 403 m 1
 861 451.667 851 496 831 536 c 0
 805.667 585.333 770.667 610 726 610 c 0
 672.667 610 634 572.667 610 498 c 0
 593.333 447.333 585 388.667 585 322 c 0
 585 250 592.333 186.333 607 131 c 0
 630.333 43.6667 668.667 -3.46945e-18 722 0 c 0
 766.667 0 802.333 26.3333 829 79 c 0
 850.333 122.333 861 168.667 861 218 c 1
 794 221 l 1
 794 196.333 790 173 782 151 c 0
 770.667 121.667 754.667 107 734 107 c 0
 705.333 107 684.667 134.667 672 190 c 0
 664.667 224.667 661 263 661 305 c 0
 661 347.667 664.667 386 672 420 c 0
 684 476.667 704.333 505 733 505 c 0xf7f8
 753 505 769 492 781 466 c 0
 791 444.667 796 423 796 401 c 1
 861 403 l 1
1093 403 m 0
 1093 355 1101.67 312 1119 274 c 0
 1141.67 225.333 1174.33 201 1217 201 c 0
 1261 201 1294.67 227 1318 279 c 0
 1335.33 318.333 1344 363 1344 413 c 0
 1344 459.667 1335 501.333 1317 538 c 0
 1294.33 584 1262 607 1220 607 c 0xeff8
 1176.67 607 1143.33 582.333 1120 533 c 0
 1102 495 1093 451.667 1093 403 c 0
1151 401 m 0
 1151 430.333 1155.33 457.333 1164 482 c 0
 1176 516.667 1194 534 1218 534 c 0
 1242.67 534 1261.33 517 1274 483 c 0
 1283.33 457.667 1288 430.333 1288 401 c 256
 1288 371.667 1283.67 345 1275 321 c 0
 1263 288.333 1244.67 272 1220 272 c 0
 1201.33 272 1185.67 282.667 1173 304 c 0
 1158.33 328 1151 360.333 1151 401 c 0
1378 596 m 1
 1378 216 l 1
 1425 216 l 1
 1425 480 l 1
 1536 221 l 1
 1587 221 l 1
 1587 596 l 1
 1534 596 l 1
 1534 334 l 1
 1429 596 l 1
 1378 596 l 1
1080 623 m 1
 919 134 l 1
 975 134 l 1
 1134 623 l 1
 1080 623 l 1
429 448 m 1
 471 233 l 1
 387 233 l 1
 429 448 l 1
EndSplineSet
Validated: 9
EndChar

StartChar: parenright
Encoding: 41 41 30
Width: 1520
Flags: W
HStem: -152 78<314.328 1211.67> 34 90<708.846 827.776> 284 99<715.752 828.717> 697 89<290.996 1205.67>
VStem: 189 81<-29.5 664.185> 857 138<152.51 256.386> 1249 82<-33.8359 654.594>
LayerCount: 2
Fore
SplineSet
757 597 m 0
 812.333 597 858 587.667 894 569 c 1
 939.333 544.333 962 506.667 962 456 c 0
 962 425.333 957.333 402 948 386 c 0
 938.667 370 920.333 355 893 341 c 1
 961 301 995 253 995 197 c 0
 995 140.333 968 97.6667 914 69 c 0
 871.333 45.6667 819 34 757 34 c 0
 703.667 34 656.667 49.3333 616 80 c 0
 570.667 113.333 548 155.667 548 207 c 0
 548 241 555.333 267.333 570 286 c 0
 580.667 299.333 606 319 646 345 c 1
 595.333 367.667 570 402 570 448 c 0
 570 497.333 589.667 535.333 629 562 c 0
 663 585.333 705.667 597 757 597 c 0
766 284 m 256
 741.333 283.333 720.167 274.667 702.5 258 c 0
 684.833 241.333 677 221 679 197 c 0
 680.333 174.333 690 156.333 708 143 c 0
 726 129.667 746.667 123.333 770 124 c 0
 792.667 124.667 812.667 132 830 146 c 0
 847.333 160 856.333 178 857 200 c 0
 857.667 224.667 848.833 245 830.5 261 c 0
 812.167 277 790.667 284.667 766 284 c 256
762 516 m 0
 741.333 514.667 723.667 507.667 709 495 c 0
 692.333 481 684.667 464 686 444 c 256
 687.333 424 697 408.333 715 397 c 0
 731 387 749.333 382.333 770 383 c 256
 790.667 383.667 808.833 389.167 824.5 399.5 c 0
 840.167 409.833 848.667 424.667 850 444 c 0
 851.333 465.333 842.5 483 823.5 497 c 0
 804.5 511 784 517.333 762 516 c 0
363 786 m 2
 1173 786 l 2
 1278.33 786 1331 732.667 1331 626 c 2
 1331 8 l 2
 1331 -98.6667 1273 -152 1157 -152 c 2
 347 -152 l 2
 241.667 -152 189 -98.6667 189 8 c 2
 189 612 l 2
 189 728 247 786 363 786 c 2
336 697 m 2
 313.333 697 296 686.333 284 665 c 0
 274.667 647.667 270 626.667 270 602 c 2
 270 20 l 2
 270 -2 280.333 -23.1667 301 -43.5 c 0
 321.667 -63.8333 343 -74 365 -74 c 2
 1155 -74 l 2
 1179 -74 1200.67 -64.3333 1220 -45 c 0
 1239.33 -25.6667 1249 -4 1249 20 c 2
 1249 602 l 2
 1249 624 1238.83 645.333 1218.5 666 c 0
 1198.17 686.667 1177 697 1155 697 c 2
 336 697 l 2
EndSplineSet
Validated: 33
EndChar

StartChar: parenleft
Encoding: 40 40 31
Width: 1520
Flags: W
HStem: -152 78<314.328 1211.67> 697 89<290.996 1205.67>
VStem: 189 81<-29.5 664.185> 608 148<39 163.453> 1249 82<-33.8359 654.594>
LayerCount: 2
Fore
SplineSet
556 586 m 1
 556 481 l 1
 844 481 l 1
 791.333 446.333 740 385.333 690 298 c 0
 635.333 202.667 608 116.333 608 39 c 1
 756 39 l 1
 761.333 135 780.333 215 813 279 c 0
 843 337.667 898 406.667 978 486 c 1
 978 586 l 1
 556 586 l 1
363 786 m 2
 1173 786 l 2
 1278.33 786 1331 732.667 1331 626 c 2
 1331 8 l 2
 1331 -98.6667 1273 -152 1157 -152 c 2
 347 -152 l 2
 241.667 -152 189 -98.6667 189 8 c 2
 189 612 l 2
 189 728 247 786 363 786 c 2
336 697 m 2
 313.333 697 296 686.333 284 665 c 0
 274.667 647.667 270 626.667 270 602 c 2
 270 20 l 2
 270 -2 280.333 -23.1667 301 -43.5 c 0
 321.667 -63.8333 343 -74 365 -74 c 2
 1155 -74 l 2
 1179 -74 1200.67 -64.3333 1220 -45 c 0
 1239.33 -25.6667 1249 -4 1249 20 c 2
 1249 602 l 2
 1249 624 1238.83 645.333 1218.5 666 c 0
 1198.17 686.667 1177 697 1155 697 c 2
 336 697 l 2
EndSplineSet
Validated: 9
EndChar

StartChar: hyphen
Encoding: 45 45 32
Width: 1520
Flags: W
HStem: -152 78<314.328 1211.67> 47 567<776 894.837> 697 89<290.996 1205.67>
VStem: 189 81<-29.5 664.185> 1249 82<-33.8359 654.594>
LayerCount: 2
Fore
SplineSet
363 786 m 2
 1173 786 l 2
 1278.33 786 1331 732.667 1331 626 c 2
 1331 8 l 2
 1331 -98.6667 1273 -152 1157 -152 c 2
 347 -152 l 2
 241.667 -152 189 -98.6667 189 8 c 2
 189 612 l 2
 189 728 247 786 363 786 c 2
336 697 m 2
 313.333 697 296 686.333 284 665 c 0
 274.667 647.667 270 626.667 270 602 c 2
 270 20 l 2
 270 -2 280.333 -23.1667 301 -43.5 c 0
 321.667 -63.8333 343 -74 365 -74 c 2
 1155 -74 l 2
 1179 -74 1200.67 -64.3333 1220 -45 c 0
 1239.33 -25.6667 1249 -4 1249 20 c 2
 1249 602 l 2
 1249 624 1238.83 645.333 1218.5 666 c 0
 1198.17 686.667 1177 697 1155 697 c 2
 336 697 l 2
516 164 m 1
 776 164 l 1
 776 47 l 1
 901 47 l 1
 901 164 l 1
 958 164 l 1
 958 258 l 1
 895 258 l 1
 895 612 l 1
 891.667 613.333 879.667 614 859 614 c 0
 834.333 614 798 613.333 750 612 c 1
 516 293 l 1
 516 164 l 1
610 261 m 1
 779 503 l 1
 779 261 l 1
 610 261 l 1
EndSplineSet
Validated: 9
EndChar

StartChar: period
Encoding: 46 46 33
Width: 1520
Flags: W
HStem: -152 78<314.328 1211.67> 25 91<692.74 810.577> 314 93<690.831 809.797> 495 102<694 947> 697 89<290.996 1205.67>
VStem: 189 81<-29.5 664.185> 544 113<150.837 202.875> 844 124<149.862 282.013> 1249 82<-33.8359 654.594>
LayerCount: 2
Fore
SplineSet
657 202 m 1
 656.333 181.333 666 161.833 686 143.5 c 0
 706 125.167 726.333 116 747 116 c 0
 777.667 116 801.5 125.667 818.5 145 c 0
 835.5 164.333 844 189.333 844 220 c 0
 844 247.333 835.667 269.833 819 287.5 c 0
 802.333 305.167 780.333 314 753 314 c 0
 733.667 314 718.667 311 708 305 c 0
 706 304.333 696 296.667 678 282 c 1
 560 282 l 1
 613 597 l 1
 947 597 l 1
 947 494 l 1
 694 495 l 1
 678 389 l 1
 686.667 389.667 704.333 393.667 731 401 c 0
 751 406.333 770 408.333 788 407 c 0
 908 399 968 336.667 968 220 c 1
 964 182.667 954.333 150.333 939 123 c 0
 902.333 57.6667 840.333 25 753 25 c 0
 696.333 25 648.333 40.3333 609 71 c 0
 567 104.333 545.333 148.667 544 204 c 1
 620.667 204 658.333 203.333 657 202 c 1
363 786 m 2
 1173 786 l 2
 1278.33 786 1331 732.667 1331 626 c 2
 1331 8 l 2
 1331 -98.6667 1273 -152 1157 -152 c 2
 347 -152 l 2
 241.667 -152 189 -98.6667 189 8 c 2
 189 612 l 2
 189 728 247 786 363 786 c 2
336 697 m 2
 313.333 697 296 686.333 284 665 c 0
 274.667 647.667 270 626.667 270 602 c 2
 270 20 l 2
 270 -2 280.333 -23.1667 301 -43.5 c 0
 321.667 -63.8333 343 -74 365 -74 c 2
 1155 -74 l 2
 1179 -74 1200.67 -64.3333 1220 -45 c 0
 1239.33 -25.6667 1249 -4 1249 20 c 2
 1249 602 l 2
 1249 624 1238.83 645.333 1218.5 666 c 0
 1198.17 686.667 1177 697 1155 697 c 2
 336 697 l 2
EndSplineSet
Validated: 33
EndChar

StartChar: slash
Encoding: 47 47 34
Width: 1520
Flags: W
HStem: -152 86<296.658 1221.43> 40 97<688.085 807.091> 328 97<688.012 805.385> 525 94<706.001 813.506> 708 86<292.253 1220.44>
VStem: 185 87<-46.551 688.029> 521 131<178.193 293.913> 844 128<171 291.081> 1249 86<-38.4316 680.432>
LayerCount: 2
Fore
SplineSet
304 794 m 2
 1195 794 l 2
 1235 794 1269.33 776.667 1298 742 c 0
 1322.67 712.667 1335 683.667 1335 655 c 2
 1335 -23 l 2
 1335 -48.3333 1322.67 -75.3333 1298 -104 c 0
 1270.67 -136 1240 -152 1206 -152 c 2
 293 -152 l 2
 261 -152 234 -137 212 -107 c 0
 194 -83 185 -62 185 -44 c 2
 185 665 l 2
 185 698.333 201.333 729.333 234 758 c 0
 261.333 782 284.667 794 304 794 c 2
336 708 m 2
 318 708 302.833 700.167 290.5 684.5 c 0
 278.167 668.833 272 651.667 272 633 c 2
 272 -1 l 2
 272 -20.3333 280 -36.3333 296 -49 c 0
 310 -60.3333 327 -66 347 -66 c 2
 1174 -66 l 2
 1191.33 -66 1208.17 -57.8333 1224.5 -41.5 c 0
 1240.83 -25.1667 1249 -8.33333 1249 9 c 2
 1249 633 l 2
 1249 650.333 1240.83 667.167 1224.5 683.5 c 0
 1208.17 699.833 1191.33 708 1174 708 c 2
 336 708 l 2
829 464 m 1
 829.667 500 803.667 520.333 751 525 c 1
 737.667 525 721.333 517.333 702 502 c 0
 670.667 477.333 655 440 655 390 c 0
 655 388.667 655.667 388 657 388 c 1
 638.333 388 648.667 394.167 688 406.5 c 0
 727.333 418.833 754 425 768 425 c 0
 844 425 899.667 400 935 350 c 0
 959.667 315.333 972 276.333 972 233 c 0
 972 190.333 956 150.333 924 113 c 0
 882 64.3333 823 40 747 40 c 0
 667.667 40 608.667 67.6667 570 123 c 0
 537.333 170.333 521 235.667 521 319 c 0
 521 519 599.667 619 757 619 c 0
 811 619 855 607 889 583 c 0
 929 555.667 948.667 516.333 948 465 c 1
 949 465 l 1
 829 464 l 1
752 328 m 0
 725.333 328.667 702.167 320.167 682.5 302.5 c 0
 662.833 284.833 652.667 263 652 237 c 0
 650.667 210.333 659 187.333 677 168 c 0
 695 148.667 717.333 138.333 744 137 c 0
 770 135.667 793 143.833 813 161.5 c 0
 833 179.167 843.333 201 844 227 c 256
 844.667 253 836 276.167 818 296.5 c 0
 800 316.833 778 327.333 752 328 c 0
EndSplineSet
Validated: 37
EndChar

StartChar: zero
Encoding: 48 48 35
Width: 1520
Flags: W
HStem: -152 78<314.328 1211.67> 697 89<290.775 1205.67>
VStem: 189 81<-29.5 664.185> 1249 82<-33.8359 654.594>
LayerCount: 2
Fore
SplineSet
363 786 m 2
 1173 786 l 2
 1278.33 786 1331 732.667 1331 626 c 2
 1331 8 l 2
 1331 -98.6667 1273 -152 1157 -152 c 2
 347 -152 l 2
 241.667 -152 189 -98.6667 189 8 c 2
 189 609 l 2
 189 665.667 204 709.333 234 740 c 0
 264 770.667 307 786 363 786 c 2
336 697 m 2
 313.333 697 296 686.333 284 665 c 0
 274.667 647.667 270 626.667 270 602 c 2
 270 20 l 2
 270 -2 280.333 -23.1667 301 -43.5 c 0
 321.667 -63.8333 343 -74 365 -74 c 2
 1155 -74 l 2
 1179 -74 1200.67 -64.3333 1220 -45 c 0
 1239.33 -25.6667 1249 -4 1249 20 c 2
 1249 602 l 2
 1249 624 1238.83 645.333 1218.5 666 c 0
 1198.17 686.667 1177 697 1155 697 c 2
 336 697 l 2
425 541 m 1
 536 649 l 1
 756 429 l 1
 969 640 l 1
 1075 535 l 1
 861 318 l 1
 1089 93 l 1
 981 -12 l 1
 761 210 l 1
 533 -15 l 1
 422 93 l 1
 650 318 l 1
 425 541 l 1
EndSplineSet
Validated: 1
EndChar

StartChar: two
Encoding: 50 50 36
Width: 1520
Flags: W
HStem: -152 78<314.328 1211.67> 422 75<592 706.84> 697 89<290.996 1205.67>
VStem: 189 81<-29.5 664.185> 721 118<25 422> 753 86<550.922 594> 1249 82<-33.8359 654.594>
LayerCount: 2
Fore
SplineSet
753 594 m 1xf6
 839 594 l 1xf6
 839 25 l 1
 721 25 l 1
 721 422 l 1xfa
 592 422 l 1
 592 497 l 1
 644.667 497 679.333 501.667 696 511 c 0
 715.333 521.667 734.333 549.333 753 594 c 1xf6
363 786 m 2
 1173 786 l 2
 1278.33 786 1331 732.667 1331 626 c 2
 1331 8 l 2
 1331 -98.6667 1273 -152 1157 -152 c 2
 347 -152 l 2
 241.667 -152 189 -98.6667 189 8 c 2
 189 612 l 2
 189 728 247 786 363 786 c 2
336 697 m 2
 313.333 697 296 686.333 284 665 c 0
 274.667 647.667 270 626.667 270 602 c 2
 270 20 l 2
 270 -2 280.333 -23.1667 301 -43.5 c 0
 321.667 -63.8333 343 -74 365 -74 c 2
 1155 -74 l 2
 1179 -74 1200.67 -64.3333 1220 -45 c 0
 1239.33 -25.6667 1249 -4 1249 20 c 2
 1249 602 l 2
 1249 624 1238.83 645.333 1218.5 666 c 0
 1198.17 686.667 1177 697 1155 697 c 2
 336 697 l 2
EndSplineSet
Validated: 1
EndChar

StartChar: three
Encoding: 51 51 37
Width: 1520
Flags: W
HStem: -152 78<314.328 1211.67> 25 107<721 957> 516 97<715.604 814.705> 697 89<290.996 1205.67>
VStem: 189 81<-29.5 664.185> 570 111<401 476.238> 841 116<359.662 486.91> 1249 82<-33.8359 654.594>
LayerCount: 2
Fore
SplineSet
775 613 m 0
 896.333 613 957 549.333 957 422 c 0
 957 368.667 944.667 325 920 291 c 0
 902.667 267 872.667 241 830 213 c 0
 777.333 178.333 741 151.333 721 132 c 1
 957 132 l 1
 957 25 l 1
 570 25 l 1
 559 59 l 1
 579 135.667 614.333 196 665 240 c 1
 785 324 l 2
 823 351.333 841.667 388.333 841 435 c 0
 841 455.667 833.833 474.333 819.5 491 c 0
 805.167 507.667 787.667 516 767 516 c 0
 740.333 516 718.667 503 702 477 c 0
 687.333 454.333 680.333 429 681 401 c 1
 570 401 l 1
 576.667 473.667 591.333 524.667 614 554 c 0
 644.667 593.333 698.333 613 775 613 c 0
363 786 m 2
 1173 786 l 2
 1278.33 786 1331 732.667 1331 626 c 2
 1331 8 l 2
 1331 -98.6667 1273 -152 1157 -152 c 2
 347 -152 l 2
 241.667 -152 189 -98.6667 189 8 c 2
 189 612 l 2
 189 728 247 786 363 786 c 2
336 697 m 2
 313.333 697 296 686.333 284 665 c 0
 274.667 647.667 270 626.667 270 602 c 2
 270 20 l 2
 270 -2 280.333 -23.1667 301 -43.5 c 0
 321.667 -63.8333 343 -74 365 -74 c 2
 1155 -74 l 2
 1179 -74 1200.67 -64.3333 1220 -45 c 0
 1239.33 -25.6667 1249 -4 1249 20 c 2
 1249 602 l 2
 1249 624 1238.83 645.333 1218.5 666 c 0
 1198.17 686.667 1177 697 1155 697 c 2
 336 697 l 2
EndSplineSet
Validated: 33
EndChar

StartChar: dotaccent
Encoding: 1 729 38
Width: 1520
Flags: W
HStem: -195 82<284.119 1244.41> 410 80<885 990.025> 699 93<264.557 1237.59>
VStem: 153 86<-68.8945 672.193> 1027 80<526.184 593> 1284 87<-70.9277 652.955>
LayerCount: 2
Fore
SplineSet
391 603 m 1
 391 9 l 1
 508 9 l 1
 508 256 l 1
 729 256 l 1
 729 363 l 1
 508 363 l 1
 508 494 l 1
 761 494 l 1
 761 603 l 1
 391 603 l 1
885 410 m 1
 1000 410 l 1
 1000 13 l 1
 1107 13 l 1
 1107 593 l 1
 1027 593 l 1
 1025 551.667 1010.67 523.333 984 508 c 0
 963.333 496 930.333 490 885 490 c 1
 885 410 l 1
337 792 m 2
 1204 792 l 2
 1258 792 1299.33 777.5 1328 748.5 c 0
 1356.67 719.5 1371 678 1371 624 c 2
 1371 -27 l 2
 1371 -139 1309.67 -195 1187 -195 c 2
 320 -195 l 2
 266 -195 224.667 -180.333 196 -151 c 0
 167.333 -121.667 153 -80.3333 153 -27 c 2
 150 606 l 2
 150 666 166.333 712 199 744 c 0
 231.667 776 277.667 792 337 792 c 2
308 699 m 1
 284.667 697 267 685.333 255 664 c 0
 244.333 645.333 239 623.667 239 599 c 2
 239 -14 l 2
 239 -37.3333 249.833 -59.6667 271.5 -81 c 0
 293.167 -102.333 315.667 -113 339 -113 c 2
 1185 -113 l 2
 1211 -113 1234 -103 1254 -83 c 0
 1274 -63 1284 -40 1284 -14 c 2
 1284 599 l 2
 1284 621 1273 643.167 1251 665.5 c 0
 1229 687.833 1207 699 1185 699 c 2
 308 699 l 1
EndSplineSet
Validated: 9
EndChar

StartChar: partialdiff
Encoding: 26 8706 39
Width: 1888
Flags: W
HStem: -195 82<291.119 1604.41> 699 93<271.557 1597.59>
VStem: 160 86<-68.8945 672.193> 1089 90<10 589> 1644 87<-70.9277 652.955>
LayerCount: 2
Fore
SplineSet
344 792 m 2
 1564 792 l 2
 1618 792 1659.33 777.5 1688 748.5 c 0
 1716.67 719.5 1731 678 1731 624 c 2
 1731 -27 l 2
 1731 -139 1669.67 -195 1547 -195 c 2
 327 -195 l 2
 273 -195 231.667 -180.333 203 -151 c 0
 174.333 -121.667 160 -80.3333 160 -27 c 2
 157 606 l 2
 157 666 173.333 712 206 744 c 0
 238.667 776 284.667 792 344 792 c 2
315 699 m 1
 291.667 697 274 685.333 262 664 c 0
 251.333 645.333 246 623.667 246 599 c 2
 246 -14 l 2
 246 -37.3333 256.833 -59.6667 278.5 -81 c 0
 300.167 -102.333 322.667 -113 346 -113 c 2
 1545 -113 l 2
 1571 -113 1594 -103 1614 -83 c 0
 1634 -63 1644 -40 1644 -14 c 2
 1644 599 l 2
 1644 621 1633 643.167 1611 665.5 c 0
 1589 687.833 1567 699 1545 699 c 2
 315 699 l 1
376 587 m 1
 376 8 l 1
 674 8 l 1
 674 108 l 1
 458 108 l 1
 458 258 l 1
 642 258 l 1
 642 359 l 1
 454 359 l 1
 454 483 l 1
 659 483 l 1
 659 587 l 1
 376 587 l 1
706 585 m 1
 830 305 l 1
 710 12 l 1
 796 12 l 1
 879 217 l 1
 956 12 l 1
 1059 12 l 1
 928 303 l 1
 1048 590 l 1
 946 590 l 1
 881 399 l 1
 804 585 l 1
 706 585 l 1
1089 589 m 1
 1179 589 l 1
 1179 10 l 1
 1089 10 l 1
 1089 589 l 1
1211 590 m 1
 1211 485 l 1
 1328 485 l 1
 1328 14 l 1
 1418 14 l 1
 1418 487 l 1
 1532 487 l 1
 1532 590 l 1
 1211 590 l 1
EndSplineSet
Validated: 9
EndChar

StartChar: one
Encoding: 49 49 40
Width: 1520
Flags: W
HStem: -152 78<314.328 1211.67> -44 180<704.908 818.576> 495 179<698.424 813.092> 697 89<290.996 1205.67>
VStem: 189 81<-29.5 664.185> 671 181<-11.0918 102.092 533.245 637.291> 1249 82<-33.8359 654.594>
LayerCount: 2
Fore
SplineSet
363 786 m 2
 1173 786 l 2
 1278.33 786 1331 732.667 1331 626 c 2
 1331 8 l 2
 1331 -98.6667 1273 -152 1157 -152 c 2
 347 -152 l 2
 241.667 -152 189 -98.6667 189 8 c 2
 189 612 l 2
 189 728 247 786 363 786 c 2
336 697 m 2
 313.333 697 296 686.333 284 665 c 0
 274.667 647.667 270 626.667 270 602 c 2
 270 20 l 2
 270 -2 280.333 -23.1667 301 -43.5 c 0
 321.667 -63.8333 343 -74 365 -74 c 2
 1155 -74 l 2
 1179 -74 1200.67 -64.3333 1220 -45 c 0
 1239.33 -25.6667 1249 -4 1249 20 c 2
 1249 602 l 2
 1249 624 1238.83 645.333 1218.5 666 c 0
 1198.17 686.667 1177 697 1155 697 c 2
 336 697 l 2
747 674 m 0
 772.333 676 794.667 669.333 814 654 c 0
 833.333 638.667 844 618.333 846 593 c 256
 848 567.667 841.167 545.667 825.5 527 c 0
 809.833 508.333 789.333 497.667 764 495 c 0
 739.333 492.333 717.167 499 697.5 515 c 0
 677.833 531 667 551.333 665 576 c 256
 663 600.667 670 622.667 686 642 c 0
 702 661.333 722.333 672 747 674 c 0
753 136 m 256
 777.667 138.667 799.833 131.833 819.5 115.5 c 0
 839.167 99.1667 850 78.6667 852 54 c 256
 854 29.3333 847 7.33333 831 -12 c 0
 815 -31.3333 794.667 -42 770 -44 c 256
 745.333 -46 723.333 -39.1667 704 -23.5 c 0
 684.667 -7.83333 673.667 12.3333 671 37 c 256
 668.333 61.6667 675.167 83.6667 691.5 103 c 0
 707.833 122.333 728.333 133.333 753 136 c 256
431 392 m 1
 431 247 l 1
 1101 247 l 1
 1101 392 l 1
 431 392 l 1
EndSplineSet
Validated: 41
EndChar

StartChar: four
Encoding: 52 52 41
Width: 1520
Flags: W
HStem: -152 78<314.328 1211.67> 25 102<690.322 827.177> 285 84<700 800.953> 519 99<679.808 813.982> 697 89<290.996 1205.67>
VStem: 189 81<-29.5 664.185> 538 121<158.284 226> 550 107<416 496.624> 845 115<143.507 261.883> 1249 82<-33.8359 654.594>
LayerCount: 2
Fore
SplineSet
767 618 m 0xfdc0
 883 618 941 566.333 941 463 c 0
 941 431 935 406 923 388 c 1
 887 348 l 1
 915.667 312.667 930.667 293.667 932 291 c 0
 952 259 961.333 224.667 960 188 c 0
 958 138.667 937 98.6667 897 68 c 0
 859.667 39.3333 815.333 25 764 25 c 0
 670.667 25 605.667 52 569 106 c 0
 545.667 140.667 535.333 180.667 538 226 c 1
 659 226 l 1xfec0
 662.333 192 671.5 167 686.5 151 c 0
 701.5 135 725.667 127 759 127 c 0
 790.333 127 812.5 132.333 825.5 143 c 0
 838.5 153.667 845 174.333 845 205 c 0
 845 239 833 261.333 809 272 c 0
 789.667 280.667 753.333 285 700 285 c 1
 700 369 l 1
 752 369 787.667 377.667 807 395 c 0
 819.667 406.333 827 426 829 454 c 0
 831.667 497.333 802.667 519 742 519 c 0
 708.667 519 685.667 509 673 489 c 0
 663 473.667 657.667 447.667 657 411 c 1
 575 411 l 1
 550 416 l 1
 550.667 488 569.333 540.333 606 573 c 0
 640.667 603 694.333 618 767 618 c 0xfdc0
363 786 m 2
 1173 786 l 2
 1278.33 786 1331 732.667 1331 626 c 2
 1331 8 l 2
 1331 -98.6667 1273 -152 1157 -152 c 2
 347 -152 l 2
 241.667 -152 189 -98.6667 189 8 c 2
 189 612 l 2
 189 728 247 786 363 786 c 2
336 697 m 2
 313.333 697 296 686.333 284 665 c 0
 274.667 647.667 270 626.667 270 602 c 2
 270 20 l 2
 270 -2 280.333 -23.1667 301 -43.5 c 0
 321.667 -63.8333 343 -74 365 -74 c 2
 1155 -74 l 2
 1179 -74 1200.67 -64.3333 1220 -45 c 0
 1239.33 -25.6667 1249 -4 1249 20 c 2
 1249 602 l 2
 1249 624 1238.83 645.333 1218.5 666 c 0
 1198.17 686.667 1177 697 1155 697 c 2
 336 697 l 2
EndSplineSet
Validated: 33
EndChar

StartChar: five
Encoding: 53 53 42
Width: 1520
Flags: W
HStem: -152 78<314.328 1211.67> 236 151<431 687 827 1101> 697 89<290.775 1205.67>
VStem: 189 81<-29.5 664.185> 687 140<-27 236 387 663> 1249 82<-33.8359 654.594>
LayerCount: 2
Fore
SplineSet
363 786 m 2
 1173 786 l 2
 1278.33 786 1331 732.667 1331 626 c 2
 1331 8 l 2
 1331 -98.6667 1273 -152 1157 -152 c 2
 347 -152 l 2
 241.667 -152 189 -98.6667 189 8 c 2
 189 609 l 2
 189 665.667 204 709.333 234 740 c 0
 264 770.667 307 786 363 786 c 2
336 697 m 2
 313.333 697 296 686.333 284 665 c 0
 274.667 647.667 270 626.667 270 602 c 2
 270 20 l 2
 270 -2 280.333 -23.1667 301 -43.5 c 0
 321.667 -63.8333 343 -74 365 -74 c 2
 1155 -74 l 2
 1179 -74 1200.67 -64.3333 1220 -45 c 0
 1239.33 -25.6667 1249 -4 1249 20 c 2
 1249 602 l 2
 1249 624 1238.83 645.333 1218.5 666 c 0
 1198.17 686.667 1177 697 1155 697 c 2
 336 697 l 2
431 387 m 1
 687 387 l 1
 687 663 l 1
 827 663 l 1
 827 387 l 1
 1101 387 l 1
 1101 236 l 1
 827 236 l 1
 827 -27 l 1
 693 -27 l 1
 693 241 l 1
 431 241 l 1
 431 387 l 1
EndSplineSet
Validated: 1
EndChar

StartChar: semicolon
Encoding: 59 59 43
Width: 1520
Flags: W
HStem: -195 82<291.119 1236.41> 699 93<271.557 1229.59>
VStem: 160 86<-68.8945 672.193> 1276 87<-70.9277 652.955>
LayerCount: 2
Fore
SplineSet
344 792 m 2
 1196 792 l 2
 1250 792 1291.33 777.5 1320 748.5 c 0
 1348.67 719.5 1363 678 1363 624 c 2
 1363 -27 l 2
 1363 -139 1301.67 -195 1179 -195 c 2
 327 -195 l 2
 273 -195 231.667 -180.333 203 -151 c 0
 174.333 -121.667 160 -80.3333 160 -27 c 2
 157 606 l 2
 157 666 173.333 712 206 744 c 0
 238.667 776 284.667 792 344 792 c 2
315 699 m 1
 291.667 697 274 685.333 262 664 c 0
 251.333 645.333 246 623.667 246 599 c 2
 246 -14 l 2
 246 -37.3333 256.833 -59.6667 278.5 -81 c 0
 300.167 -102.333 322.667 -113 346 -113 c 2
 1177 -113 l 2
 1203 -113 1226 -103 1246 -83 c 0
 1266 -63 1276 -40 1276 -14 c 2
 1276 599 l 2
 1276 621 1265 643.167 1243 665.5 c 0
 1221 687.833 1199 699 1177 699 c 2
 315 699 l 1
342 544 m 1
 342 86 l 1
 594 86 l 1
 594 172 l 1
 421 172 l 1
 421 284 l 1
 579 284 l 1
 579 360 l 1
 417 360 l 1
 417 450 l 1
 587 450 l 1
 587 544 l 1
 342 544 l 1
630 541 m 1
 735 319 l 1
 625 85 l 1
 710 85 l 1
 771 241 l 1
 841 85 l 1
 925 85 l 1
 811 314 l 1
 912 541 l 1
 831 541 l 1
 771 395 l 1
 708 541 l 1
 630 541 l 1
952 536 m 1
 952 82 l 1
 1207 82 l 1
 1207 168 l 1
 1025 168 l 1
 1025 279 l 1
 1182 279 l 1
 1182 359 l 1
 1028 359 l 1
 1028 453 l 1
 1199 453 l 1
 1199 536 l 1
 952 536 l 1
EndSplineSet
Validated: 9
EndChar

StartChar: question
Encoding: 63 63 44
Width: 2064
Flags: W
HStem: 719 56<1065 1525> 780 20G<275 400 1663 1757.33>
VStem: 155 100<123.088 468.504> 1809 100<131.496 476.912>
LayerCount: 2
Fore
SplineSet
400 800 m 1
 346.667 700 311.333 622.667 294 568 c 0
 268 485.333 255 386.667 255 272 c 0
 255 192 268.667 112.333 296 33 c 0
 315.333 -23 350.333 -100.667 401 -200 c 1
 338 -200 l 1
 275.333 -106 231 -27 205 37 c 0
 171.667 119.667 155 206.667 155 298 c 0
 155 462.667 215 630 335 800 c 1
 400 800 l 1
1065 719 m 1
 704 -126 l 1
 577 214 l 1
 498 164 l 1
 453 213 l 1
 649 331 l 1
 725 102 l 1
 1015 775 l 1
 1525 775 l 1
 1525 719 l 1
 1065 719 l 1
1664 -200 m 1
 1717.33 -100 1752.67 -22.6667 1770 32 c 0
 1796 114.667 1809 213.333 1809 328 c 0
 1809 408 1795.33 487.667 1768 567 c 0
 1748.67 623 1713.67 700.667 1663 800 c 1
 1726 800 l 1
 1788.67 706 1833 627 1859 563 c 0
 1892.33 480.333 1909 393.333 1909 302 c 0
 1909 137.333 1849 -30 1729 -200 c 1
 1664 -200 l 1
EndSplineSet
Validated: 1
EndChar

StartChar: at
Encoding: 64 64 45
Width: 2280
Flags: W
HStem: 406 46<475.122 547.617 717.667 777.196> 715 56<1278 1738> 739 48<776.811 843.842> 755 32<573.774 647.667> 776 20G<278 403 1876 1970.33>
VStem: 158 100<119.088 465.207> 649 55<565.257 672.287> 2022 100<126.793 472.912>
LayerCount: 2
Fore
SplineSet
403 796 m 0x8f
 347.667 693.333 312 616 296 564 c 0
 270.667 483.333 258 384.667 258 268 c 0
 258 188 271.667 108.333 299 29 c 0
 318.333 -27 353.333 -104.667 404 -204 c 0
 341 -204 l 0
 278.333 -110 234 -31 208 33 c 0
 174.667 115.667 158 202.667 158 294 c 0
 158 458.667 218 626 338 796 c 0
 403 796 l 0x8f
833 502 m 0
 806.333 459.333 784 431.333 766 418 c 0
 755.333 410 743 406 729 406 c 0
 706.333 406 690.333 424.667 681 462 c 0
 656 563 l 0
 614.667 505.667 579.667 461.667 551 431 c 0
 535.667 414.333 519 406 501 406 c 0
 473.667 406 460 418 460 442 c 0
 460 461.333 469.333 471 488 471 c 0
 494 471 502.5 468.333 513.5 463 c 0
 524.5 457.667 532.333 455 537 455 c 0
 548.333 455 585.667 501.333 649 594 c 0
 649 604.667 639.333 645.667 620 717 c 0
 616 731.667 612.667 740.667 610 744 c 0
 605.333 751.333 597.333 755 586 755 c 0
 580 755 564.667 752 540 746 c 0
 536 759 l 0
 592 777.667 627.333 787 642 787 c 0x97
 653.333 787 661.333 783.667 666 777 c 0
 674 767.667 681.333 746 688 712 c 0
 697 666 l 0
 748.333 746.667 790.667 787 824 787 c 0
 847.333 787 859 776.667 859 756 c 0
 859 735.333 849.333 725 830 725 c 0
 824 725 816.5 727.333 807.5 732 c 0
 798.5 736.667 791.333 739 786 739 c 0xa7
 767.333 735 740 701 704 637 c 0
 704 630.333 715.333 580.333 738 487 c 0
 743.333 463.667 752 452 764 452 c 0
 772 452 791 471 821 509 c 0
 833 502 l 0
1278 715 m 0xc7
 917 -130 l 0
 790 210 l 0
 711 160 l 0
 666 209 l 0
 862 327 l 0
 938 98 l 0
 1228 771 l 0
 1738 771 l 0
 1738 715 l 0
 1278 715 l 0xc7
1877 -204 m 0
 1932.33 -101.333 1968 -24 1984 28 c 0
 2009.33 108.667 2022 207.333 2022 324 c 0
 2022 404 2008.33 483.667 1981 563 c 0
 1961.67 619 1926.67 696.667 1876 796 c 0
 1939 796 l 0x8f
 2001.67 702 2046 623 2072 559 c 0
 2105.33 476.333 2122 389.333 2122 298 c 0
 2122 133.333 2062 -34 1942 -204 c 0
 1877 -204 l 0
EndSplineSet
Validated: 1
EndChar

StartChar: B
Encoding: 66 66 46
Width: 1792
Flags: W
HStem: 22 141<778 1209> 773 20G<272.667 396 1395 1488> 773 20G<272.667 396 1395 1488>
VStem: 154 99<124.475 466.13> 1539 99<131.8 473.681>
LayerCount: 2
Fore
SplineSet
396 793 m 1xd8
 342 690.333 307 614 291 564 c 0
 265.667 484.667 253 387 253 271 c 0
 253 193 266.667 114.333 294 35 c 0
 313.333 -21 347.667 -97.6667 397 -195 c 1
 335 -195 l 1
 273.667 -102.333 230 -24.3333 204 39 c 0
 170.667 121 154 207 154 297 c 0
 154 459 213.333 624.333 332 793 c 1
 396 793 l 1xd8
1012 805 m 1
 1132 730 l 1
 778 163 l 1
 1209 163 l 1
 1209 22 l 1
 522 22 l 1
 1012 805 l 1
1396 -195 m 1
 1449.33 -93.6667 1484.33 -17.3333 1501 34 c 0
 1526.33 113.333 1539 210.667 1539 326 c 0
 1539 404.667 1525.33 483.667 1498 563 c 0
 1478.67 619 1444.33 695.667 1395 793 c 1
 1457 793 l 1
 1519 699 1562.67 621 1588 559 c 0
 1621.33 477.667 1638 391.667 1638 301 c 0
 1638 139 1578.67 -26.3333 1460 -195 c 1
 1396 -195 l 1
EndSplineSet
Validated: 1
EndChar

StartChar: C
Encoding: 67 67 47
Width: 2627
Flags: W
HStem: 0 84<1176.29 1318.17> 409 47<1684.8 1756.73 1927.67 1983.98> 551 74<542 662.764> 684 84<1176.29 1319.86> 743 47<1986.46 2053.93> 759 31<1785.25 1859> 780 20G<273 397 2229 2322.67>
VStem: 153 100<123.057 468.541> 717 100<20 551> 743 74<705.76 768> 991 100<205.459 562.1> 1404 100<205.233 562.541> 1859 55<568.257 678.351> 2374 100<130.293 476.372>
LayerCount: 2
Fore
SplineSet
397 800 m 0xe33c
 342.333 696 307 618.667 291 568 c 0
 265.667 487.333 253 388.667 253 272 c 0
 253 193.333 266.667 113.667 294 33 c 0
 314 -25 348.667 -102.667 398 -200 c 0
 336 -200 l 0
 272.667 -105.333 228.333 -26.6667 203 36 c 0
 169.667 118.667 153 205.667 153 297 c 0
 153 461 213 628.667 333 800 c 0
 397 800 l 0xe33c
817 20 m 0xf1bc
 717 20 l 0
 717 551 l 0xf1bc
 542 551 l 0
 542 625 l 0
 608 629.667 653 639.333 677 654 c 0
 707 672.667 729 710.667 743 768 c 0
 817 768 l 0xf17c
 817 20 l 0xf1bc
1404 384 m 0
 1404 184 1351.67 84 1247 84 c 0
 1143 84 1091 184 1091 384 c 0
 1091 584 1143 684 1247 684 c 0
 1351.67 684 1404 584 1404 384 c 0
1504 384 m 0
 1504 488 1487.33 573 1454 639 c 0
 1410 725 1341 768 1247 768 c 0
 1153 768 1084.33 724.667 1041 638 c 0
 1007.67 572 991 487.333 991 384 c 0
 991 280 1007.67 195 1041 129 c 0
 1084.33 43 1153 0 1247 0 c 0
 1341.67 0 1410.67 43 1454 129 c 0
 1487.33 194.333 1504 279.333 1504 384 c 0
2042 505 m 0
 2002.67 441 1968.33 409 1939 409 c 0
 1916.33 409 1900.33 428 1891 466 c 0
 1866 567 l 0
 1824.67 511 1789.67 467 1761 435 c 0
 1745.67 417.667 1729 409 1711 409 c 0
 1683 409 1669 421.333 1669 446 c 0
 1669 464.667 1678.67 474 1698 474 c 0
 1704 474 1712.5 471.333 1723.5 466 c 0
 1734.5 460.667 1742.33 458 1747 458 c 0
 1757.67 458 1795 504.333 1859 597 c 0
 1859 598.333 1854 619.333 1844 660 c 0
 1838.67 686 1829.67 716.667 1817 752 c 0
 1813 756.667 1806 759 1796 759 c 0
 1789.33 759 1773.67 756 1749 750 c 0
 1746 762 l 0
 1801.33 780.667 1836.33 790 1851 790 c 0xe53c
 1867 790 1878.67 781.333 1886 764 c 0
 1889.33 757.333 1893.33 741.333 1898 716 c 0
 1907 670 l 0
 1957.67 750 2000 790 2034 790 c 0
 2057.33 790 2069 780 2069 760 c 0
 2069 739.333 2059.33 729 2040 729 c 0
 2034 729 2026.33 731.333 2017 736 c 0
 2007.67 740.667 2000.33 743 1995 743 c 0xe93c
 1975.67 738.333 1948.67 704.333 1914 641 c 0
 1914 631 1925 580.667 1947 490 c 0
 1952.33 467.333 1961 456 1973 456 c 0
 1980.33 456 1989.33 462.333 2000 475 c 0
 2031 512 l 0
 2042 505 l 0
2230 -200 m 0
 2284.67 -96.6667 2320 -19.6667 2336 31 c 0
 2361.33 111.667 2374 210.333 2374 327 c 0
 2374 406.333 2360.33 486.333 2333 567 c 0
 2313.67 623 2279 700.667 2229 800 c 0
 2291 800 l 0xe33c
 2354.33 704.667 2398.67 625.667 2424 563 c 0
 2457.33 480.333 2474 393.333 2474 302 c 0
 2474 137.333 2414 -30 2294 -200 c 0
 2230 -200 l 0
EndSplineSet
Validated: 9
EndChar

StartChar: F
Encoding: 70 70 48
Width: 3236
Flags: W
HStem: 6 79<658.131 805.829 1220.39 1373.61 1785.14 1969.01> 504 83<662.897 816.498 1213.22 1380.78 1776.4 1959.67> 514 56<2177 2403> 678 43<2505 2582.33> 773 20G<275.667 399 2836 2929> 773 20G<275.667 399 2836 2929>
VStem: 157 99<123.104 464.808> 489 99<167.397 416.356> 870 89<154.275 216 386 448.227> 1041 96<181.919 412.081> 1457 96<181.919 412.081> 1644 90<133.665 198> 1662 89<383.95 479.23> 1991 90<415 472.837> 2006 93<119.635 218.625> 2606 58<372 678> 2621 43<753.891 804> 2980 99<131.025 472.896>
LayerCount: 2
Fore
SplineSet
399 793 m 1x9be040
 345.667 691 310.667 614.333 294 563 c 0
 268.667 483.667 256 386.333 256 271 c 0
 256 192.333 269.667 113.333 297 34 c 0
 317 -23.3333 351.333 -100 400 -196 c 1
 338 -196 l 1
 276 -102.667 232.333 -25 207 37 c 0
 173.667 119 157 205.333 157 296 c 0
 157 456.667 216.333 622.333 335 793 c 1
 399 793 l 1x9be040
870 386 m 1
 857.333 464.667 813.667 504 739 504 c 0
 686.333 504 646.667 481.667 620 437 c 1
 598.667 399.667 588 353 588 297 c 0
 588 155.667 638 85 738 85 c 0
 773.333 85 803 98.3333 827 125 c 0
 848.333 148.333 862.667 178.667 870 216 c 1
 959 216 l 1
 951.667 151.333 929 100.667 891 64 c 0
 851.667 25.3333 799.667 6 735 6 c 0
 657 6 595.667 33 551 87 c 0
 509.667 137 489 201.667 489 281 c 0
 489 371 510 443 552 497 c 0
 598.667 557 665.667 587 753 587 c 0xd3e040
 813.667 587 862 568.833 898 532.5 c 0
 934 496.167 954.333 447.333 959 386 c 1
 870 386 l 1
1137 297 m 256
 1137 349 1147 393.333 1167 430 c 0
 1195 481.333 1238.33 507 1297 507 c 256
 1355.67 507 1399 481.333 1427 430 c 0
 1447 393.333 1457 349 1457 297 c 256
 1457 245 1447 200.667 1427 164 c 0
 1399 112.667 1355.67 87 1297 87 c 256
 1238.33 87 1195 112.667 1167 164 c 0
 1147 200.667 1137 245 1137 297 c 256
1041 297 m 256
 1041 215.667 1062.67 148 1106 94 c 0
 1153.33 36 1217 7 1297 7 c 256
 1377 7 1440.67 36 1488 94 c 0
 1531.33 148 1553 215.667 1553 297 c 256
 1553 378.333 1531.33 446 1488 500 c 0
 1440.67 558 1377 587 1297 587 c 256
 1217 587 1153.33 558 1106 500 c 0
 1062.67 446 1041 378.333 1041 297 c 256
1991 415 m 1xd3ec40
 1989.67 476.333 1946.33 507 1861 507 c 0
 1832.33 507 1808 501.333 1788 490 c 0
 1763.33 476 1751 456 1751 430 c 0xd3ec40
 1751 408 1759 392 1775 382 c 0
 1787 374 1812.33 365.333 1851 356 c 2
 1944 333 l 2
 1992.67 321 2028.33 306.333 2051 289 c 0
 2083 264.333 2099 230.667 2099 188 c 0
 2099 129.333 2076.67 83.3333 2032 50 c 0
 1992 20.6667 1941.67 6 1881 6 c 0
 1807 6 1751 20 1713 48 c 0
 1670.33 78.6667 1647.33 128.667 1644 198 c 1
 1734 198 l 1
 1739.33 122.667 1788 85 1880 85 c 0
 1913.33 85 1941.33 91.3333 1964 104 c 0
 1992 119.333 2006 142.333 2006 173 c 0xd3f240
 2006 197.667 1993.33 216.667 1968 230 c 0
 1955.33 236 1931.67 243.333 1897 252 c 2
 1789 278 l 2
 1704.33 298.667 1662 343.333 1662 412 c 0
 1662 468.667 1683 513 1725 545 c 1
 1763 573 1811.33 587 1870 587 c 0
 1953.33 587 2013 561.667 2049 511 c 0
 2070.33 481 2081 449 2081 415 c 1
 1991 415 l 1xd3ec40
2403 514 m 1xb3e040
 2177 514 l 1
 2177 570 l 1
 2403 570 l 1
 2403 514 l 1xb3e040
2664 372 m 1x93e140
 2606 372 l 1
 2606 678 l 1x93e140
 2505 678 l 1
 2505 721 l 1
 2543 723.667 2569 729.333 2583 738 c 0
 2600.33 748.667 2613 770.667 2621 804 c 1
 2664 804 l 1x93e0c0
 2664 372 l 1x93e140
2837 -196 m 1
 2890.33 -94.6667 2925.33 -18.3333 2942 33 c 0
 2967.33 112.333 2980 209.667 2980 325 c 0
 2980 403.667 2966.33 482.667 2939 562 c 0
 2919 619.333 2884.67 696.333 2836 793 c 1
 2898 793 l 1x9be040
 2960 699 3003.67 621 3029 559 c 0
 3062.33 477 3079 390.667 3079 300 c 0
 3079 138.667 3019.67 -26.6667 2901 -196 c 1
 2837 -196 l 1
EndSplineSet
Validated: 9
EndChar

StartChar: H
Encoding: 72 72 49
Width: 2570
Flags: W
HStem: -139 54<1271 1824> 119 55<1271 1824> 228 54<1079 2015> 339 55<1271 1824> 598 54<1271 1824> 777 20G<304.333 399 2170 2263.67>
VStem: 155 100<120.628 475.731> 1213 58<-85 119 394 598> 1824 56<-85 119 394 598> 2315 100<122.778 473.884>
LayerCount: 2
Fore
SplineSet
399 797 m 1
 345 694.333 309.667 617 293 565 c 0
 267.667 484.333 255 386 255 270 c 0
 255 190.667 268.667 110.667 296 30 c 0
 315.333 -26 350 -103.667 400 -203 c 1
 338 -203 l 1
 275.333 -109 231 -30 205 34 c 0
 171.667 116.667 155 203.667 155 295 c 0
 155 387.667 171 476 203 560 c 0
 231 632.667 274.667 711.667 334 797 c 1
 399 797 l 1
1213 174 m 1
 1880 174 l 1
 1880 -139 l 1
 1213 -139 l 1
 1213 174 l 1
511 401 m 1
 511 110 l 1
 979 110 l 1
 979 401 l 1
 511 401 l 1
1271 119 m 1
 1271 -85 l 1
 1824 -85 l 1
 1824 119 l 1
 1271 119 l 1
1213 652 m 1
 1880 652 l 1
 1880 339 l 1
 1213 339 l 1
 1213 652 l 1
1271 598 m 1
 1271 394 l 1
 1824 394 l 1
 1824 598 l 1
 1271 598 l 1
2015 282 m 1
 2015 228 l 1
 1079 228 l 1
 1079 282 l 1
 2015 282 l 1
2171 -203 m 1
 2225.67 -100.333 2261 -23 2277 29 c 0
 2302.33 109.667 2315 208.333 2315 325 c 0
 2315 403.667 2301.33 483.333 2274 564 c 0
 2254 622 2219.33 699.667 2170 797 c 1
 2232 797 l 1
 2295.33 702.333 2339.67 623.667 2365 561 c 0
 2398.33 478.333 2415 391 2415 299 c 256
 2415 207 2398.67 118.667 2366 34 c 0
 2338.67 -38 2295.33 -117 2236 -203 c 1
 2171 -203 l 1
EndSplineSet
Validated: 9
EndChar

StartChar: greater
Encoding: 62 62 50
Width: 5152
Flags: W
HStem: 4 91<2720.49 2939.84 3538.62 3744.2> 24 91<2046 2428> 268 94<1561 1818> 708 90<2720.12 2940.09 3543.53 3756.01>
VStem: 109 99<125.732 466.731> 1944 102<115 778> 2463 105<267.723 537.176> 3093 104<267.723 534.803> 3295 105<254.568 544.456> 3858 98<551 610.089> 3865 99<231.883 301> 4087 101<24 289 413 778> 4944 99<124.43 473.166>
LayerCount: 2
Fore
SplineSet
351 794 m 1x3f98
 297.667 694.667 262.667 618.333 246 565 c 0
 220.667 484.333 208 387 208 273 c 0
 208 193.667 221.333 115 248 37 c 0
 266 -16.3333 300.667 -93 352 -193 c 1
 290 -193 l 1
 228.667 -101 185 -23.3333 159 40 c 0
 125.667 122.667 109 208.667 109 298 c 0
 109 460 168.333 625.333 287 794 c 1
 351 794 l 1x3f98
878 295 m 1
 979 572 l 1
 981 572 l 1
 1073 295 l 1
 878 295 l 1
1104 220 m 1
 1166 37 l 1
 1259 37 l 1
 1031 665 l 1
 935 665 l 1
 699 37 l 1
 786 37 l 1
 852 220 l 1
 1104 220 l 1
1818 268 m 1
 1561 268 l 1
 1561 362 l 1
 1818 362 l 1
 1818 268 l 1
2046 115 m 1x7f98
 2428 115 l 1
 2428 24 l 1
 1944 24 l 1
 1944 778 l 1
 2046 778 l 1
 2046 115 l 1x7f98
3093 401 m 256
 3093 314.333 3071.33 243 3028 187 c 0
 2980 125.667 2914 95 2830 95 c 256xbf98
 2746 95 2680.33 125.667 2633 187 c 0
 2589.67 243 2568 314.333 2568 401 c 0
 2568 488.333 2589.33 559.667 2632 615 c 0
 2679.33 677 2745.33 708 2830 708 c 256
 2914.67 708 2980.67 677.333 3028 616 c 0
 3071.33 559.333 3093 487.667 3093 401 c 256
3197 401 m 0
 3197 501.667 3171 588.333 3119 661 c 0
 3053.67 752.333 2957.33 798 2830 798 c 0
 2703.33 798 2607 752.333 2541 661 c 0
 2489 589 2463 502.333 2463 401 c 0
 2463 301 2489 214.667 2541 142 c 0
 2607 50 2703.33 4 2830 4 c 0
 2957.33 4 3053.67 50 3119 142 c 0
 3171 214.667 3197 301 3197 401 c 0
3858 551 m 1xbfd8
 3835.33 655.667 3765 708 3647 708 c 0
 3566.33 708 3503.67 677.333 3459 616 c 0
 3419.67 562 3400 493 3400 409 c 0
 3400 199.667 3483.33 95 3650 95 c 0
 3708.67 95 3757.33 115 3796 155 c 0
 3830 191 3853 239.667 3865 301 c 1
 3964 301 l 1xbfb8
 3946 180.333 3892.67 95.3333 3804 46 c 0
 3753.33 18 3696.67 4 3634 4 c 0
 3522 4 3436 43.6667 3376 123 c 0
 3322 195 3295 289 3295 405 c 0
 3295 519.667 3324.67 612.667 3384 684 c 0
 3447.33 760 3535 798 3647 798 c 0
 3728.33 798 3797 777.333 3853 736 c 0
 3912.33 691.333 3946.67 629.667 3956 551 c 1
 3858 551 l 1xbfd8
4188 24 m 1x7f98
 4087 24 l 1
 4087 778 l 1
 4188 778 l 1
 4188 413 l 1
 4554 778 l 1
 4694 778 l 1
 4380 474 l 1
 4703 24 l 1
 4570 24 l 1
 4307 402 l 1
 4188 289 l 1
 4188 24 l 1x7f98
4801 -193 m 1
 4854.33 -93.6667 4889.33 -17.3333 4906 36 c 0
 4931.33 116.667 4944 214 4944 328 c 0
 4944 408 4930.67 486.667 4904 564 c 0
 4886 616 4851.33 692.667 4800 794 c 1
 4862 794 l 1
 4923.33 701.333 4967 623.333 4993 560 c 0
 5026.33 477.333 5043 391.333 5043 302 c 0
 5043 211.333 5027 124 4995 40 c 0
 4967 -32 4923.67 -109.667 4865 -193 c 1
 4801 -193 l 1
517 807 m 1
 517 -102 l 1
 1426 -102 l 1
 1426 807 l 1
 517 807 l 1
1352 733 m 1
 1352 -28 l 1
 592 -28 l 1
 592 733 l 1
 1352 733 l 1
EndSplineSet
Validated: 9
EndChar

StartChar: bracketleft
Encoding: 91 91 51
Width: 1530
Flags: W
HStem: -199 111<182 1293> -143 55<126 182> -32 111<459 515> -32 55<182 459 515 1015 1182 1293> 79 56<515 570 1126 1237> 133 55<404 460 571 626> 134 1<570 571> 190 56<626 682 793 849 1126 1293> 245 56<682 737> 301 56<571 627 738 793> 356 56<793 848 959 1015> 412 56<737 793 849 903> 467 56<904 959 1071 1127> 467 1<903 904> 523 55<126 237 959 1015> 578 56<238 293 1015 1071> 634 56<182 237 625 681 1071 1127> 690 55<126 182> 746 55<182 293 348 403 460 515 625 681 793 848 904 959>
VStem: 126 56<-32 468 690 745> 182 56<634 690> 237 56<578 634> 403 57<133 188 523 746> 459 56<23 79> 515 56<79 134> 570 55<135 190 301 357 523 745> 570 1<134 135> 625 56<190 245 746 801> 681 56<246 301 523 634 690 745> 737 56<301 356 412 468> 793 56<190 245 357 412> 848 56<412 467 523 746> 903 56<468 523> 903 1<467 468> 959 56<357 412 523 579> 1015 56<579 634> 1071 55<-88 246 467 523 634 690> 1126 111<79 135> 1293 111<-88 -32 23 190 246 746> 1293 55<746 801>
LayerCount: 2
Fore
SplineSet
126 745 m 0x0003f01c3c
 182 745 l 0
 182 690 l 0
 126 690 l 0
 126 745 l 0x0003f01c3c
182 690 m 0
 238 690 l 0x0003f01c3c
 238 634 l 0x0003f01c3c
 182 634 l 0
 182 690 l 0
237 634 m 0x0003f41c3c
 293 634 l 0
 293 578 l 0
 237 578 l 0
 237 634 l 0x0003f41c3c
293 746 m 0
 182 746 l 0
 182 801 l 0
 293 801 l 0
 293 746 l 0
126 578 m 0
 237 578 l 0
 237 523 l 0
 126 523 l 0
 126 578 l 0
515 746 m 0x0003f09c3c
 348 746 l 0
 348 801 l 0
 515 801 l 0
 515 746 l 0x0003f09c3c
403 746 m 0x0003f21c3c
 460 746 l 0
 460 523 l 0
 403 523 l 0
 403 746 l 0x0003f21c3c
625 801 m 0
 681 801 l 0
 681 745 l 0
 625 745 l 0x0003f05c3c
 625 801 l 0
570 746 m 0x0003f03c3c
 625 746 l 0
 625 523 l 0
 570 523 l 0x0003f05c3c
 570 746 l 0x0003f03c3c
681 745 m 0
 737 745 l 0
 737 523 l 0
 681 523 l 0
 681 745 l 0
625 690 m 0
 681 690 l 0
 681 634 l 0
 625 634 l 0
 625 690 l 0
959 746 m 0
 793 746 l 0
 793 801 l 0
 959 801 l 0
 959 746 l 0
848 746 m 0x000bf01d3c
 904 746 l 0
 904 523 l 0
 848 523 l 0
 848 746 l 0x000bf01d3c
1071 690 m 0
 1127 690 l 0
 1127 634 l 0
 1071 634 l 0
 1071 690 l 0
1015 634 m 0
 1071 634 l 0
 1071 579 l 0
 1015 579 l 0
 1015 634 l 0
959 579 m 0
 1015 579 l 0
 1015 523 l 0
 959 523 l 0x000bf01cbc
 959 579 l 0
903 523 m 0
 959 523 l 0
 959 467 l 0x000bf01cbc
 903 467 l 0x0007f01c7c
 903 523 l 0
848 468 m 0x0027f01d3c
 904 468 l 0x0027f01c7c
 904 412 l 0x0013f01d3c
 848 412 l 0
 848 468 l 0x0027f01d3c
737 468 m 0x0033f01c3c
 793 468 l 0
 793 412 l 0
 737 412 l 0
 737 468 l 0x0033f01c3c
793 412 m 0
 849 412 l 0x0033f01c3c
 849 356 l 0x0023f01c3c
 793 356 l 0
 793 412 l 0
737 357 m 0x00c3f01c3c
 793 357 l 0
 793 301 l 0
 737 301 l 0
 737 357 l 0x00c3f01c3c
682 301 m 0
 738 301 l 0
 738 245 l 0
 682 245 l 0
 682 301 l 0
626 246 m 0x0103f01c3c
 682 246 l 0
 682 190 l 0
 626 190 l 0
 626 246 l 0x0103f01c3c
570 190 m 0x0303f05c3c
 626 190 l 0
 626 134 l 0
 570 134 l 0x0303f03c3c
 570 190 l 0x0303f05c3c
515 135 m 0x2803f19c3c
 571 135 l 0x0203f03c3c
 571 79 l 0
 515 79 l 0
 515 135 l 0x2803f19c3c
459 79 m 0x2003f11c3c
 515 79 l 0x2003f11c3c
 515 23 l 0
 459 23 l 0x1003f11c3c
 459 79 l 0x2003f11c3c
1071 523 m 0x000bf01c3c
 1127 523 l 0
 1127 467 l 0
 1071 467 l 0
 1071 523 l 0x000bf01c3c
959 412 m 0x0023f01c3c
 1015 412 l 0x0023f01c3c
 1015 357 l 0
 959 357 l 0x0043f01c3c
 959 412 l 0x0023f01c3c
793 245 m 0x0083f01c3c
 849 245 l 0x0083f01c3c
 849 190 l 0x0103f01c3c
 793 190 l 0x0103f01c3c
 793 245 l 0x0083f01c3c
571 357 m 0x0043f03c3c
 627 357 l 0
 627 301 l 0
 571 301 l 0
 571 357 l 0x0043f03c3c
404 188 m 0x0403f21c3c
 460 188 l 0
 460 133 l 0
 404 133 l 0
 404 188 l 0x0403f21c3c
126 468 m 0x1007f01c3c
 182 468 l 0
 182 -32 l 0
 126 -32 l 0
 126 468 l 0x1007f01c3c
182 23 m 0
 1015 23 l 0
 1015 -32 l 0
 182 -32 l 0
 182 23 l 0
1348 746 m 0x8003f01c3d
 1404 746 l 0
 1404 -199 l 0x8003f01c3e
 1348 -199 l 0
 1348 746 l 0x8003f01c3d
1293 801 m 0x8003f01c3d
 1348 801 l 0
 1348 -199 l 0
 1293 -199 l 0
 1293 801 l 0x8003f01c3d
1293 -143 m 0x4003f01c3d
 126 -143 l 0
 126 -88 l 0x4003f01c3d
 1293 -88 l 0x8003f01c3e
 1293 -143 l 0x4003f01c3d
1293 -199 m 0x8003f01c3d
 182 -199 l 0x8003f01c3d
 182 -143 l 0
 1293 -143 l 0x4003f01c3d
 1293 -199 l 0x8003f01c3d
1126 -88 m 0
 1071 -88 l 0
 1071 246 l 0
 1126 246 l 0x8103f01c3c
 1126 -88 l 0
1293 190 m 0x0103f01c3e
 1126 190 l 0
 1126 246 l 0
 1293 246 l 0
 1293 190 l 0x0103f01c3e
1126 135 m 0x0803f01c3c
 1237 135 l 0
 1237 79 l 0
 1126 79 l 0
 1126 135 l 0x0803f01c3c
1182 23 m 0x1003f01c3e
 1293 23 l 0
 1293 -32 l 0
 1182 -32 l 0
 1182 23 l 0x1003f01c3e
EndSplineSet
Validated: 5
EndChar

StartChar: backslash
Encoding: 92 92 52
Width: 1867
Flags: W
HStem: -200 56<128 1629 1684 1739> -145 1<1629 1685> -89 56<239 573 1406 1628> -33 55<1405 1406 1628 1685> 22 55<906 962 1462 1628> 78 56<294 517 684 795> 133 56<906 962 1406 1628> 189 57<294 517 684 851> 244 112<1184 1239> 245 55<1017 1073> 300 111<573 629> 356 55<1128 1184 1294 1350> 411 56<239 573 1184 1240> 522 56<184 350 850 1017> 578 167<128 184 794 850> 633 56<183 351 406 462 572 685> 689 55<296 351> 745 55<184 294 572 684 850 1017 1072 1128 1184 1239>
VStem: 128 56<578 633 689 744> 183 1<633 689> 184 112<745 800> 239 1<-89 -33 411 467> 294 223<78 135 189 246 300 357> 294 57<689 744> 406 56<633 689> 517 55<522 744> 573 56<-33 78 134 244 300 411> 684 111<78 134> 684 56<522 634 689 745> 684 1<634 689> 794 56<578 745> 850 167<522 578 745 800> 851 55<22 133> 962 1<-89 -33 411 467> 1073 55<300 356> 1128 56<356 411 522 745> 1184 111<300 356 411 467> 1239 111<356 411> 1239 1<300 356 411 467> 1294 1<356 411> 1350 112<-34 22> 1350 56<-144 -34 22 134> 1405 1<-34 22> 1628 111<-144 -89 -33 22 77 134> 1684 55<-89 -33 22 77 189 800> 1684 1<-144 -89 -33 22 77 189>
LayerCount: 2
Fore
SplineSet
296 744 m 0x380ce86030
 184 744 l 0
 184 800 l 0
 296 800 l 0
 296 744 l 0x380ce86030
351 633 m 0x380d516030
 183 633 l 0
 183 689 l 0
 351 689 l 0
 351 633 l 0x380d516030
350 522 m 0
 184 522 l 0x380c686030
 184 578 l 0x380c606030
 350 578 l 0
 350 522 l 0
184 578 m 0
 128 578 l 0
 128 745 l 0x380c606030
 184 745 l 0x380c686030
 184 578 l 0
462 633 m 0x380d40e030
 406 633 l 0
 406 689 l 0
 462 689 l 0
 462 633 l 0x380d40e030
351 689 m 0x380d416030
 294 689 l 0
 294 744 l 0
 351 744 l 0x380dc16030
 351 689 l 0x380d416030
684 744 m 0x380cc06830
 572 744 l 0
 572 800 l 0
 684 800 l 0x380cc06430
 684 744 l 0x380cc06830
572 522 m 0
 517 522 l 0
 517 745 l 0
 572 745 l 0
 572 522 l 0
740 522 m 0x380c406830
 684 522 l 0
 684 745 l 0
 740 745 l 0
 740 522 l 0x380c406830
685 634 m 0x380d406430
 572 634 l 0
 572 689 l 0
 685 689 l 0
 685 634 l 0x380d406430
850 578 m 0x380c406230
 794 578 l 0
 794 745 l 0x380c406230
 850 745 l 0x380c406230
 850 578 l 0x380c406230
1017 745 m 0x380c406330
 850 745 l 0x380c406230
 850 800 l 0
 1017 800 l 0
 1017 745 l 0x380c406330
1017 522 m 0x380c406330
 850 522 l 0
 850 578 l 0
 1017 578 l 0
 1017 522 l 0x380c406330
1239 745 m 0x380c406032
 1072 745 l 0
 1072 800 l 0
 1239 800 l 0
 1239 745 l 0x380c406032
1128 745 m 0
 1184 745 l 0
 1184 522 l 0
 1128 522 l 0
 1128 745 l 0
240 -89 m 0x380c446030
 184 -89 l 0
 184 467 l 0x380c486030
 240 467 l 0
 240 -89 l 0x380c446030
239 467 m 0x382c446030
 573 467 l 0
 573 411 l 0
 239 411 l 0
 239 467 l 0x382c446030
239 -33 m 0
 573 -33 l 0
 573 -89 l 0
 239 -89 l 0
 239 -33 l 0
517 300 m 0x382c426030
 294 300 l 0
 294 357 l 0
 517 357 l 0
 517 300 l 0x382c426030
517 189 m 0x390c426030
 294 189 l 0
 294 246 l 0
 517 246 l 0
 517 189 l 0x390c426030
517 78 m 0x3c0c426030
 294 78 l 0
 294 135 l 0
 517 135 l 0
 517 78 l 0x3c0c426030
962 -89 m 0x380c406070
 1018 -89 l 0
 1018 467 l 0
 962 467 l 0
 962 -89 l 0x380c406070
963 467 m 0
 629 467 l 0
 629 411 l 0x382c406070
 963 411 l 0
 963 467 l 0
963 -33 m 0
 629 -33 l 0
 629 -89 l 0
 963 -89 l 0
 963 -33 l 0
684 300 m 0x382c406430
 908 300 l 0
 908 357 l 0
 684 357 l 0
 684 300 l 0x382c406430
629 300 m 0
 573 300 l 0
 573 411 l 0
 629 411 l 0
 629 300 l 0
629 134 m 0x3c8c406030
 573 134 l 0
 573 244 l 0
 629 244 l 0
 629 134 l 0x3c8c406030
629 -33 m 0
 573 -33 l 0
 573 78 l 0
 629 78 l 0
 629 -33 l 0
1295 300 m 0x382c406030
 1239 300 l 0
 1239 467 l 0x382c406032
 1295 467 l 0x382c406030
 1295 300 l 0x382c406030
1294 411 m 0x381c406031
 1350 411 l 0
 1350 356 l 0x381c406034
 1294 356 l 0
 1294 411 l 0x381c406031
1184 467 m 0
 1240 467 l 0
 1240 411 l 0x381c406032
 1184 411 l 0
 1184 467 l 0
1128 411 m 0
 1184 411 l 0x389c406030
 1184 356 l 0x388c406030
 1128 356 l 0
 1128 411 l 0
1073 356 m 0
 1128 356 l 0x385c406030
 1128 300 l 0x382c406030
 1073 300 l 0x384c406030
 1073 356 l 0
1017 300 m 0x384c406130
 1073 300 l 0
 1073 245 l 0
 1017 245 l 0
 1017 300 l 0x384c406130
906 189 m 0x3a0c4060f0
 962 189 l 0
 962 133 l 0
 906 133 l 0
 906 189 l 0x3a0c4060f0
851 189 m 0x390c4064b0
 684 189 l 0x390c4064b0
 684 245 l 0
 851 245 l 0x384c4064b0
 851 189 l 0x390c4064b0
795 78 m 0x3c0c407030
 684 78 l 0
 684 134 l 0
 795 134 l 0
 795 78 l 0x3c0c407030
906 22 m 0x380c4060b0
 851 22 l 0
 851 134 l 0
 906 134 l 0x3c0c4060b0
 906 22 l 0x380c4060b0
906 77 m 0
 962 77 l 0
 962 22 l 0x380c4060f0
 906 22 l 0
 906 77 l 0
1240 244 m 0x388c406032
 1184 244 l 0
 1184 356 l 0
 1240 356 l 0x389c406032
 1240 244 l 0x388c406032
1184 189 m 0x392c406030
 1129 189 l 0
 1129 300 l 0
 1184 300 l 0
 1184 189 l 0x392c406030
1129 134 m 0x3c4c406030
 1073 134 l 0
 1073 245 l 0
 1129 245 l 0
 1129 134 l 0x3c4c406030
1073 78 m 0
 1018 78 l 0
 1018 189 l 0
 1073 189 l 0x3d0c406030
 1073 78 l 0
1739 -200 m 0xb80c40603008
 128 -200 l 0
 128 -144 l 0
 1739 -144 l 0xb80c60603010
 1739 -200 l 0xb80c40603008
1739 -144 m 0
 1684 -144 l 0xb80c40603004
 1684 800 l 0
 1739 800 l 0xb80c40603008
 1739 -144 l 0
1685 134 m 0x3d0c40603004
 1352 134 l 0
 1352 189 l 0
 1685 189 l 0
 1685 134 l 0x3d0c40603004
1350 134 m 0xbc0c40603040
 1406 134 l 0
 1406 -144 l 0
 1350 -144 l 0
 1350 134 l 0xbc0c40603040
1628 22 m 0x380c40603050
 1406 22 l 0
 1406 77 l 0
 1628 77 l 0
 1628 22 l 0x380c40603050
1628 -89 m 0
 1406 -89 l 0
 1406 -34 l 0
 1628 -34 l 0
 1628 -89 l 0
1628 134 m 0x3c0c40603010
 1685 134 l 0x3c0c40603004
 1685 77 l 0x380c40603004
 1628 77 l 0
 1628 134 l 0x3c0c40603010
1628 22 m 0x380c40603010
 1685 22 l 0
 1685 -33 l 0x380c40603004
 1628 -33 l 0
 1628 22 l 0x380c40603010
1405 22 m 0x380c40603020
 1462 22 l 0
 1462 -34 l 0x380c40603080
 1405 -34 l 0
 1405 22 l 0x380c40603020
1629 -89 m 0
 1685 -89 l 0
 1685 -145 l 0
 1629 -145 l 0x780c40603004
 1629 -89 l 0
EndSplineSet
Validated: 5
EndChar

StartChar: bracketright
Encoding: 93 93 53
Width: 1537
Flags: W
HStem: -203 111<185 1297> -149 57<129 185> -38 56<185 241 352 519 686 796 908 964 1130 1240> 18 56<630 686> 74 56<686 796 1130 1240> 130 55<352 519> 185 55<1130 1297> 240 55<352 463 519 575 686 796> 295 57<796 852> 352 55<686 796> 407 56<185 241 352 463 908 964> 630 55<241 297 518 630> 685 56<185 241 297 353> 741 56<519 630 741 852 908 1019>
VStem: 129 56<18 407 519 797> 185 56<685 741> 241 56<630 685> 297 55<18 130 295 407> 352 111<240 295 407 463> 352 55<519 685 741 797> 352 1<685 741> 463 56<295 407 519 630 685 741> 518 1<630 685> 519 111<741 797> 519 56<240 295> 630 56<18 74 240 463 519 741> 686 110<240 295 352 407> 796 56<18 74 130 185 295 352> 852 56<519 741> 908 56<-38 18 407 463> 964 55<-38 463> 1075 55<-92 185> 1130 110<-37 18 74 130> 1297 111<-92 185 240 741> 1297 56<741 797>
LayerCount: 2
Fore
SplineSet
241 685 m 0x3fffc07f80
 297 685 l 0
 297 630 l 0
 241 630 l 0
 241 685 l 0x3fffc07f80
129 797 m 0
 185 797 l 0
 185 519 l 0
 129 519 l 0
 129 797 l 0
352 797 m 0
 407 797 l 0x3fffc07f80
 407 519 l 0x3fffc07f80
 352 519 l 0
 352 797 l 0
185 741 m 0
 241 741 l 0
 241 685 l 0
 185 685 l 0
 185 741 l 0
297 741 m 0
 353 741 l 0x3fffc07f80
 353 685 l 0x3fffc07f80
 297 685 l 0
 297 741 l 0
519 797 m 0x3fffc57f80
 630 797 l 0
 630 741 l 0
 519 741 l 0
 519 797 l 0x3fffc57f80
518 685 m 0x3fffc27f80
 630 685 l 0
 630 630 l 0
 518 630 l 0
 518 685 l 0x3fffc27f80
463 741 m 0x3fffc47f80
 519 741 l 0
 519 519 l 0
 463 519 l 0
 463 741 l 0x3fffc47f80
630 741 m 0x3fffc17f80
 686 741 l 0
 686 519 l 0
 630 519 l 0
 630 741 l 0x3fffc17f80
1019 741 m 0
 741 741 l 0
 741 797 l 0
 1019 797 l 0
 1019 741 l 0
852 741 m 0
 908 741 l 0
 908 519 l 0
 852 519 l 0
 852 741 l 0
185 463 m 0
 241 463 l 0
 241 407 l 0
 185 407 l 0
 185 463 l 0
185 18 m 0
 241 18 l 0
 241 -38 l 0
 185 -38 l 0
 185 18 l 0
129 463 m 0
 185 463 l 0
 185 -38 l 0
 129 -38 l 0
 129 463 l 0
352 463 m 0
 463 463 l 0x3fffc07f80
 463 407 l 0x3fffc07f80
 352 407 l 0
 352 463 l 0
297 407 m 0
 352 407 l 0
 352 295 l 0
 297 295 l 0
 297 407 l 0
463 407 m 0x3fffc07f80
 519 407 l 0
 519 295 l 0x3fffc47f80
 463 295 l 0x3fffc07f80
 463 407 l 0x3fffc07f80
352 295 m 0
 463 295 l 0x3fffc07f80
 463 240 l 0x3fffc07f80
 352 240 l 0
 352 295 l 0
519 295 m 0x3fffc47f80
 575 295 l 0
 575 240 l 0
 519 240 l 0x3fffc4ff80
 519 295 l 0x3fffc47f80
297 130 m 0
 352 130 l 0
 352 18 l 0
 297 18 l 0
 297 130 l 0
352 18 m 0
 519 18 l 0
 519 -38 l 0
 352 -38 l 0
 352 18 l 0
352 185 m 0
 519 185 l 0
 519 130 l 0
 352 130 l 0
 352 185 l 0
630 463 m 0
 686 463 l 0
 686 240 l 0
 630 240 l 0
 630 463 l 0
686 407 m 0
 796 407 l 0
 796 352 l 0
 686 352 l 0
 686 407 l 0
686 295 m 0
 796 295 l 0
 796 240 l 0
 686 240 l 0
 686 295 l 0
796 352 m 0
 852 352 l 0
 852 295 l 0
 796 295 l 0
 796 352 l 0
908 463 m 0
 964 463 l 0
 964 407 l 0
 908 407 l 0
 908 463 l 0
908 18 m 0
 964 18 l 0
 964 -38 l 0
 908 -38 l 0
 908 18 l 0
964 463 m 0
 1019 463 l 0
 1019 -38 l 0
 964 -38 l 0
 964 463 l 0
630 74 m 0
 686 74 l 0
 686 18 l 0
 630 18 l 0
 630 74 l 0
796 185 m 0
 852 185 l 0
 852 -38 l 0
 796 -38 l 0
 796 185 l 0
686 130 m 0
 796 130 l 0
 796 74 l 0
 686 74 l 0
 686 130 l 0
686 18 m 0
 796 18 l 0
 796 -38 l 0
 686 -38 l 0
 686 18 l 0
1408 -203 m 0xbfffc07fc0
 1353 -203 l 0xbfffc07fa0
 1353 741 l 0x3fffc07fa0
 1408 741 l 0
 1408 -203 l 0xbfffc07fc0
1353 -203 m 0
 1297 -203 l 0
 1297 797 l 0
 1353 797 l 0
 1353 -203 l 0
1297 -149 m 0x7fffc07fa0
 129 -149 l 0
 129 -92 l 0x7fffc07fa0
 1297 -92 l 0xbfffc07fc0
 1297 -149 l 0x7fffc07fa0
1297 -203 m 0xbfffc07fa0
 185 -203 l 0xbfffc07fa0
 185 -149 l 0
 1297 -149 l 0x7fffc07fa0
 1297 -203 l 0xbfffc07fa0
1297 185 m 0x3fffc07fc0
 1075 185 l 0
 1075 240 l 0
 1297 240 l 0
 1297 185 l 0x3fffc07fc0
1075 185 m 0
 1130 185 l 0
 1130 -92 l 0
 1075 -92 l 0xbfffc07f80
 1075 185 l 0
1130 130 m 0
 1240 130 l 0
 1240 74 l 0
 1130 74 l 0
 1130 130 l 0
1130 18 m 0
 1240 18 l 0
 1240 -37 l 0
 1130 -37 l 0
 1130 18 l 0
EndSplineSet
Validated: 5
EndChar

StartChar: asciicircum
Encoding: 94 94 54
Width: 1857
Flags: W
HStem: -201 165<1397 1562 1618 1673> -201 55<130 1342 1562 1618> 19 165<1453 1562 1618 1673> 129 55<1397 1453 1562 1618> 626 55<405 461> 771 20G<1673 1728>
VStem: 405 56<626 681> 1342 55<-36 129> 1453 109<19 129> 1618 110<-146 -36 19 129> 1673 55<-36 19 184 791>
LayerCount: 2
Fore
SplineSet
351 736 m 0x0f80
 351 791 l 0
 185 791 l 0
 185 736 l 0
 129 736 l 0
 129 681 l 0
 185 681 l 0
 185 736 l 0
 351 736 l 0x0f80
130 516 m 0
 295 516 l 0
 295 571 l 0
 130 571 l 0
 130 516 l 0
185 626 m 0
 295 626 l 0
 295 681 l 0
 185 681 l 0
 185 626 l 0
296 625 m 0
 296 570 l 0
 352 570 l 0
 352 625 l 0
 296 625 l 0
736 736 m 0
 736 791 l 0
 571 791 l 0
 571 736 l 0
 515 736 l 0
 515 681 l 0
 571 681 l 0
 571 736 l 0
 736 736 l 0
516 516 m 0
 681 516 l 0
 681 571 l 0
 516 571 l 0
 516 516 l 0
571 626 m 0
 681 626 l 0
 681 681 l 0
 571 681 l 0
 571 626 l 0
682 625 m 0
 682 570 l 0
 738 570 l 0
 738 625 l 0
 682 625 l 0
405 681 m 0
 461 681 l 0
 461 626 l 0
 405 626 l 0
 405 681 l 0
901 791 m 0
 901 681 l 0
 847 681 l 0
 847 791 l 0
 791 791 l 0
 791 516 l 0
 847 516 l 0
 847 626 l 0
 901 626 l 0
 901 516 l 0
 957 516 l 0
 957 791 l 0
 901 791 l 0
1012 791 m 0
 1012 736 l 0
 1067 736 l 0
 1067 516 l 0
 1122 516 l 0
 1122 736 l 0
 1177 736 l 0
 1177 791 l 0
 1012 791 l 0
185 461 m 0
 185 -91 l 0
 240 -91 l 0
 240 -36 l 0
 405 -36 l 0x8f80
 405 75 l 0
 240 75 l 0
 240 130 l 0
 405 130 l 0
 405 240 l 0
 240 240 l 0
 240 405 l 0
 405 405 l 0
 405 240 l 0
 570 240 l 0
 570 405 l 0
 626 405 l 0
 626 240 l 0
 791 240 l 0
 791 405 l 0
 847 405 l 0
 847 240 l 0
 1012 240 l 0
 1012 405 l 0
 1067 405 l 0
 1067 240 l 0
 1232 240 l 0
 1232 405 l 0
 1287 405 l 0
 1287 240 l 0
 1452 240 l 0
 1452 461 l 0
 185 461 l 0
1232 240 m 0
 1232 130 l 0
 1067 130 l 0
 1067 240 l 0
 1012 240 l 0
 1012 130 l 0
 847 130 l 0
 847 240 l 0
 791 240 l 0
 791 130 l 0
 626 130 l 0
 626 240 l 0
 570 240 l 0
 570 130 l 0
 405 130 l 0
 405 75 l 0
 570 75 l 0
 570 -36 l 0
 405 -36 l 0
 405 -91 l 0
 1287 -91 l 0
 1287 240 l 0
 1232 240 l 0
1012 75 m 0
 1012 -36 l 0
 847 -36 l 0
 847 75 l 0
 1012 75 l 0
626 75 m 0
 791 75 l 0
 791 -36 l 0
 626 -36 l 0
 626 75 l 0
1232 -36 m 0
 1067 -36 l 0
 1067 75 l 0
 1232 75 l 0
 1232 -36 l 0
1673 791 m 0x2fa0
 1728 791 l 0
 1728 -201 l 0
 130 -201 l 0
 130 -146 l 0
 1342 -146 l 0
 1342 184 l 0x5fa0
 1673 184 l 0
 1673 791 l 0x2fa0
1673 19 m 0xafa0
 1618 19 l 0xafc0
 1618 129 l 0
 1562 129 l 0x1fc0
 1562 19 l 0
 1453 19 l 0x2fc0
 1453 129 l 0
 1397 129 l 0
 1397 -36 l 0
 1562 -36 l 0x9fc0
 1562 -146 l 0
 1618 -146 l 0x4fc0
 1618 -36 l 0x8fc0
 1673 -36 l 0
 1673 19 l 0xafa0
EndSplineSet
Validated: 5
EndChar

StartChar: Z
Encoding: 90 90 55
Width: 1852
Flags: W
LayerCount: 2
Fore
SplineSet
347 738 m 0
 347 794 l 0
 182 794 l 0
 182 738 l 0
 127 738 l 0
 127 683 l 0
 183 683 l 0
 183 738 l 0
 347 738 l 0
292 628 m 0
 292 573 l 0
 348 573 l 0
 348 628 l 0
 292 628 l 0
183 683 m 0
 183 628 l 0
 292 628 l 0
 292 683 l 0
 183 683 l 0
127 518 m 0
 292 518 l 0
 292 573 l 0
 127 573 l 0
 127 518 l 0
402 794 m 0
 402 738 l 0
 512 738 l 0
 512 518 l 0
 568 518 l 0
 568 738 l 0
 677 738 l 0
 677 794 l 0
 402 794 l 0
898 738 m 0
 898 683 l 0
 788 683 l 0
 788 738 l 0
 733 738 l 0
 733 518 l 0
 788 518 l 0
 788 628 l 0
 898 628 l 0
 898 518 l 0
 953 518 l 0
 953 738 l 0
 898 738 l 0
898 794 m 0
 788 794 l 0
 788 738 l 0
 898 738 l 0
 898 794 l 0
1009 794 m 0
 1009 738 l 0
 1118 738 l 0
 1118 518 l 0
 1174 518 l 0
 1174 738 l 0
 1284 738 l 0
 1284 794 l 0
 1009 794 l 0
403 242 m 0
 347 242 l 0
 347 187 l 0
 403 187 l 0
 403 242 l 0
348 21 m 0
 403 21 l 0
 403 76 l 0
 348 76 l 0
 348 21 l 0
458 131 m 0
 403 131 l 0
 403 76 l 0
 458 76 l 0
 458 131 l 0
458 132 m 0
 513 132 l 0
 513 187 l 0
 458 187 l 0
 458 132 l 0
568 241 m 0
 513 241 l 0
 513 186 l 0
 568 186 l 0
 568 241 l 0
623 297 m 0
 568 297 l 0
 568 242 l 0
 623 242 l 0
 623 297 l 0
679 353 m 0
 623 353 l 0
 623 298 l 0
 679 298 l 0
 679 353 l 0
734 408 m 0
 679 408 l 0
 679 353 l 0
 734 353 l 0
 734 408 l 0
623 462 m 0
 568 462 l 0
 568 407 l 0
 623 407 l 0
 623 462 l 0
513 352 m 0
 457 352 l 0
 457 297 l 0
 513 297 l 0
 513 352 l 0
679 187 m 0
 623 187 l 0
 623 132 l 0
 679 132 l 0
 679 187 l 0
568 76 m 0
 513 76 l 0
 513 21 l 0
 568 21 l 0
 568 76 l 0
347 -34 m 0
 347 22 l 0
 292 22 l 0
 292 -34 l 0
 237 -34 l 0
 237 463 l 0
 182 463 l 0
 182 -87 l 0
 1284 -87 l 0
 1284 -34 l 0
 347 -34 l 0
1614 407 m 0
 1614 463 l 0
 788 463 l 0
 788 22 l 0
 843 22 l 0
 843 77 l 0
 954 77 l 0
 954 22 l 0
 1009 22 l 0
 1009 77 l 0
 1119 77 l 0
 1119 22 l 0
 1174 22 l 0
 1174 77 l 0
 1284 77 l 0
 1284 132 l 0
 1174 132 l 0
 1174 242 l 0
 1284 242 l 0
 1284 187 l 0
 1339 187 l 0
 1339 242 l 0
 1614 242 l 0
 1614 297 l 0
 1504 297 l 0
 1504 407 l 0
 1614 407 l 0
1119 407 m 0
 1119 297 l 0
 1009 297 l 0
 1009 407 l 0
 1119 407 l 0
843 407 m 0
 954 407 l 0
 954 297 l 0
 843 297 l 0
 843 407 l 0
843 132 m 0
 843 242 l 0
 954 242 l 0
 954 132 l 0
 843 132 l 0
1119 132 m 0
 1009 132 l 0
 1009 242 l 0
 1119 242 l 0
 1119 132 l 0
1174 297 m 0
 1174 407 l 0
 1284 407 l 0
 1284 297 l 0
 1174 297 l 0
1339 407 m 0
 1448 407 l 0
 1448 297 l 0
 1339 297 l 0
 1339 407 l 0
1670 794 m 0
 1670 187 l 0
 1339 187 l 0
 1339 -143 l 0
 127 -143 l 0
 127 -198 l 0
 1725 -198 l 0
 1725 794 l 0
 1670 794 l 0
1670 22 m 0
 1614 22 l 0
 1614 -33 l 0
 1448 -33 l 0
 1448 -87 l 0
 1670 -87 l 0
 1670 -143 l 0
 1394 -143 l 0
 1394 -33 l 0
 1448 -33 l 0
 1448 22 l 0
 1614 22 l 0
 1614 77 l 0
 1394 77 l 0
 1394 132 l 0
 1614 132 l 0
 1614 77 l 0
 1670 77 l 0
 1670 22 l 0
EndSplineSet
Validated: 5
EndChar

StartChar: underscore
Encoding: 95 95 56
Width: 1538
Flags: W
HStem: -199 166<185 297 353 463 519 631 687 798 854 1020> -199 55<1020 1297> -144 56<1020 1297> -88 111<1131 1241> 79 56<129 1020> 191 55<1131 1186 1241 1297> 245 56<129 1020> 412 56<185 297 353 463 519 631 687 798 854 1020> 523 56<130 297 352 520 575 741> 579 55<741 797> 634 56<631 741> 690 55<575 631> 745 56<352 408 464 520 631 797 853 964 1020 1131>
VStem: 129 56<-33 79 135 245 301 412 580 801> 297 56<-33 412> 352 168<523 579 745 801> 408 56<579 745> 463 56<-33 412> 575 56<690 745> 631 110<634 690> 631 56<-33 412> 741 56<579 634> 798 56<-33 412> 964 56<523 745> 1076 55<-88 191> 1131 110<-88 23> 1186 55<80 191> 1297 112<-88 191 246 745> 1297 56<745 801>
LayerCount: 2
Fore
SplineSet
130 580 m 0x09fe2780
 297 580 l 0
 297 523 l 0
 130 523 l 0
 130 580 l 0x09fe2780
129 801 m 0
 185 801 l 0
 185 580 l 0
 129 580 l 0
 129 801 l 0
520 745 m 0x09fd2780
 352 745 l 0
 352 801 l 0
 520 801 l 0
 520 745 l 0x09fd2780
520 523 m 0
 352 523 l 0
 352 579 l 0
 520 579 l 0
 520 523 l 0
408 745 m 0x09fca780
 464 745 l 0
 464 579 l 0
 408 579 l 0
 408 745 l 0x09fca780
575 745 m 0
 631 745 l 0
 631 690 l 0
 575 690 l 0
 575 745 l 0
741 634 m 0x09fc2780
 797 634 l 0
 797 579 l 0
 741 579 l 0
 741 634 l 0x09fc2780
631 801 m 0
 797 801 l 0
 797 745 l 0
 631 745 l 0
 631 801 l 0
631 690 m 0
 741 690 l 0x09fc2780
 741 634 l 0x09fc2780
 631 634 l 0
 631 690 l 0
575 579 m 0
 741 579 l 0
 741 523 l 0
 575 523 l 0
 575 579 l 0
1131 745 m 0
 853 745 l 0
 853 801 l 0
 1131 801 l 0
 1131 745 l 0
964 745 m 0
 1020 745 l 0
 1020 523 l 0
 964 523 l 0
 964 745 l 0
1020 412 m 0
 129 412 l 0
 129 468 l 0
 1020 468 l 0
 1020 412 l 0
1020 245 m 0x0bfc2780
 129 245 l 0
 129 301 l 0
 1020 301 l 0
 1020 245 l 0x0bfc2780
1020 79 m 0
 129 79 l 0
 129 135 l 0
 1020 135 l 0
 1020 79 l 0
129 412 m 0
 185 412 l 0
 185 -33 l 0
 129 -33 l 0x89fc2780
 129 412 l 0
297 412 m 0x89fe2780
 353 412 l 0
 353 -33 l 0
 297 -33 l 0
 297 412 l 0x89fe2780
463 412 m 0x89fc6780
 519 412 l 0
 519 -33 l 0
 463 -33 l 0
 463 412 l 0x89fc6780
631 412 m 0
 687 412 l 0x89fc2780
 687 -33 l 0x89fc2780
 631 -33 l 0
 631 412 l 0
798 412 m 0
 854 412 l 0
 854 -33 l 0
 798 -33 l 0
 798 412 l 0
1020 -144 m 0x49fc2780
 129 -144 l 0x69fc2780
 129 -33 l 0
 1020 -33 l 0x89fc2780
 1020 -144 l 0x49fc2780
1409 -199 m 0x49fc2790
 1353 -199 l 0x49fc2788
 1353 745 l 0x09fc2788
 1409 745 l 0
 1409 -199 l 0x49fc2790
1353 -199 m 0
 1297 -199 l 0
 1297 801 l 0
 1353 801 l 0
 1353 -199 l 0
185 -144 m 0x29fc2788
 1297 -144 l 0
 1297 -199 l 0x49fc2788
 185 -199 l 0x89fc2788
 185 -144 l 0x29fc2788
1297 -144 m 0
 1020 -144 l 0
 1020 -88 l 0
 1297 -88 l 0x69fc2790
 1297 -144 l 0
1297 191 m 0x0dfc2790
 1076 191 l 0
 1076 246 l 0
 1297 246 l 0
 1297 191 l 0x0dfc2790
1131 -88 m 0x2dfc2780
 1076 -88 l 0
 1076 191 l 0
 1131 191 l 0
 1131 -88 l 0x2dfc2780
1241 -88 m 0x29fc2780
 1131 -88 l 0
 1131 23 l 0
 1241 23 l 0x39fc2780
 1241 -88 l 0x29fc2780
1186 191 m 0x0dfc27a0
 1241 191 l 0
 1241 80 l 0
 1186 80 l 0
 1186 191 l 0x0dfc27a0
EndSplineSet
Validated: 5
EndChar

StartChar: quoteleft
Encoding: 96 8216 58
Width: 1848
Flags: W
LayerCount: 2
Fore
SplineSet
345 790 m 0
 180 790 l 0
 180 736 l 0
 345 736 l 0
 345 790 l 0
125 736 m 0
 125 569 l 0
 180 569 l 0
 180 736 l 0
 125 736 l 0
345 514 m 0
 345 680 l 0
 236 680 l 0
 236 625 l 0
 290 625 l 0
 290 569 l 0
 180 569 l 0
 180 514 l 0
 345 514 l 0
621 680 m 0
 621 736 l 0
 566 736 l 0
 566 680 l 0
 621 680 l 0
566 571 m 0
 566 679 l 0
 456 679 l 0
 456 736 l 0
 566 736 l 0
 566 790 l 0
 400 790 l 0
 400 514 l 0
 456 514 l 0
 456 625 l 0
 510 625 l 0
 510 570 l 0
 566 570 l 0
 566 514 l 0
 621 514 l 0
 621 571 l 0
 566 571 l 0
842 736 m 0
 842 680 l 0
 731 680 l 0
 731 736 l 0
 676 736 l 0
 676 515 l 0
 731 515 l 0
 731 626 l 0
 842 626 l 0
 842 515 l 0
 897 515 l 0
 897 736 l 0
 842 736 l 0
842 790 m 0
 731 790 l 0
 731 736 l 0
 842 736 l 0
 842 790 l 0
1007 736 m 0
 1117 736 l 0
 1117 790 l 0
 952 791 l 0
 952 515 l 0
 1007 515 l 0
 1007 625 l 0
 1117 625 l 0
 1117 680 l 0
 1007 680 l 0
 1007 736 l 0
1117 736 m 0
 1117 680 l 0
 1173 680 l 0
 1173 736 l 0
 1117 736 l 0
1393 790 m 0
 1393 680 l 0
 1283 680 l 0
 1283 790 l 0
 1227 790 l 0
 1227 515 l 0
 1283 515 l 0
 1283 625 l 0
 1393 625 l 0
 1393 515 l 0
 1449 515 l 0
 1449 790 l 0
 1393 790 l 0
1173 184 m 0
 1173 294 l 0
 1117 294 l 0
 1117 184 l 0
 952 184 l 0
 952 294 l 0
 1007 294 l 0
 1007 349 l 0
 1062 349 l 0
 1062 405 l 0
 1007 405 l 0
 1007 349 l 0
 952 349 l 0
 952 460 l 0
 897 460 l 0
 897 239 l 0
 842 239 l 0
 842 184 l 0
 731 184 l 0
 731 294 l 0
 676 294 l 0
 676 184 l 0
 400 184 l 0
 400 294 l 0
 455 294 l 0
 455 404 l 0
 400 404 l 0
 400 294 l 0
 345 294 l 0
 345 184 l 0
 180 184 l 0
 180 129 l 0
 290 129 l 0
 290 19 l 0
 235 19 l 0
 235 -92 l 0
 290 -92 l 0
 290 19 l 0
 345 19 l 0
 345 129 l 0
 731 129 l 0
 731 74 l 0
 677 74 l 0
 677 19 l 0
 731 19 l 0
 731 18 l 0
 786 18 l 0
 786 -37 l 0
 841 -37 l 0
 841 19 l 0
 786 19 l 0
 786 129 l 0
 897 129 l 0
 897 -37 l 0
 841 -37 l 0
 841 -92 l 0
 1007 -92 l 0
 1007 -37 l 0
 952 -37 l 0
 952 129 l 0
 1062 129 l 0
 1062 19 l 0
 1117 19 l 0
 1117 129 l 0
 1283 129 l 0
 1283 184 l 0
 1173 184 l 0
621 294 m 0
 676 294 l 0
 676 405 l 0
 621 405 l 0
 621 460 l 0
 456 460 l 0
 456 405 l 0
 621 405 l 0
 621 294 l 0
621 -36 m 0
 676 -36 l 0
 676 19 l 0
 621 19 l 0
 621 -36 l 0
566 -92 m 0
 621 -92 l 0
 621 -37 l 0
 566 -37 l 0
 566 -92 l 0
1117 459 m 0
 1062 459 l 0
 1062 404 l 0
 1117 404 l 0
 1117 459 l 0
1282 460 m 0
 1227 460 l 0
 1227 405 l 0
 1282 405 l 0
 1282 460 l 0
1227 405 m 0
 1173 405 l 0
 1173 294 l 0
 1227 294 l 0
 1227 405 l 0
1007 -36 m 0
 1062 -36 l 0
 1062 19 l 0
 1007 19 l 0
 1007 -36 l 0
1668 790 m 0
 1668 185 l 0
 1338 185 l 0
 1338 -146 l 0
 125 -146 l 0
 125 -201 l 0
 1723 -201 l 0
 1723 790 l 0
 1668 790 l 0
1394 -91 m 0
 1615 -91 l 0
 1615 -36 l 0
 1394 -36 l 0
 1394 129 l 0
 1668 129 l 0
 1668 74 l 0
 1449 74 l 0
 1449 19 l 0
 1615 19 l 0
 1615 -36 l 0
 1668 -36 l 0
 1668 -91 l 0
 1615 -91 l 0
 1615 -146 l 0
 1394 -146 l 0
 1394 -91 l 0
EndSplineSet
Validated: 5
EndChar

StartChar: a
Encoding: 97 97 59
Width: 1536
Flags: W
HStem: -198 167<463 519 741 908> -198 111<185 463 519 741 908 1297> -142 55<129 185> -31 56<129 185 518 574 685 741 908 963 1130 1241> 25 55<574 629> 80 55<1185 1297> 135 167<240 296 574 629 1019 1074> 135 56<129 240 296 574 629 741 796 1019> 191 55<1130 1297> 302 55<853 909> 358 55<908 964> 413 56<352 518 963 1018 1130 1186> 524 56<185 352 574 629> 580 111<296 352 518 574> 635 1<518 574> 637 54<240 296 463 518 741 852 1019 1130 1241 1352> 691 56<574 629 1130 1185> 747 55<185 352 463 574 741 852 1019 1130>
VStem: 129 56<-31 25 580 747> 185 55<25 135> 240 56<191 302> 296 56<302 413 580 637> 407 56<524 802> 463 56<-87 -32> 518 56<-31 24 302 413 580 636> 574 55<191 302 525 581 691 747> 629 56<80 135> 685 56<-31 24 524 747> 741 55<191 246> 796 56<-31 469> 852 56<302 357 524 637 691 747> 908 55<-31 25 358 413> 963 56<25 135 413 468 524 802> 1019 55<246 302> 1074 56<-87 135 302 413> 1130 56<413 469 691 747> 1185 56<524 802> 1297 111<-87 80 135 469> 1352 56<524 637 691 802>
LayerCount: 2
Fore
SplineSet
128 747 m 0x1c78fe7fe0
 185 747 l 0
 185 580 l 0
 128 580 l 0
 128 747 l 0x1c78fe7fe0
185 802 m 0
 352 802 l 0
 352 747 l 0
 185 747 l 0
 185 802 l 0
185 580 m 0
 352 580 l 0
 352 524 l 0
 185 524 l 0
 185 580 l 0
296 691 m 0x1c78fe7fe0
 352 691 l 0x1c78fe7fe0
 352 580 l 0
 296 580 l 0
 296 691 l 0x1c78fe7fe0
240 691 m 0x1c79fe7fe0
 296 691 l 0x1c78fe7fe0
 296 637 l 0
 240 637 l 0
 240 691 l 0x1c79fe7fe0
407 802 m 0
 463 802 l 0
 463 524 l 0
 407 524 l 0
 407 802 l 0
463 802 m 0
 574 802 l 0
 574 747 l 0
 463 747 l 0
 463 802 l 0
463 691 m 0x1c7bfeffe0
 574 691 l 0x1c78feffe0
 574 635 l 0
 463 635 l 0
 463 691 l 0x1c7bfeffe0
574 747 m 0
 629 747 l 0
 629 691 l 0
 574 691 l 0x1c78fe7fe0
 574 747 l 0
518 636 m 0x1c7afeffe0
 574 636 l 0
 574 580 l 0
 518 580 l 0
 518 636 l 0x1c7afeffe0
574 581 m 0
 629 581 l 0
 629 525 l 0
 574 525 l 0
 574 581 l 0
741 802 m 0
 852 802 l 0
 852 747 l 0
 741 747 l 0
 741 802 l 0
685 747 m 0
 741 747 l 0
 741 524 l 0
 685 524 l 0
 685 747 l 0
852 747 m 0
 908 747 l 0
 908 524 l 0
 852 524 l 0
 852 747 l 0
741 691 m 0x1c79fe7fe0
 852 691 l 0
 852 637 l 0
 741 637 l 0
 741 691 l 0x1c79fe7fe0
963 802 m 0
 1019 802 l 0
 1019 524 l 0
 963 524 l 0
 963 802 l 0
1019 802 m 0
 1130 802 l 0
 1130 747 l 0
 1019 747 l 0
 1019 802 l 0
1019 691 m 0
 1130 691 l 0
 1130 637 l 0
 1019 637 l 0
 1019 691 l 0
1130 747 m 0
 1185 747 l 0
 1185 691 l 0x1c79fe7fe8
 1130 691 l 0
 1130 747 l 0
1185 802 m 0
 1241 802 l 0
 1241 524 l 0
 1185 524 l 0
 1185 802 l 0
1352 802 m 0x1c78fe7fe2
 1408 802 l 0
 1408 524 l 0
 1352 524 l 0
 1352 802 l 0x1c78fe7fe2
1241 691 m 0x1c79fe7fea
 1352 691 l 0
 1352 637 l 0
 1241 637 l 0
 1241 691 l 0x1c79fe7fea
129 25 m 0
 185 25 l 0
 185 -31 l 0
 129 -31 l 0
 129 25 l 0
185 135 m 0
 240 135 l 0
 240 25 l 0
 185 25 l 0
 185 135 l 0
240 302 m 0x1c78fe7fe0
 296 302 l 0x1c78fe7fe0
 296 191 l 0x1c78fe7fe0
 240 191 l 0x1c78fe7fe0
 240 302 l 0x1c78fe7fe0
296 413 m 0
 352 413 l 0
 352 302 l 0
 296 302 l 0x1c78fe7fe0
 296 413 l 0
352 469 m 0
 518 469 l 0
 518 413 l 0x1c78feffe0
 352 413 l 0
 352 469 l 0
518 413 m 0
 574 413 l 0
 574 302 l 0x1c78feffe0
 518 302 l 0
 518 413 l 0
574 302 m 0x1c78feffe0
 629 302 l 0x1c78feffe0
 629 191 l 0x1c78feffe0
 574 191 l 0x1c78feffe0
 574 302 l 0x1c78feffe0
629 135 m 0
 685 135 l 0
 685 25 l 0
 629 25 l 0
 629 135 l 0
574 80 m 0
 629 80 l 0
 629 25 l 0
 574 25 l 0
 574 80 l 0
518 24 m 0
 574 24 l 0
 574 -31 l 0
 518 -31 l 0x9c78feffe0
 518 24 l 0
463 -32 m 0
 519 -32 l 0x5c78fe7fe0
 519 -87 l 0x5c78fe7fe0
 463 -87 l 0x5c78fe7fe0
 463 -32 l 0
685 24 m 0
 741 24 l 0
 741 -31 l 0x9c78fe7fe0
 685 -31 l 0
 685 24 l 0
741 246 m 0x1cf8fe7fe0
 796 246 l 0x1cf8fe7fe0
 796 191 l 0x1c78fe7fe0
 741 191 l 0x1c78fe7fe0
 741 246 l 0x1cf8fe7fe0
853 357 m 0
 909 357 l 0
 909 302 l 0
 853 302 l 0
 853 357 l 0
908 413 m 0
 964 413 l 0
 964 358 l 0
 908 358 l 0
 908 413 l 0
963 468 m 0
 1018 468 l 0
 1018 413 l 0
 963 413 l 0
 963 468 l 0
1130 469 m 0
 1186 469 l 0x1c78fe7fe0
 1186 413 l 0x1c78fe7fe0
 1130 413 l 0
 1130 469 l 0
1074 413 m 0
 1130 413 l 0
 1130 302 l 0
 1074 302 l 0x1c78fe7fe0
 1074 413 l 0
741 -31 m 0x9c78fe7fe0
 908 -31 l 0x9c78fe7fe0
 908 -87 l 0
 741 -87 l 0x5c78fe7fe0
 741 -31 l 0x9c78fe7fe0
908 25 m 0
 963 25 l 0
 963 -31 l 0
 908 -31 l 0
 908 25 l 0
963 135 m 0
 1019 135 l 0
 1019 25 l 0
 963 25 l 0
 963 135 l 0
796 469 m 0
 852 469 l 0
 852 -31 l 0
 796 -31 l 0
 796 469 l 0
1019 302 m 0x1c78fe7fe0
 1074 302 l 0x1c78fe7fe0
 1074 246 l 0
 1019 246 l 0x1cf8fe7fe0
 1019 302 l 0x1c78fe7fe0
1019 246 m 0x1cf8fe7fe0
 1297 246 l 0
 1297 191 l 0x1cf8fe7fe4
 1019 191 l 0x1c78fe7fe0
 1019 246 l 0x1cf8fe7fe0
1130 135 m 0
 129 135 l 0
 129 191 l 0x1c78fe7fe0
 1130 191 l 0
 1130 135 l 0
1408 -198 m 0x5c78fe7fe2
 1297 -198 l 0x5c78fe7fe4
 1297 469 l 0
 1408 469 l 0x1c78fe7fe4
 1408 -198 l 0x5c78fe7fe2
1297 -142 m 0x3c78fe7fe4
 129 -142 l 0
 129 -87 l 0x3c78fe7fe4
 1297 -87 l 0x5c78fe7fe4
 1297 -142 l 0x3c78fe7fe4
1297 -198 m 0x5c78fe7fe4
 185 -198 l 0x5c78fe7fe4
 185 -142 l 0
 1297 -142 l 0x3c78fe7fe4
 1297 -198 l 0x5c78fe7fe4
1074 135 m 0
 1130 135 l 0
 1130 -87 l 0
 1074 -87 l 0
 1074 135 l 0
1185 135 m 0x1c78fe7fec
 1297 135 l 0
 1297 80 l 0
 1185 80 l 0
 1185 135 l 0x1c78fe7fec
1130 25 m 0
 1241 25 l 0
 1241 -31 l 0
 1130 -31 l 0
 1130 25 l 0
EndSplineSet
Validated: 5
EndChar

StartChar: b
Encoding: 98 98 60
Width: 1853
Flags: W
LayerCount: 2
Fore
SplineSet
183 736 m 0
 293 736 l 0
 293 791 l 0
 128 791 l 0
 128 516 l 0
 293 516 l 0
 293 570 l 0
 183 570 l 0
 183 736 l 0
293 736 m 0
 293 570 l 0
 348 570 l 0
 348 736 l 0
 293 736 l 0
403 736 m 0
 458 736 l 0
 458 791 l 0
 403 791 l 0
 403 736 l 0
569 681 m 0
 513 681 l 0
 513 735 l 0
 458 735 l 0
 458 680 l 0
 513 680 l 0
 513 516 l 0
 569 516 l 0
 569 680 l 0
 624 680 l 0
 624 735 l 0
 569 735 l 0
 569 681 l 0
624 791 m 0
 624 735 l 0
 678 735 l 0
 678 791 l 0
 624 791 l 0
788 791 m 0
 733 791 l 0
 733 516 l 0
 788 516 l 0
 788 681 l 0
 843 681 l 0
 843 736 l 0
 788 736 l 0
 788 791 l 0
899 791 m 0
 899 681 l 0
 844 681 l 0
 844 626 l 0
 899 626 l 0
 899 516 l 0
 954 516 l 0
 954 791 l 0
 899 791 l 0
1174 736 m 0
 1174 680 l 0
 1064 680 l 0
 1064 736 l 0
 1009 736 l 0
 1009 516 l 0
 1064 516 l 0
 1064 625 l 0
 1174 625 l 0
 1174 516 l 0
 1230 516 l 0
 1230 736 l 0
 1174 736 l 0
1174 791 m 0
 1064 791 l 0
 1064 736 l 0
 1174 736 l 0
 1174 791 l 0
293 461 m 0
 238 461 l 0
 238 240 l 0
 293 240 l 0
 293 461 l 0
954 461 m 0
 900 461 l 0
 900 240 l 0
 954 240 l 0
 954 461 l 0
954 -35 m 0
 954 20 l 0
 1009 20 l 0
 1009 75 l 0
 1064 75 l 0
 1064 130 l 0
 1009 130 l 0
 1009 75 l 0
 954 75 l 0
 954 20 l 0
 844 20 l 0
 844 -35 l 0
 789 -35 l 0
 789 19 l 0
 844 19 l 0
 844 130 l 0
 789 130 l 0
 789 20 l 0
 733 20 l 0
 733 461 l 0
 679 461 l 0
 679 19 l 0
 624 19 l 0
 624 130 l 0
 569 130 l 0
 569 20 l 0
 459 20 l 0
 459 -35 l 0
 183 -35 l 0
 183 -90 l 0
 1230 -90 l 0
 1230 -35 l 0
 954 -35 l 0
569 19 m 0
 624 19 l 0
 624 -35 l 0
 569 -35 l 0
 569 19 l 0
348 130 m 0
 348 240 l 0
 293 240 l 0
 293 130 l 0
 348 130 l 0
513 130 m 0
 569 130 l 0
 569 240 l 0
 514 240 l 0
 514 461 l 0
 459 461 l 0
 459 240 l 0
 513 240 l 0
 513 130 l 0
899 240 m 0
 844 240 l 0
 844 130 l 0
 899 130 l 0
 899 240 l 0
1120 240 m 0
 1174 240 l 0
 1174 461 l 0
 1119 461 l 0
 1119 240 l 0
 1064 240 l 0
 1064 130 l 0
 1120 130 l 0
 1120 240 l 0
403 75 m 0
 403 130 l 0
 348 130 l 0
 348 75 l 0
 403 75 l 0
403 75 m 0
 403 20 l 0
 459 20 l 0
 459 75 l 0
 403 75 l 0
1668 791 m 0
 1668 186 l 0
 1340 186 l 0
 1340 -146 l 0
 128 -146 l 0
 128 -201 l 0
 1725 -201 l 0
 1725 791 l 0
 1668 791 l 0
1616 -88 m 0
 1616 -146 l 0
 1450 -146 l 0
 1450 -88 l 0
 1395 -88 l 0
 1395 76 l 0
 1450 76 l 0
 1450 22 l 0
 1615 22 l 0
 1615 -33 l 0
 1668 -33 l 0
 1668 -88 l 0
 1616 -88 l 0
1615 77 m 0
 1450 77 l 0
 1450 132 l 0
 1615 132 l 0
 1615 77 l 0
1615 -33 m 0
 1450 -33 l 0
 1450 -88 l 0
 1615 -88 l 0
 1615 -33 l 0
EndSplineSet
Validated: 5
EndChar

StartChar: c
Encoding: 99 99 61
Width: 1526
Flags: W
HStem: -200 111<180 1291> -145 56<124 180> -33 111<346 457 513 680 735 847> -33 55<124 346 457 513 680 735 847 1013 1180 1235> 78 56<291 346 847 901 1180 1291> 134 55<235 291 901 957> 189 111<180 235 402 457 735 791 957 1013> 189 56<1124 1291> 300 167<124 180 346 402 791 847 1013 1069> 522 111<513 569> 522 57<124 291> 633 56<457 513 569 624 847 901 1069 1180> 689 55<791 847> 744 56<180 291 1069 1180>
VStem: 124 56<300 467 579 744> 180 55<189 300> 235 56<134 189> 291 55<78 134 579 744> 346 56<300 467> 402 55<189 300 689 800> 457 56<78 189 633 689> 513 56<522 633> 569 55<78 467 633 689> 624 56<689 800> 680 55<78 189> 735 56<189 300 522 800> 791 56<300 467 689 744> 847 54<78 134 633 689> 901 56<134 189 522 800> 957 56<189 300> 1013 56<300 467 522 744> 1069 111<744 800> 1069 55<-89 189> 1180 55<-33 22 522 633 689 744> 1291 111<-89 78 134 189 245 744> 1291 55<744 800>
LayerCount: 2
Fore
SplineSet
291 744 m 0x0c9ffffe40
 124 744 l 0
 124 800 l 0
 291 800 l 0
 291 744 l 0x0c9ffffe40
124 579 m 0x0cbffffe40
 291 579 l 0
 291 522 l 0
 124 522 l 0
 124 579 l 0x0cbffffe40
124 744 m 0
 180 744 l 0
 180 579 l 0
 124 579 l 0
 124 744 l 0
291 744 m 0
 346 744 l 0
 346 579 l 0
 291 579 l 0
 291 744 l 0
402 800 m 0
 457 800 l 0
 457 689 l 0
 402 689 l 0
 402 800 l 0
457 689 m 0
 513 689 l 0
 513 633 l 0x0cdffffe40
 457 633 l 0
 457 689 l 0
513 633 m 0
 569 633 l 0
 569 522 l 0
 513 522 l 0
 513 633 l 0
569 689 m 0
 624 689 l 0
 624 633 l 0
 569 633 l 0
 569 689 l 0
624 800 m 0
 680 800 l 0
 680 689 l 0
 624 689 l 0
 624 800 l 0
735 800 m 0
 791 800 l 0
 791 522 l 0
 735 522 l 0x0cbffffe40
 735 800 l 0
791 744 m 0
 847 744 l 0
 847 689 l 0
 791 689 l 0
 791 744 l 0
847 689 m 0
 901 689 l 0
 901 633 l 0
 847 633 l 0
 847 689 l 0
901 800 m 0
 957 800 l 0
 957 522 l 0
 901 522 l 0
 901 800 l 0
1013 744 m 0
 1069 744 l 0
 1069 522 l 0
 1013 522 l 0
 1013 744 l 0
1180 744 m 0x0c9ffffe40
 1235 744 l 0
 1235 522 l 0
 1180 522 l 0x0cbffffe40
 1180 744 l 0x0c9ffffe40
1069 800 m 0
 1180 800 l 0x0c9ffffe40
 1180 744 l 0x0c9ffffe40
 1069 744 l 0
 1069 800 l 0
1069 689 m 0
 1180 689 l 0
 1180 633 l 0
 1069 633 l 0
 1069 689 l 0
124 467 m 0
 180 467 l 0
 180 300 l 0x0c9ffffe40
 124 300 l 0
 124 467 l 0
346 467 m 0
 402 467 l 0
 402 300 l 0x0c9ffffe40
 346 300 l 0
 346 467 l 0
791 467 m 0
 847 467 l 0
 847 300 l 0
 791 300 l 0x0c9ffffe40
 791 467 l 0
1013 467 m 0
 1069 467 l 0
 1069 300 l 0
 1013 300 l 0x0c9ffffe40
 1013 467 l 0
957 300 m 0x0c9ffffe40
 1013 300 l 0x0c9ffffe40
 1013 189 l 0
 957 189 l 0
 957 300 l 0x0c9ffffe40
901 189 m 0
 957 189 l 0
 957 134 l 0
 901 134 l 0
 901 189 l 0
847 134 m 0
 901 134 l 0
 901 78 l 0
 847 78 l 0x2c9ffffe40
 847 134 l 0
735 300 m 0x0c9ffffe40
 791 300 l 0x0c9ffffe40
 791 189 l 0
 735 189 l 0
 735 300 l 0x0c9ffffe40
680 189 m 0
 735 189 l 0
 735 78 l 0
 680 78 l 0x2c9ffffe40
 680 189 l 0
457 189 m 0
 513 189 l 0
 513 78 l 0
 457 78 l 0
 457 189 l 0
402 300 m 0x0c9ffffe40
 457 300 l 0x0c9ffffe40
 457 189 l 0
 402 189 l 0
 402 300 l 0x0c9ffffe40
346 78 m 0x2c9ffffe40
 457 78 l 0x2c9ffffe40
 457 22 l 0
 346 22 l 0x1c9ffffe40
 346 78 l 0x2c9ffffe40
291 134 m 0
 346 134 l 0
 346 78 l 0
 291 78 l 0
 291 134 l 0
235 189 m 0
 291 189 l 0
 291 134 l 0
 235 134 l 0
 235 189 l 0
180 300 m 0x0c9ffffe40
 235 300 l 0x0c9ffffe40
 235 189 l 0
 180 189 l 0
 180 300 l 0x0c9ffffe40
513 78 m 0x2c9ffffe40
 680 78 l 0x2c9ffffe40
 680 22 l 0
 513 22 l 0x1c9ffffe40
 513 78 l 0x2c9ffffe40
735 78 m 0
 847 78 l 0x2c9ffffe40
 847 22 l 0
 735 22 l 0x1c9ffffe40
 735 78 l 0
124 22 m 0x1c9ffffe40
 1013 22 l 0
 1013 -33 l 0
 124 -33 l 0
 124 22 l 0x1c9ffffe40
569 467 m 0
 624 467 l 0
 624 78 l 0
 569 78 l 0x2c9ffffe40
 569 467 l 0
1402 -200 m 0x8c9ffffe60
 1346 -200 l 0x8c9ffffe50
 1346 744 l 0x0c9ffffe50
 1402 744 l 0
 1402 -200 l 0x8c9ffffe60
1346 -200 m 0
 1291 -200 l 0
 1291 800 l 0
 1346 800 l 0
 1346 -200 l 0
1291 -145 m 0x4c9ffffe50
 124 -145 l 0
 124 -89 l 0x4c9ffffe50
 1291 -89 l 0x8c9ffffe60
 1291 -145 l 0x4c9ffffe50
1291 -200 m 0x8c9ffffe50
 180 -200 l 0x8c9ffffe50
 180 -145 l 0
 1291 -145 l 0x4c9ffffe50
 1291 -200 l 0x8c9ffffe50
1291 189 m 0x0c9ffffe60
 1069 189 l 0
 1069 245 l 0x0c9ffffe40
 1291 245 l 0x0c9ffffe60
 1291 189 l 0x0c9ffffe60
1069 189 m 0
 1124 189 l 0x0c9ffffe40
 1124 -89 l 0x8c9ffffe40
 1069 -89 l 0x8c9ffffe40
 1069 189 l 0
1180 134 m 0
 1291 134 l 0
 1291 78 l 0x0c9ffffe60
 1180 78 l 0
 1180 134 l 0
1180 22 m 0x1c9ffffe40
 1235 22 l 0
 1235 -33 l 0
 1180 -33 l 0
 1180 22 l 0x1c9ffffe40
EndSplineSet
Validated: 5
EndChar

StartChar: d
Encoding: 100 100 62
Width: 1859
Flags: W
LayerCount: 2
Fore
SplineSet
241 516 m 0
 296 516 l 0
 296 737 l 0
 407 737 l 0
 407 791 l 0
 130 791 l 0
 130 737 l 0
 241 737 l 0
 241 516 l 0
627 791 m 0
 517 791 l 0
 517 737 l 0
 627 737 l 0
 627 791 l 0
517 627 m 0
 627 627 l 0
 627 516 l 0
 682 516 l 0
 682 737 l 0
 627 737 l 0
 627 681 l 0
 517 681 l 0
 517 737 l 0
 462 737 l 0
 462 516 l 0
 517 516 l 0
 517 627 l 0
902 516 m 0
 902 570 l 0
 792 570 l 0
 792 627 l 0
 902 627 l 0
 902 681 l 0
 792 681 l 0
 792 737 l 0
 902 737 l 0
 902 791 l 0
 736 791 l 0
 736 516 l 0
 902 516 l 0
957 681 m 0
 957 737 l 0
 902 737 l 0
 902 681 l 0
 957 681 l 0
957 571 m 0
 957 627 l 0
 902 627 l 0
 902 571 l 0
 957 571 l 0
1178 516 m 0
 1178 571 l 0
 1068 571 l 0
 1068 791 l 0
 1012 791 l 0
 1012 516 l 0
 1178 516 l 0
1454 516 m 0
 1454 571 l 0
 1288 571 l 0
 1288 627 l 0
 1454 627 l 0
 1454 681 l 0
 1288 681 l 0
 1288 737 l 0
 1454 737 l 0
 1454 791 l 0
 1233 791 l 0
 1233 516 l 0
 1454 516 l 0
186 185 m 0
 462 185 l 0
 462 -90 l 0
 518 -90 l 0
 518 185 l 0
 792 185 l 0
 792 -90 l 0
 848 -90 l 0
 848 185 l 0
 1125 185 l 0
 1125 -90 l 0
 1181 -90 l 0
 1181 185 l 0
 1288 185 l 0
 1288 240 l 0
 1181 240 l 0
 1181 461 l 0
 1125 461 l 0
 1125 240 l 0
 848 240 l 0
 848 461 l 0
 792 461 l 0
 792 240 l 0
 518 240 l 0
 518 461 l 0
 462 461 l 0
 462 240 l 0
 186 240 l 0
 186 461 l 0
 130 461 l 0
 130 -90 l 0
 186 -90 l 0
 186 185 l 0
296 461 m 0
 241 461 l 0
 241 406 l 0
 296 406 l 0
 296 461 l 0
407 461 m 0
 351 461 l 0
 351 406 l 0
 296 406 l 0
 296 351 l 0
 241 351 l 0
 241 295 l 0
 296 295 l 0
 296 351 l 0
 351 351 l 0
 351 406 l 0
 407 406 l 0
 407 461 l 0
351 295 m 0
 407 295 l 0
 407 350 l 0
 351 350 l 0
 351 295 l 0
241 130 m 0
 241 75 l 0
 297 75 l 0
 297 130 l 0
 241 130 l 0
407 75 m 0
 407 130 l 0
 352 130 l 0
 352 75 l 0
 407 75 l 0
352 -35 m 0
 352 75 l 0
 297 75 l 0
 297 -35 l 0
 352 -35 l 0
1454 240 m 0
 1509 240 l 0
 1509 461 l 0
 1454 461 l 0
 1454 240 l 0
1674 791 m 0
 1674 185 l 0
 1343 185 l 0
 1343 -145 l 0
 130 -145 l 0
 130 -201 l 0
 1729 -201 l 0
 1729 791 l 0
 1674 791 l 0
1398 130 m 0
 1674 130 l 0
 1674 20 l 0
 1619 20 l 0
 1619 74 l 0
 1398 74 l 0
 1398 130 l 0
1564 19 m 0
 1619 19 l 0
 1619 -36 l 0
 1564 -36 l 0
 1564 19 l 0
1509 -36 m 0
 1564 -36 l 0
 1564 -145 l 0
 1509 -145 l 0
 1509 -36 l 0
EndSplineSet
Validated: 5
EndChar

StartChar: h
Encoding: 104 104 63
Width: 1853
Flags: W
LayerCount: 2
Fore
SplineSet
183 514 m 0
 348 514 l 0
 348 570 l 0
 183 570 l 0
 183 735 l 0
 348 735 l 0
 348 790 l 0
 183 790 l 0
 183 735 l 0
 127 735 l 0
 127 570 l 0
 183 570 l 0
 183 514 l 0
1120 514 m 0
 1285 514 l 0
 1285 570 l 0
 1120 570 l 0
 1120 735 l 0
 1285 735 l 0
 1285 790 l 0
 1120 790 l 0
 1120 735 l 0
 1064 735 l 0
 1064 570 l 0
 1120 570 l 0
 1120 514 l 0
568 790 m 0
 458 790 l 0
 458 735 l 0
 568 735 l 0
 568 790 l 0
458 514 m 0
 568 514 l 0
 568 569 l 0
 458 569 l 0
 458 514 l 0
458 734 m 0
 403 734 l 0
 403 570 l 0
 458 570 l 0
 458 734 l 0
623 734 m 0
 568 734 l 0
 568 570 l 0
 623 570 l 0
 623 734 l 0
734 680 m 0
 789 680 l 0
 789 735 l 0
 734 735 l 0
 734 790 l 0
 678 790 l 0
 678 514 l 0
 734 514 l 0
 734 680 l 0
845 514 m 0
 900 514 l 0
 900 790 l 0
 845 790 l 0
 845 679 l 0
 789 679 l 0
 789 624 l 0
 845 624 l 0
 845 514 l 0
1009 790 m 0
 954 790 l 0
 954 514 l 0
 1009 514 l 0
 1009 790 l 0
1560 790 m 0
 1395 790 l 0
 1395 735 l 0
 1560 735 l 0
 1560 790 l 0
1395 735 m 0
 1340 735 l 0
 1340 680 l 0
 1395 680 l 0
 1395 735 l 0
1561 569 m 0
 1561 624 l 0
 1505 624 l 0
 1505 569 l 0
 1561 569 l 0
1505 624 m 0
 1505 680 l 0
 1395 680 l 0
 1395 624 l 0
 1505 624 l 0
1340 514 m 0
 1505 514 l 0
 1505 569 l 0
 1340 569 l 0
 1340 514 l 0
513 349 m 0
 403 349 l 0
 403 294 l 0
 513 294 l 0
 513 349 l 0
403 294 m 0
 348 294 l 0
 348 239 l 0
 403 239 l 0
 403 294 l 0
1064 294 m 0
 1009 294 l 0
 1009 239 l 0
 1064 239 l 0
 1064 294 l 0
348 73 m 0
 348 18 l 0
 403 18 l 0
 403 73 l 0
 348 73 l 0
1009 18 m 0
 900 18 l 0
 900 -37 l 0
 1010 -37 l 0
 1010 18 l 0
 1064 18 l 0
 1064 73 l 0
 1009 73 l 0
 1009 18 l 0
403 18 m 0
 403 -37 l 0
 513 -37 l 0
 513 18 l 0
 403 18 l 0
1669 790 m 0
 1669 184 l 0
 1340 184 l 0
 1340 -147 l 0
 734 -147 l 0
 734 -92 l 0
 899 -92 l 0
 899 -37 l 0
 734 -37 l 0
 734 129 l 0
 1064 129 l 0
 1064 73 l 0
 1119 73 l 0
 1119 129 l 0
 1229 129 l 0
 1229 183 l 0
 1119 183 l 0
 1119 239 l 0
 1064 239 l 0
 1064 183 l 0
 734 183 l 0
 734 349 l 0
 899 349 l 0
 899 294 l 0
 1009 294 l 0
 1009 349 l 0
 899 349 l 0
 899 404 l 0
 734 404 l 0
 734 460 l 0
 678 460 l 0
 678 404 l 0
 513 404 l 0
 513 349 l 0
 678 349 l 0
 678 183 l 0
 348 183 l 0
 348 239 l 0
 293 239 l 0
 293 183 l 0
 183 183 l 0
 183 129 l 0
 293 129 l 0
 293 73 l 0
 348 73 l 0
 348 129 l 0
 678 129 l 0
 678 -37 l 0
 514 -37 l 0
 514 -92 l 0
 678 -92 l 0
 678 -147 l 0
 128 -147 l 0
 128 -202 l 0
 1726 -202 l 0
 1726 790 l 0
 1669 790 l 0
1614 129 m 0
 1614 73 l 0
 1450 73 l 0
 1450 18 l 0
 1615 18 l 0
 1615 73 l 0
 1669 73 l 0
 1669 -92 l 0
 1614 -92 l 0
 1614 -147 l 0
 1450 -147 l 0
 1450 -91 l 0
 1615 -91 l 0
 1615 -36 l 0
 1450 -36 l 0
 1450 18 l 0
 1394 18 l 0
 1394 73 l 0
 1450 73 l 0
 1450 129 l 0
 1614 129 l 0
EndSplineSet
Validated: 5
EndChar

StartChar: i
Encoding: 105 105 64
Width: 1534
Flags: W
HStem: -203 167<462 739> -203 112<184 462 739 1406> -148 57<128 184> -36 56<351 462 739 851 1128 1238> 20 55<295 351 851 906> 75 56<239 295 906 961 1183 1238> 131 55<128 239 295 906 961 1073> 186 56<1128 1294> 242 56<295 351 851 906> 298 55<351 462 739 851> 353 56<462 739> 519 56<183 295 406 462 1017 1128 1183 1294> 575 55<1294 1350> 630 56<684 739 1238 1294> 686 56<628 684 1183 1238> 742 55<183 295 406 462 1017 1128 1238 1350>
VStem: 128 55<-148 -91 575 742> 183 112<519 575 742 797> 239 56<75 131 186 242> 295 56<20 75 242 298> 351 55<575 742> 406 56<519 575 742 797> 462 54<575 742> 572 56<-36 464 519 797> 628 56<686 742> 684 111<630 686> 739 112<-36 20 298 353> 739 56<519 630 686 797> 851 55<20 75 242 298 519 797> 906 55<75 131 186 242> 961 56<575 742> 1017 111<519 575 742 797> 1073 55<-91 131> 1128 110<-36 20> 1183 55<75 131 686 742> 1238 56<630 686> 1294 112<-91 464> 1294 56<575 630>
LayerCount: 2
Fore
SplineSet
128 742 m 0x1fff9f8e10
 183 742 l 0
 183 575 l 0
 128 575 l 0
 128 742 l 0x1fff9f8e10
183 575 m 0
 295 575 l 0x1fff9f8e10
 295 519 l 0x1fff9f8e10
 183 519 l 0
 183 575 l 0
183 797 m 0
 295 797 l 0x1fff9f8e10
 295 742 l 0x1fff9f8e10
 183 742 l 0
 183 797 l 0
351 742 m 0
 406 742 l 0
 406 575 l 0
 351 575 l 0
 351 742 l 0
462 742 m 0
 516 742 l 0
 516 575 l 0
 462 575 l 0
 462 742 l 0
406 797 m 0
 462 797 l 0
 462 742 l 0
 406 742 l 0
 406 797 l 0
406 575 m 0
 462 575 l 0
 462 519 l 0
 406 519 l 0
 406 575 l 0
572 797 m 0
 628 797 l 0
 628 519 l 0
 572 519 l 0
 572 797 l 0
739 797 m 0x1fff9f9e10
 795 797 l 0
 795 519 l 0
 739 519 l 0
 739 797 l 0x1fff9f9e10
628 742 m 0
 684 742 l 0
 684 686 l 0
 628 686 l 0
 628 742 l 0
684 686 m 0
 739 686 l 0
 739 630 l 0
 684 630 l 0
 684 686 l 0
850 797 m 0
 906 797 l 0
 906 519 l 0
 850 519 l 0
 850 797 l 0
1017 797 m 0
 1128 797 l 0x1fff9f8e10
 1128 742 l 0x1fff9f8e10
 1017 742 l 0
 1017 797 l 0
1017 575 m 0
 1128 575 l 0x1fff9f8e10
 1128 519 l 0x1fff9f8e10
 1017 519 l 0
 1017 575 l 0
961 742 m 0
 1017 742 l 0
 1017 575 l 0
 961 575 l 0
 961 742 l 0
1238 797 m 0
 1350 797 l 0x1fff9f8e10
 1350 742 l 0x1fff9f8e10
 1238 742 l 0x1fff9f8e30
 1238 797 l 0
1183 575 m 0x1fff9f8e30
 1294 575 l 0
 1294 519 l 0
 1183 519 l 0
 1183 575 l 0x1fff9f8e30
1183 742 m 0
 1238 742 l 0
 1238 686 l 0
 1183 686 l 0
 1183 742 l 0
1238 686 m 0
 1294 686 l 0
 1294 630 l 0
 1238 630 l 0
 1238 686 l 0
1294 630 m 0
 1350 630 l 0x1fff9f8e10
 1350 575 l 0x1fff9f8e10
 1294 575 l 0
 1294 630 l 0
739 353 m 0x1fff9fae10
 462 353 l 0
 462 409 l 0
 739 409 l 0x1fff9f9e10
 739 353 l 0x1fff9fae10
351 353 m 0
 462 353 l 0
 462 298 l 0
 351 298 l 0
 351 353 l 0
295 298 m 0
 351 298 l 0
 351 242 l 0
 295 242 l 0x1fffbf8e10
 295 298 l 0
239 242 m 0
 295 242 l 0
 295 186 l 0
 239 186 l 0
 239 242 l 0
239 131 m 0
 295 131 l 0
 295 75 l 0
 239 75 l 0
 239 131 l 0
295 75 m 0
 351 75 l 0
 351 20 l 0
 295 20 l 0
 295 75 l 0
351 20 m 0
 462 20 l 0
 462 -36 l 0x9fff9f8e10
 351 -36 l 0
 351 20 l 0
462 -36 m 0
 739 -36 l 0x9fff9fae10
 739 -91 l 0x5fff9f9e10
 462 -91 l 0x5fff9f8e10
 462 -36 l 0
739 20 m 0
 851 20 l 0
 851 -36 l 0
 739 -36 l 0
 739 20 l 0
851 75 m 0
 906 75 l 0
 906 20 l 0
 851 20 l 0
 851 75 l 0
906 131 m 0
 961 131 l 0
 961 75 l 0
 906 75 l 0
 906 131 l 0
906 242 m 0
 961 242 l 0
 961 186 l 0
 906 186 l 0
 906 242 l 0
851 298 m 0
 906 298 l 0
 906 242 l 0
 851 242 l 0
 851 298 l 0
739 353 m 0
 851 353 l 0
 851 298 l 0
 739 298 l 0
 739 353 l 0
1294 186 m 0
 1073 186 l 0
 1073 242 l 0x1fff9f8e90
 1294 242 l 0
 1294 186 l 0
1128 131 m 0
 128 131 l 0
 128 186 l 0
 1128 186 l 0x1fff9f8ed0
 1128 131 l 0
572 464 m 0
 628 464 l 0
 628 -36 l 0
 572 -36 l 0x9fff9f8e10
 572 464 l 0
128 -91 m 0x3fff9f8e10
 184 -91 l 0x5fff9f8e10
 184 -148 l 0
 128 -148 l 0
 128 -91 l 0x3fff9f8e10
1406 -203 m 0x5fff9f8e10
 184 -203 l 0
 184 -91 l 0
 1406 -91 l 0x5fff9f8e10
 1406 -203 l 0x5fff9f8e10
1406 -91 m 0x5fff9f8e10
 1294 -91 l 0
 1294 464 l 0
 1406 464 l 0x5fff9f8e10
 1406 -91 l 0x5fff9f8e10
1128 -91 m 0x5fff9f8e90
 1073 -91 l 0
 1073 131 l 0
 1128 131 l 0
 1128 -91 l 0x5fff9f8e90
1128 20 m 0
 1238 20 l 0
 1238 -36 l 0x1fff9f8ed0
 1128 -36 l 0
 1128 20 l 0
1183 131 m 0x1fff9f8e30
 1238 131 l 0
 1238 75 l 0
 1183 75 l 0
 1183 131 l 0x1fff9f8e30
EndSplineSet
Validated: 5
EndChar

StartChar: g
Encoding: 103 103 65
Width: 1534
Flags: W
HStem: -203 110<239 961 1017 1295> -148 111<127 183> -37 56<1184 1240> 19 56<183 239 294 405> 75 56<183 239 405 517 1184 1240> 131 54<239 294> 185 112<350 405 739 795> 185 57<405 517 684 739 795 851 1129 1295> 297 56<405 517> 353 55<517 628 739 795 906 961> 408 57<961 1073> 519 56<294 350 461 573 684 851 961 1073 1351 1407> 575 112<239 294 1295 1351> 630 57<183 239 461 573 1240 1295> 687 55<294 350 1351 1407> 742 55<183 294 461 573 684 851 1240 1351>
VStem: 127 56<-37 19 519 797> 183 56<75 131> 239 55<-37 19 575 630> 294 56<75 131 519 575 687 742> 350 55<242 297> 405 112<75 131 297 353> 405 56<519 797> 461 112<519 575 630 687 742 797> 517 111<131 185> 628 56<242 353 575 742> 684 167<519 575 742 797> 684 55<297 353> 739 56<242 297> 795 111<297 353> 851 55<131 185 242 297> 906 55<19 131 575 797> 961 112<408 465 519 575> 961 56<-93 19> 1073 56<-93 242 575 797> 1184 56<-37 19 75 131 519 797> 1240 111<630 687 742 797> 1295 56<575 630> 1351 56<519 575 687 742>
LayerCount: 2
Fore
SplineSet
127 797 m 0x3cf3f84132
 183 797 l 0
 183 519 l 0
 127 519 l 0
 127 797 l 0x3cf3f84132
183 797 m 0
 294 797 l 0
 294 742 l 0
 183 742 l 0
 183 797 l 0
294 742 m 0
 350 742 l 0
 350 687 l 0
 294 687 l 0x3cf3f84132
 294 742 l 0
183 687 m 0x3cf7f84132
 294 687 l 0x3cf3f84132
 294 630 l 0
 183 630 l 0
 183 687 l 0x3cf7f84132
239 630 m 0x3cf7f84132
 294 630 l 0
 294 575 l 0
 239 575 l 0
 239 630 l 0x3cf7f84132
294 575 m 0
 350 575 l 0
 350 519 l 0
 294 519 l 0
 294 575 l 0
405 797 m 0
 461 797 l 0x3cf3f84132
 461 519 l 0x3cf3f84132
 405 519 l 0
 405 797 l 0
461 797 m 0x3cf3f84132
 573 797 l 0
 573 742 l 0x3cf3f94132
 461 742 l 0x3cf3f84132
 461 797 l 0x3cf3f84132
461 687 m 0x3cf7f84132
 573 687 l 0
 573 630 l 0x3cf7f94132
 461 630 l 0x3cf7f84132
 461 687 l 0x3cf7f84132
461 575 m 0x3cf3f84132
 573 575 l 0
 573 519 l 0x3cf3f94132
 461 519 l 0x3cf3f84132
 461 575 l 0x3cf3f84132
684 797 m 0
 851 797 l 0x3cf3f84132
 851 742 l 0x3cf3f84132
 684 742 l 0
 684 797 l 0
684 575 m 0
 851 575 l 0x3cf3f84132
 851 519 l 0x3cf3f84132
 684 519 l 0
 684 575 l 0
628 742 m 0
 684 742 l 0
 684 575 l 0
 628 575 l 0
 628 742 l 0
906 797 m 0
 961 797 l 0
 961 575 l 0
 906 575 l 0
 906 797 l 0
1073 797 m 0
 1129 797 l 0
 1129 575 l 0
 1073 575 l 0x3cf3f84132
 1073 797 l 0
961 575 m 0
 1073 575 l 0x3cf3f84132
 1073 519 l 0x3cf3f84132
 961 519 l 0
 961 575 l 0
1184 797 m 0
 1240 797 l 0
 1240 519 l 0
 1184 519 l 0
 1184 797 l 0
1240 797 m 0
 1351 797 l 0x3cf3f84132
 1351 742 l 0x3cf3f84132
 1240 742 l 0
 1240 797 l 0
1240 687 m 0x3cf7f84132
 1351 687 l 0x3cf3f84132
 1351 630 l 0x3cf7f84132
 1240 630 l 0
 1240 687 l 0x3cf7f84132
1351 742 m 0x3cf3f84132
 1407 742 l 0
 1407 687 l 0
 1351 687 l 0x3cf3f84132
 1351 742 l 0x3cf3f84132
1295 630 m 0x3cf7f84136
 1351 630 l 0x3cf7f84132
 1351 575 l 0
 1295 575 l 0
 1295 630 l 0x3cf7f84136
1351 575 m 0x3cf3f84136
 1407 575 l 0
 1407 519 l 0
 1351 519 l 0
 1351 575 l 0x3cf3f84136
405 353 m 0
 517 353 l 0x3cf3f84132
 517 297 l 0x3cf3f84132
 405 297 l 0x3cf3f84132
 405 353 l 0
350 297 m 0x3cf3f84132
 405 297 l 0x3cf3f84132
 405 242 l 0x3cf3f84132
 350 242 l 0x3cf3f84132
 350 297 l 0x3cf3f84132
961 465 m 0
 1073 465 l 0x3cf3f84132
 1073 408 l 0x3cf3f84132
 961 408 l 0
 961 465 l 0
517 408 m 0x3cf3f8c132
 961 408 l 0
 961 353 l 0
 517 353 l 0x3cf3f84132
 517 408 l 0x3cf3f8c132
851 353 m 0x3cf3f84332
 906 353 l 0x3cf3f84532
 906 131 l 0
 851 131 l 0
 851 353 l 0x3cf3f84332
628 353 m 0
 684 353 l 0
 684 242 l 0x3cf3f84132
 628 242 l 0x3cf3f84132
 628 353 l 0
684 353 m 0
 739 353 l 0x3cf3f84132
 739 297 l 0x3cf3f84132
 684 297 l 0
 684 353 l 0
795 353 m 0x3cf3f84d32
 851 353 l 0
 851 297 l 0
 795 297 l 0x3cf3f84b32
 795 353 l 0x3cf3f84d32
739 297 m 0x3cf3f84132
 795 297 l 0x3cf3f84932
 795 242 l 0x3cf3f84932
 739 242 l 0x3cf3f84932
 739 297 l 0x3cf3f84132
851 185 m 0x3cf3f84332
 294 185 l 0
 294 242 l 0x3cf3f84132
 851 242 l 0x3cf3f84332
 851 185 l 0x3cf3f84332
517 185 m 0x3cf3f8c132
 628 185 l 0
 628 131 l 0x3cf3f8c132
 517 131 l 0x3cf3f84132
 517 185 l 0x3cf3f8c132
405 131 m 0
 517 131 l 0x3cf3f84132
 517 75 l 0x3cf3f84132
 405 75 l 0
 405 131 l 0
127 75 m 0
 405 75 l 0
 405 19 l 0
 127 19 l 0
 127 75 l 0
294 185 m 0
 350 185 l 0
 350 75 l 0
 294 75 l 0
 294 185 l 0
239 185 m 0
 294 185 l 0
 294 131 l 0
 239 131 l 0
 239 185 l 0
183 131 m 0
 239 131 l 0
 239 75 l 0
 183 75 l 0
 183 131 l 0
239 19 m 0
 294 19 l 0
 294 -37 l 0
 239 -37 l 0
 239 19 l 0
127 -37 m 0x7cf3f84132
 239 -37 l 0
 239 -148 l 0
 127 -148 l 0
 127 -37 l 0x7cf3f84132
127 19 m 0
 183 19 l 0
 183 -37 l 0
 127 -37 l 0
 127 19 l 0
906 131 m 0x3cf3f84332
 961 131 l 0
 961 19 l 0
 906 19 l 0
 906 131 l 0x3cf3f84332
961 19 m 0
 1017 19 l 0xbcf3f84132
 1017 -93 l 0xbcf3f84132
 961 -93 l 0xbcf3f84132
 961 19 l 0
1295 465 m 0x3cf3f84136
 1407 465 l 0
 1407 -203 l 0
 1295 -203 l 0xbcf3f84136
 1295 465 l 0x3cf3f84136
1295 -203 m 0
 239 -203 l 0
 239 -93 l 0
 1295 -93 l 0
 1295 -203 l 0
183 -148 m 0x7cf3f84132
 239 -148 l 0x7cf3f84132
 239 -203 l 0
 183 -203 l 0xbcf3f84132
 183 -148 l 0x7cf3f84132
1073 242 m 0x3cf3f84132
 1129 242 l 0x3cf3f84132
 1129 -93 l 0
 1073 -93 l 0xbcf3f84132
 1073 242 l 0x3cf3f84132
1129 242 m 0x3cf3f84136
 1295 242 l 0x3cf3f84136
 1295 185 l 0
 1129 185 l 0
 1129 242 l 0x3cf3f84136
1184 131 m 0
 1240 131 l 0
 1240 75 l 0
 1184 75 l 0
 1184 131 l 0
1184 19 m 0
 1240 19 l 0
 1240 -37 l 0
 1184 -37 l 0
 1184 19 l 0
EndSplineSet
Validated: 5
EndChar

StartChar: j
Encoding: 106 106 66
Width: 1851
Flags: W
LayerCount: 2
Fore
SplineSet
347 518 m 0
 347 573 l 0
 181 573 l 0
 181 628 l 0
 347 628 l 0
 347 683 l 0
 181 683 l 0
 181 739 l 0
 347 739 l 0
 347 794 l 0
 126 794 l 0
 126 518 l 0
 347 518 l 0
567 794 m 0
 457 794 l 0
 457 739 l 0
 567 739 l 0
 567 794 l 0
457 739 m 0
 402 739 l 0
 402 574 l 0
 457 574 l 0
 457 739 l 0
512 628 m 0
 512 573 l 0
 568 573 l 0
 568 628 l 0
 623 628 l 0
 623 739 l 0
 567 739 l 0
 567 628 l 0
 512 628 l 0
457 518 m 0
 513 518 l 0
 513 573 l 0
 457 573 l 0
 457 518 l 0
567 518 m 0
 623 518 l 0
 623 573 l 0
 567 573 l 0
 567 518 l 0
733 794 m 0
 678 794 l 0
 678 574 l 0
 733 574 l 0
 733 794 l 0
898 794 m 0
 843 794 l 0
 843 574 l 0
 898 574 l 0
 898 794 l 0
843 518 m 0
 843 574 l 0
 733 574 l 0
 733 518 l 0
 843 518 l 0
1008 628 m 0
 1118 628 l 0
 1118 518 l 0
 1173 518 l 0
 1173 739 l 0
 1118 739 l 0
 1118 683 l 0
 1008 683 l 0
 1008 739 l 0
 953 739 l 0
 953 518 l 0
 1008 518 l 0
 1008 628 l 0
1118 794 m 0
 1008 794 l 0
 1008 739 l 0
 1118 739 l 0
 1118 794 l 0
237 463 m 0
 237 408 l 0
 347 408 l 0
 347 463 l 0
 237 463 l 0
347 353 m 0
 237 353 l 0
 237 298 l 0
 181 298 l 0
 181 243 l 0
 237 243 l 0
 237 297 l 0
 347 297 l 0
 347 243 l 0
 237 243 l 0
 237 188 l 0
 402 188 l 0
 402 408 l 0
 347 408 l 0
 347 353 l 0
512 243 m 0
 457 243 l 0
 457 188 l 0
 512 188 l 0
 512 243 l 0
512 243 m 0
 567 243 l 0
 567 298 l 0
 622 298 l 0
 622 353 l 0
 678 353 l 0
 678 408 l 0
 733 408 l 0
 733 463 l 0
 678 463 l 0
 678 408 l 0
 622 408 l 0
 622 353 l 0
 567 353 l 0
 567 298 l 0
 512 298 l 0
 512 243 l 0
457 408 m 0
 512 408 l 0
 512 463 l 0
 457 463 l 0
 457 408 l 0
512 353 m 0
 567 353 l 0
 567 408 l 0
 512 408 l 0
 512 353 l 0
733 243 m 0
 678 243 l 0
 678 298 l 0
 622 298 l 0
 622 243 l 0
 678 243 l 0
 678 188 l 0
 733 188 l 0
 733 243 l 0
954 463 m 0
 898 463 l 0
 898 408 l 0
 954 408 l 0
 954 463 l 0
843 463 m 0
 787 463 l 0
 787 298 l 0
 843 298 l 0
 843 353 l 0
 898 353 l 0
 898 408 l 0
 843 408 l 0
 843 463 l 0
1008 298 m 0
 1008 408 l 0
 954 408 l 0
 954 298 l 0
 1008 298 l 0
1173 243 m 0
 1173 298 l 0
 1229 298 l 0
 1229 353 l 0
 1173 353 l 0
 1173 408 l 0
 1118 408 l 0
 1118 353 l 0
 1063 353 l 0
 1063 298 l 0
 1118 298 l 0
 1118 243 l 0
 1173 243 l 0
181 22 m 0
 237 22 l 0
 237 77 l 0
 181 77 l 0
 181 22 l 0
292 22 m 0
 348 22 l 0
 348 77 l 0
 292 77 l 0
 292 22 l 0
402 22 m 0
 457 22 l 0
 457 77 l 0
 402 77 l 0
 402 22 l 0
678 22 m 0
 512 22 l 0
 512 -33 l 0
 678 -33 l 0
 678 22 l 0
678 132 m 0
 512 132 l 0
 512 78 l 0
 678 78 l 0
 678 132 l 0
953 188 m 0
 843 188 l 0
 843 133 l 0
 953 133 l 0
 953 188 l 0
953 -88 m 0
 953 -33 l 0
 843 -33 l 0
 843 -88 l 0
 953 -88 l 0
787 133 m 0
 787 -33 l 0
 843 -33 l 0
 843 133 l 0
 787 133 l 0
1008 -33 m 0
 1008 133 l 0
 953 133 l 0
 953 -33 l 0
 1008 -33 l 0
1670 794 m 0
 1670 188 l 0
 1339 188 l 0
 1339 -143 l 0
 126 -143 l 0
 126 -198 l 0
 1725 -198 l 0
 1725 794 l 0
 1670 794 l 0
1615 -143 m 0
 1615 -32 l 0
 1450 -32 l 0
 1450 -143 l 0
 1394 -143 l 0
 1394 78 l 0
 1450 78 l 0
 1450 134 l 0
 1615 134 l 0
 1615 78 l 0
 1670 78 l 0
 1670 -143 l 0
 1615 -143 l 0
1615 24 m 0
 1615 78 l 0
 1450 78 l 0
 1450 24 l 0
 1615 24 l 0
EndSplineSet
Validated: 5
EndChar

StartChar: m
Encoding: 109 109 67
Width: 1534
Flags: W
HStem: -199 111<240 351 406 462 517 573 628 684 740 796 851 962 1129 1295> -145 57<128 184> -89 1<796 851> -88 55<1240 1295> -33 55<240 295 406 461 518 573 628 684 740 795 851 906 1018 1073 1184 1240> 22 57<1240 1295> 79 55<406 850 1184 1240> 134 111<740 850 1240 1295> 190 55<406 740 1184 1240> 245 111<740 795> 300 56<461 518 573 628 684 740 795 850> 412 55<351 1073> 523 56<573 628 740 906> 579 111<518 573 850 906> 634 56<128 295 461 518 795 850 1073 1129> 690 55<295 351 573 628 1018 1073 1129 1184> 745 56<184 295 461 573 740 906>
VStem: 128 56<523 634 690 745> 184 56<-88 -33> 239 56<-33 22> 295 56<22 412 690 745> 351 55<-88 -33> 406 55<-33 22 134 190 245 300 523 801> 462 55<-88 -33> 518 55<-33 22 79 300 579 634> 573 55<-88 -33 523 579 690 745> 628 56<-33 22 79 300> 684 56<-88 -33 579 745> 740 55<-33 22 245 300> 796 55<-89 -34> 850 56<-33 22 579 634> 962 56<523 801> 1018 55<-32 22 690 745> 1073 56<-88 412 634 690> 1129 55<190 356> 1184 111<190 245> 1184 56<-33 22 79 134 523 690 745 801> 1240 166<-88 -33 22 79 134 190> 1295 111<-33 22 79 134 190 745> 1295 56<745 801>
LayerCount: 2
Fore
SplineSet
128 801 m 0x1e19cff9e0
 295 801 l 0
 295 745 l 0
 128 745 l 0
 128 801 l 0x1e19cff9e0
128 690 m 0x1e1bcff9e0
 295 690 l 0
 295 634 l 0
 128 634 l 0
 128 690 l 0x1e1bcff9e0
128 745 m 0
 184 745 l 0
 184 523 l 0
 128 523 l 0
 128 745 l 0
295 745 m 0
 351 745 l 0
 351 690 l 0
 295 690 l 0
 295 745 l 0
406 801 m 0
 461 801 l 0
 461 523 l 0
 406 523 l 0
 406 801 l 0
461 801 m 0
 573 801 l 0
 573 745 l 0
 461 745 l 0
 461 801 l 0
461 690 m 0
 573 690 l 0x1e19cff9e0
 573 634 l 0
 461 634 l 0
 461 690 l 0
573 745 m 0
 628 745 l 0
 628 690 l 0
 573 690 l 0x1e19cff9e0
 573 745 l 0
518 634 m 0x1e1bcff9e0
 573 634 l 0
 573 579 l 0
 518 579 l 0
 518 634 l 0x1e1bcff9e0
573 579 m 0
 628 579 l 0
 628 523 l 0
 573 523 l 0
 573 579 l 0
684 745 m 0
 740 745 l 0
 740 579 l 0
 684 579 l 0
 684 745 l 0
740 801 m 0
 906 801 l 0
 906 745 l 0x1e19cffbe0
 740 745 l 0
 740 801 l 0
740 579 m 0
 906 579 l 0
 906 523 l 0
 740 523 l 0
 740 579 l 0
795 690 m 0x1e1bcff9e0
 906 690 l 0x1e19cffbe0
 906 634 l 0x1e1bcffbe0
 795 634 l 0
 795 690 l 0x1e1bcff9e0
850 634 m 0x1e1bcffbe0
 906 634 l 0
 906 579 l 0
 850 579 l 0
 850 634 l 0x1e1bcffbe0
962 801 m 0
 1018 801 l 0
 1018 523 l 0
 962 523 l 0
 962 801 l 0
1184 801 m 0
 1240 801 l 0x1e19cff9e0
 1240 523 l 0x1e19cff9e0
 1184 523 l 0
 1184 801 l 0
1073 690 m 0x1e1bcff9e0
 1129 690 l 0
 1129 634 l 0
 1073 634 l 0
 1073 690 l 0x1e1bcff9e0
1018 745 m 0
 1073 745 l 0
 1073 690 l 0
 1018 690 l 0
 1018 745 l 0
1129 745 m 0
 1184 745 l 0
 1184 690 l 0
 1129 690 l 0
 1129 745 l 0
351 467 m 0
 1073 467 l 0
 1073 412 l 0
 351 412 l 0
 351 467 l 0
295 412 m 0
 351 412 l 0
 351 22 l 0
 295 22 l 0x1e19dff9e0
 295 412 l 0
239 22 m 0
 295 22 l 0
 295 -33 l 0
 239 -33 l 0
 239 22 l 0
184 -33 m 0
 240 -33 l 0x5e19cff9e0
 240 -88 l 0x9e19cff9e0
 184 -88 l 0x5e19cff9e0
 184 -33 l 0
351 -33 m 0
 406 -33 l 0
 406 -88 l 0
 351 -88 l 0x9e19cff9e0
 351 -33 l 0
406 22 m 0
 461 22 l 0
 461 -33 l 0
 406 -33 l 0
 406 22 l 0
462 -33 m 0
 517 -33 l 0
 517 -88 l 0
 462 -88 l 0
 462 -33 l 0
518 22 m 0
 573 22 l 0
 573 -33 l 0
 518 -33 l 0
 518 22 l 0
573 -33 m 0
 628 -33 l 0
 628 -88 l 0
 573 -88 l 0
 573 -33 l 0
628 22 m 0
 684 22 l 0
 684 -33 l 0
 628 -33 l 0
 628 22 l 0
684 -33 m 0
 740 -33 l 0
 740 -88 l 0
 684 -88 l 0
 684 -33 l 0
740 22 m 0
 795 22 l 0
 795 -33 l 0
 740 -33 l 0
 740 22 l 0
796 -34 m 0x3e19cffde0
 851 -34 l 0
 851 -89 l 0
 796 -89 l 0
 796 -34 l 0x3e19cffde0
851 22 m 0
 906 22 l 0
 906 -33 l 0x1e19cffbe0
 851 -33 l 0
 851 22 l 0
1018 22 m 0
 1073 22 l 0
 1073 -32 l 0
 1018 -32 l 0
 1018 22 l 0
1073 -88 m 0
 962 -88 l 0x9e19cff9e0
 962 -33 l 0
 1073 -33 l 0
 1073 -88 l 0
850 356 m 0x1e39cffbe0
 1018 356 l 0
 1018 79 l 0
 850 79 l 0
 850 356 l 0x1e39cffbe0
850 300 m 0
 406 300 l 0
 406 356 l 0
 850 356 l 0
 850 300 l 0
850 190 m 0x1e99cffbe0
 406 190 l 0
 406 245 l 0x1e99cff9e0
 850 245 l 0x1e19cffbe0
 850 190 l 0x1e99cffbe0
850 79 m 0x1e19cffbe0
 406 79 l 0
 406 134 l 0
 850 134 l 0
 850 79 l 0x1e19cffbe0
406 300 m 0x1e39cff9e0
 461 300 l 0
 461 79 l 0
 406 79 l 0
 406 300 l 0x1e39cff9e0
518 300 m 0
 573 300 l 0
 573 79 l 0
 518 79 l 0
 518 300 l 0
628 300 m 0
 684 300 l 0
 684 79 l 0
 628 79 l 0
 628 300 l 0
850 134 m 0x1e19cffbe0
 740 134 l 0
 740 190 l 0
 850 190 l 0x1e99cffbe0
 850 134 l 0x1e19cffbe0
740 300 m 0x1e39cff9e0
 795 300 l 0x1e39cff9e0
 795 245 l 0x1e19cff9e0
 740 245 l 0x1e19cff9e0
 740 300 l 0x1e39cff9e0
1073 412 m 0
 1129 412 l 0
 1129 -88 l 0x9e19cff9e0
 1073 -88 l 0
 1073 412 l 0
1184 190 m 0x1eb9cff9e0
 1129 190 l 0
 1129 356 l 0
 1184 356 l 0
 1184 190 l 0x1eb9cff9e0
1295 190 m 0x1e99cff9e0
 1184 190 l 0
 1184 245 l 0x1e99cff9e0
 1295 245 l 0x1e19cff9e0
 1295 190 l 0x1e99cff9e0
1406 -199 m 0x9e19cff9e2
 1351 -199 l 0
 1351 745 l 0x9e19cff9e1
 1406 745 l 0
 1406 -199 l 0x9e19cff9e2
1351 -199 m 0
 1295 -199 l 0
 1295 801 l 0
 1351 801 l 0
 1351 -199 l 0
1295 -145 m 0x5e19cff9e1
 128 -145 l 0
 128 -88 l 0x5e19cff9e1
 1295 -88 l 0x9e19cff9e1
 1295 -145 l 0x5e19cff9e1
1295 -199 m 0x9e19cff9e1
 184 -199 l 0x9e19cff9e1
 184 -145 l 0
 1295 -145 l 0x5e19cff9e1
 1295 -199 l 0x9e19cff9e1
1240 190 m 0x1e99cff9e4
 1295 190 l 0x1e99cff9e0
 1295 134 l 0x1e19cff9e2
 1240 134 l 0x1e19cff9e0
 1240 190 l 0x1e99cff9e4
1184 134 m 0
 1240 134 l 0x1e19cff9e0
 1240 79 l 0x1e19cff9e0
 1184 79 l 0
 1184 134 l 0
1240 79 m 0x1e19cff9e0
 1295 79 l 0
 1295 22 l 0x1e19cff9e2
 1240 22 l 0x1e19cff9e0
 1240 79 l 0x1e19cff9e0
1184 22 m 0
 1240 22 l 0x1e19cff9e0
 1240 -33 l 0x1e19cff9e0
 1184 -33 l 0
 1184 22 l 0
1240 -33 m 0x9e19cff9e0
 1295 -33 l 0x9e19cff9e2
 1295 -88 l 0x9e19cff9e1
 1240 -88 l 0x9e19cff9e4
 1240 -33 l 0x9e19cff9e0
EndSplineSet
Validated: 5
EndChar

StartChar: n
Encoding: 110 110 68
Width: 1855
Flags: W
LayerCount: 2
Fore
SplineSet
239 520 m 0
 294 520 l 0
 294 740 l 0
 405 740 l 0
 405 796 l 0
 129 796 l 0
 129 740 l 0
 239 740 l 0
 239 520 l 0
515 575 m 0
 570 575 l 0
 570 630 l 0
 515 630 l 0
 515 796 l 0
 459 796 l 0
 459 629 l 0
 515 629 l 0
 515 575 l 0
625 575 m 0
 570 575 l 0
 570 520 l 0
 625 520 l 0
 625 575 l 0
680 629 m 0
 736 629 l 0
 736 796 l 0
 680 796 l 0
 680 630 l 0
 625 630 l 0
 625 575 l 0
 680 575 l 0
 680 629 l 0
845 685 m 0
 900 685 l 0
 900 740 l 0
 845 740 l 0
 845 795 l 0
 790 795 l 0
 790 519 l 0
 845 519 l 0
 845 685 l 0
1010 519 m 0
 1066 519 l 0
 1066 795 l 0
 1010 795 l 0
 1010 740 l 0
 955 740 l 0
 955 685 l 0
 1010 685 l 0
 1010 519 l 0
955 685 m 0
 900 685 l 0
 900 630 l 0
 955 630 l 0
 955 685 l 0
459 134 m 0
 459 189 l 0
 350 189 l 0
 350 244 l 0
 294 244 l 0
 294 299 l 0
 239 299 l 0
 239 244 l 0
 294 244 l 0
 294 189 l 0
 184 189 l 0
 184 134 l 0
 294 134 l 0
 294 80 l 0
 184 80 l 0
 184 24 l 0
 294 24 l 0
 294 -31 l 0
 350 -31 l 0
 350 24 l 0
 459 24 l 0
 459 80 l 0
 350 80 l 0
 350 134 l 0
 459 134 l 0
239 355 m 0
 184 355 l 0
 184 299 l 0
 239 299 l 0
 239 355 l 0
350 300 m 0
 350 244 l 0
 405 244 l 0
 405 300 l 0
 350 300 l 0
460 355 m 0
 405 355 l 0
 405 300 l 0
 460 300 l 0
 460 355 l 0
680 355 m 0
 625 355 l 0
 625 299 l 0
 570 299 l 0
 570 244 l 0
 515 244 l 0
 515 189 l 0
 570 189 l 0
 570 134 l 0
 625 134 l 0
 625 80 l 0
 515 80 l 0
 515 24 l 0
 625 24 l 0
 625 -31 l 0
 680 -31 l 0
 680 24 l 0
 735 24 l 0
 735 80 l 0
 680 80 l 0
 680 134 l 0
 735 134 l 0
 735 189 l 0
 680 189 l 0
 680 244 l 0
 790 244 l 0
 790 299 l 0
 680 299 l 0
 680 355 l 0
625 189 m 0
 570 189 l 0
 570 244 l 0
 625 244 l 0
 625 189 l 0
735 79 m 0
 790 79 l 0
 790 134 l 0
 735 134 l 0
 735 79 l 0
1010 409 m 0
 1010 465 l 0
 845 465 l 0
 845 189 l 0
 900 189 l 0
 900 299 l 0
 1010 299 l 0
 1010 355 l 0
 900 355 l 0
 900 409 l 0
 1010 409 l 0
1066 189 m 0
 1121 189 l 0
 1121 299 l 0
 1231 299 l 0
 1231 355 l 0
 1121 355 l 0
 1121 409 l 0
 1231 409 l 0
 1231 465 l 0
 1066 465 l 0
 1066 189 l 0
1671 795 m 0
 1671 190 l 0
 1340 190 l 0
 1340 -141 l 0
 129 -141 l 0
 129 -196 l 0
 1726 -196 l 0
 1726 795 l 0
 1671 795 l 0
1451 -141 m 0
 1451 -85 l 0
 1396 -85 l 0
 1396 81 l 0
 1451 81 l 0
 1451 135 l 0
 1671 135 l 0
 1671 81 l 0
 1451 81 l 0
 1451 -85 l 0
 1671 -85 l 0
 1671 -141 l 0
 1451 -141 l 0
EndSplineSet
Validated: 5
EndChar

StartChar: p
Encoding: 112 112 69
Width: 1855
Flags: W
HStem: -151 21G<1397 1617> 13 55<293 349 404 460 954 1010 1065 1121> 69 55<735 790> 124 55<293 349 404 460 954 1010 1065 1121> 234 111<293 459 954 1120> 234 56<625 680>
VStem: 293 56<13 68 124 179> 404 56<13 69 124 179> 625 55<234 290> 680 55<124 234> 735 55<69 124> 954 56<13 68 124 179> 1066 55<13 69 124 179>
LayerCount: 2
Fore
SplineSet
184 565 m 0xf3f8
 184 785 l 0
 128 785 l 0
 128 510 l 0
 349 510 l 0
 349 565 l 0
 184 565 l 0xf3f8
514 565 m 0
 514 730 l 0
 570 730 l 0
 570 785 l 0
 404 785 l 0
 404 730 l 0
 459 730 l 0
 459 565 l 0
 404 565 l 0
 404 510 l 0
 570 510 l 0
 570 565 l 0
 514 565 l 0
680 785 m 0
 625 785 l 0
 625 510 l 0
 680 510 l 0
 680 675 l 0
 735 675 l 0
 735 730 l 0
 680 730 l 0
 680 785 l 0
790 785 m 0
 790 676 l 0
 735 676 l 0
 735 620 l 0
 790 620 l 0
 790 510 l 0
 845 510 l 0
 845 785 l 0
 790 785 l 0
1066 675 m 0
 1066 730 l 0
 1011 730 l 0
 1011 675 l 0
 956 675 l 0
 956 785 l 0
 900 785 l 0
 900 510 l 0
 956 510 l 0
 956 620 l 0
 1011 620 l 0
 1011 675 l 0
 1066 675 l 0
1011 620 m 0
 1011 565 l 0
 1066 565 l 0
 1066 620 l 0
 1011 620 l 0
1121 786 m 0
 1066 786 l 0
 1066 730 l 0
 1121 730 l 0
 1121 786 l 0
1066 565 m 0
 1066 510 l 0
 1121 510 l 0
 1121 565 l 0
 1066 565 l 0
293 345 m 0xfbf8
 459 345 l 0
 459 234 l 0
 293 234 l 0
 293 345 l 0xfbf8
293 179 m 0
 349 179 l 0
 349 124 l 0
 293 124 l 0
 293 179 l 0
404 179 m 0
 460 179 l 0
 460 124 l 0
 404 124 l 0
 404 179 l 0
293 68 m 0
 349 68 l 0
 349 13 l 0
 293 13 l 0
 293 68 l 0
404 69 m 0
 460 69 l 0
 460 13 l 0
 404 13 l 0
 404 69 l 0
954 345 m 0
 1120 345 l 0
 1120 234 l 0
 954 234 l 0
 954 345 l 0
954 179 m 0
 1010 179 l 0
 1010 124 l 0
 954 124 l 0
 954 179 l 0
1065 179 m 0
 1121 179 l 0
 1121 124 l 0
 1065 124 l 0
 1065 179 l 0
954 68 m 0
 1010 68 l 0
 1010 13 l 0
 954 13 l 0
 954 68 l 0
1065 69 m 0
 1121 69 l 0
 1121 13 l 0
 1065 13 l 0
 1065 69 l 0
625 234 m 0xf7f8
 570 234 l 0
 570 455 l 0
 184 455 l 0
 183 -97 l 0
 570 -97 l 0
 570 124 l 0
 625 124 l 0
 625 234 l 0xf7f8
239 400 m 0
 514 400 l 0
 514 -42 l 0
 239 -42 l 0
 239 400 l 0
680 234 m 0
 735 234 l 0
 735 124 l 0
 680 124 l 0
 680 234 l 0
1231 455 m 0
 845 455 l 0
 845 234 l 0
 790 234 l 0
 790 124 l 0
 845 124 l 0
 845 -97 l 0
 1231 -97 l 0
 1231 455 l 0
900 400 m 0
 1175 400 l 0
 1175 -42 l 0
 900 -42 l 0
 900 400 l 0
625 290 m 0
 680 290 l 0
 680 234 l 0
 625 234 l 0
 625 290 l 0
735 124 m 0
 790 124 l 0
 790 69 l 0
 735 69 l 0
 735 124 l 0
1673 785 m 0
 1673 179 l 0
 1342 179 l 0
 1342 -151 l 0
 128 -151 l 0
 128 -206 l 0
 1727 -206 l 0
 1727 785 l 0
 1673 785 l 0
1397 124 m 0
 1617 124 l 0
 1617 69 l 0
 1673 69 l 0
 1673 -97 l 0
 1617 -97 l 0
 1617 -151 l 0
 1397 -151 l 0
 1397 124 l 0
1617 69 m 0
 1452 69 l 0
 1452 -97 l 0
 1617 -97 l 0
 1617 69 l 0
EndSplineSet
Validated: 5
EndChar

StartChar: r
Encoding: 114 114 70
Width: 1855
Flags: W
LayerCount: 2
Fore
SplineSet
183 790 m 0
 129 790 l 0
 129 515 l 0
 183 515 l 0
 183 679 l 0
 239 679 l 0
 239 735 l 0
 183 735 l 0
 183 790 l 0
350 790 m 0
 350 734 l 0
 294 734 l 0
 294 679 l 0
 350 679 l 0
 350 515 l 0
 404 515 l 0
 404 790 l 0
 350 790 l 0
239 624 m 0
 295 624 l 0
 295 679 l 0
 239 679 l 0
 239 624 l 0
734 790 m 0
 680 790 l 0
 680 515 l 0
 734 515 l 0
 734 679 l 0
 790 679 l 0
 790 735 l 0
 734 735 l 0
 734 790 l 0
901 790 m 0
 901 734 l 0
 845 734 l 0
 845 679 l 0
 901 679 l 0
 901 515 l 0
 955 515 l 0
 955 790 l 0
 901 790 l 0
790 624 m 0
 846 624 l 0
 846 679 l 0
 790 679 l 0
 790 624 l 0
625 735 m 0
 625 790 l 0
 460 790 l 0
 460 515 l 0
 625 514 l 0
 625 570 l 0
 515 570 l 0
 515 624 l 0
 625 624 l 0
 625 680 l 0
 515 680 l 0
 515 735 l 0
 625 735 l 0
1010 735 m 0
 1010 569 l 0
 1065 569 l 0
 1065 735 l 0
 1010 735 l 0
1121 735 m 0
 1121 569 l 0
 1175 569 l 0
 1175 735 l 0
 1121 735 l 0
1065 515 m 0
 1121 515 l 0
 1121 569 l 0
 1065 569 l 0
 1065 515 l 0
1121 789 m 0
 1065 789 l 0
 1065 735 l 0
 1121 735 l 0
 1121 789 l 0
1341 514 m 0
 1396 514 l 0
 1396 624 l 0
 1341 624 l 0
 1341 514 l 0
1341 735 m 0
 1341 679 l 0
 1286 679 l 0
 1286 735 l 0
 1341 735 l 0
 1341 790 l 0
 1231 790 l 0
 1231 514 l 0
 1286 514 l 0
 1286 624 l 0
 1341 624 l 0
 1341 679 l 0
 1396 679 l 0
 1396 735 l 0
 1341 735 l 0
1451 790 m 0
 1451 624 l 0
 1506 624 l 0
 1506 790 l 0
 1451 790 l 0
1562 790 m 0
 1562 624 l 0
 1617 624 l 0
 1617 790 l 0
 1562 790 l 0
1506 514 m 0
 1561 514 l 0
 1561 624 l 0
 1506 624 l 0
 1506 514 l 0
404 129 m 0
 404 239 l 0
 129 239 l 0
 129 -37 l 0
 183 -37 l 0
 183 -92 l 0
 460 -92 l 0
 460 129 l 0
 404 129 l 0
183 183 m 0
 349 183 l 0
 349 18 l 0
 183 18 l 0
 183 183 l 0
679 293 m 0
 679 348 l 0
 900 348 l 0
 900 459 l 0
 625 459 l 0
 625 404 l 0
 570 404 l 0
 570 348 l 0
 515 348 l 0
 515 404 l 0
 460 404 l 0
 460 183 l 0
 679 183 l 0
 679 238 l 0
 625 238 l 0
 625 293 l 0
 679 293 l 0
735 183 m 0
 735 128 l 0
 790 128 l 0
 790 73 l 0
 735 73 l 0
 735 18 l 0
 515 18 l 0
 515 -92 l 0
 790 -92 l 0
 790 -37 l 0
 845 -37 l 0
 845 18 l 0
 900 18 l 0
 900 -37 l 0
 955 -37 l 0
 955 183 l 0
 735 183 l 0
1231 348 m 0
 1231 404 l 0
 1175 404 l 0
 1175 239 l 0
 1010 239 l 0
 1010 184 l 0
 1065 184 l 0
 1065 129 l 0
 1231 129 l 0
 1231 184 l 0
 1286 184 l 0
 1286 348 l 0
 1231 348 l 0
955 404 m 0
 955 239 l 0
 1010 239 l 0
 1010 404 l 0
 955 404 l 0
1175 459 m 0
 1010 459 l 0
 1010 404 l 0
 1175 404 l 0
 1175 459 l 0
1671 790 m 0
 1671 184 l 0
 1340 184 l 0
 1340 -147 l 0
 129 -147 l 0
 129 -202 l 0
 1726 -202 l 0
 1726 790 l 0
 1671 790 l 0
1395 -147 m 0
 1395 128 l 0
 1671 128 l 0
 1671 73 l 0
 1451 73 l 0
 1451 18 l 0
 1615 18 l 0
 1615 -37 l 0
 1451 -37 l 0
 1451 -92 l 0
 1671 -92 l 0
 1671 -147 l 0
 1395 -147 l 0
EndSplineSet
Validated: 5
EndChar

StartChar: f
Encoding: 102 102 71
Width: 1851
Flags: W
LayerCount: 2
Fore
SplineSet
181 627 m 0
 236 627 l 0
 236 571 l 0
 291 571 l 0
 291 682 l 0
 181 682 l 0
 181 737 l 0
 291 737 l 0
 291 792 l 0
 125 792 l 0
 125 516 l 0
 181 516 l 0
 181 627 l 0
347 682 m 0
 347 737 l 0
 291 737 l 0
 291 682 l 0
 347 682 l 0
291 516 m 0
 347 516 l 0
 347 571 l 0
 291 571 l 0
 291 516 l 0
1284 627 m 0
 1340 627 l 0
 1340 571 l 0
 1395 571 l 0
 1395 682 l 0
 1284 682 l 0
 1284 737 l 0
 1395 737 l 0
 1395 792 l 0
 1229 792 l 0
 1229 516 l 0
 1284 516 l 0
 1284 627 l 0
1451 682 m 0
 1451 737 l 0
 1395 737 l 0
 1395 682 l 0
 1451 682 l 0
1395 516 m 0
 1451 516 l 0
 1451 571 l 0
 1395 571 l 0
 1395 516 l 0
622 571 m 0
 457 571 l 0
 457 627 l 0
 622 627 l 0
 622 682 l 0
 457 682 l 0
 457 737 l 0
 622 737 l 0
 622 792 l 0
 401 792 l 0
 401 516 l 0
 622 516 l 0
 622 571 l 0
898 792 m 0
 732 792 l 0
 732 737 l 0
 898 737 l 0
 898 792 l 0
898 516 m 0
 898 571 l 0
 732 571 l 0
 732 516 l 0
 898 516 l 0
732 737 m 0
 677 737 l 0
 677 571 l 0
 732 571 l 0
 732 737 l 0
1008 792 m 0
 953 792 l 0
 953 572 l 0
 1008 572 l 0
 1008 792 l 0
1174 792 m 0
 1119 792 l 0
 1119 572 l 0
 1174 572 l 0
 1174 792 l 0
1118 516 m 0
 1118 572 l 0
 1008 572 l 0
 1008 516 l 0
 1118 516 l 0
347 130 m 0
 291 130 l 0
 291 20 l 0
 347 20 l 0
 347 130 l 0
401 186 m 0
 347 186 l 0
 347 130 l 0
 401 130 l 0
 401 186 l 0
511 240 m 0
 401 240 l 0
 401 186 l 0
 511 186 l 0
 511 240 l 0
677 -91 m 0
 733 -91 l 0
 733 -35 l 0
 677 -35 l 0
 677 -91 l 0
1229 406 m 0
 1284 406 l 0
 1284 462 l 0
 1229 462 l 0
 1229 406 l 0
 1174 406 l 0
 1174 351 l 0
 1229 351 l 0
 1229 406 l 0
1229 -91 m 0
 1229 20 l 0
 1174 20 l 0
 1174 -91 l 0
 1229 -91 l 0
1671 792 m 0
 1671 185 l 0
 1340 185 l 0
 1340 -146 l 0
 1284 -146 l 0
 1284 -91 l 0
 1229 -91 l 0
 1229 -146 l 0
 677 -146 l 0
 677 -91 l 0
 622 -91 l 0
 622 -146 l 0
 401 -146 l 0
 401 -34 l 0
 677 -34 l 0
 677 296 l 0
 787 296 l 0
 787 20 l 0
 732 20 l 0
 732 -35 l 0
 788 -35 l 0
 788 20 l 0
 843 20 l 0
 843 75 l 0
 1118 75 l 0
 1118 20 l 0
 1174 20 l 0
 1174 351 l 0
 622 351 l 0
 622 297 l 0
 511 297 l 0
 511 240 l 0
 622 240 l 0
 622 19 l 0
 347 19 l 0
 347 -146 l 0
 291 -146 l 0
 291 20 l 0
 236 20 l 0
 236 -146 l 0
 125 -146 l 0
 125 -200 l 0
 1726 -200 l 0
 1726 792 l 0
 1671 792 l 0
1009 240 m 0
 1063 240 l 0
 1063 296 l 0
 1118 296 l 0
 1118 130 l 0
 1063 130 l 0
 1063 186 l 0
 1009 186 l 0
 1009 240 l 0
843 296 m 0
 898 296 l 0
 898 240 l 0
 953 240 l 0
 953 296 l 0
 1008 296 l 0
 1008 240 l 0
 953 240 l 0
 953 185 l 0
 1008 185 l 0
 1008 130 l 0
 953 130 l 0
 953 185 l 0
 898 185 l 0
 898 130 l 0
 843 130 l 0
 843 296 l 0
1396 74 m 0
 1451 74 l 0
 1451 20 l 0
 1396 20 l 0
 1396 74 l 0
1671 20 m 0
 1616 20 l 0
 1616 -35 l 0
 1671 -35 l 0
 1671 -90 l 0
 1616 -90 l 0
 1616 -146 l 0
 1451 -146 l 0
 1451 -91 l 0
 1616 -91 l 0
 1616 -35 l 0
 1451 -35 l 0
 1451 -90 l 0
 1396 -90 l 0
 1396 -35 l 0
 1451 -35 l 0
 1451 20 l 0
 1616 20 l 0
 1616 75 l 0
 1451 75 l 0
 1451 131 l 0
 1616 131 l 0
 1616 74 l 0
 1671 74 l 0
 1671 20 l 0
EndSplineSet
Validated: 5
EndChar

StartChar: k
Encoding: 107 107 72
Width: 1539
Flags: W
HStem: -199 111<187 1297> -144 56<130 187> -88 112<1186 1243> -33 57<520 687 853 964> 24 166<798 853 964 1020> 24 55<187 242 298 354 409 465> 79 56<520 687 1186 1243> 135 110<1131 1186 1243 1297> 190 55<187 298 409 464 631 686 853 964 1186 1243> 245 57<130 187 464 520 576 631> 302 55<187 298 520 575> 357 56<464 520 576 632 798 853 1020 1186> 413 55<187 298 409 464 630 686 853 909> 523 56<130 353 464 520 575 630 742 853> 579 55<520 575> 634 111<575 630> 634 56<130 353 1020 1131> 745 56<130 353 464 575 1020 1131>
VStem: 130 57<245 302 579 634 690 745> 187 111<413 468> 187 55<24 79> 298 55<24 79 245 302 357 413> 409 55<24 79 190 245 413 468 579 745> 464 56<245 301 357 413 523 579> 520 55<301 356 579 634> 575 55<245 301 357 412 523 579 634 745> 631 55<189 245 412 468> 687 55<579 801> 742 56<302 468> 798 55<24 190 357 413> 853 56<413 468 579 801> 909 55<302 413> 964 56<24 190 523 745> 1020 111<745 801> 1075 56<-88 190 302 468> 1131 55<135 190 523 634 690 745> 1186 57<-88 24 79 135> 1243 110<135 190> 1297 56<-88 135 245 801> 1353 56<-199 745>
LayerCount: 2
Fore
SplineSet
130 801 m 0x007e67ff99
 353 801 l 0
 353 745 l 0
 130 745 l 0
 130 801 l 0x007e67ff99
130 690 m 0x007e67ff99
 353 690 l 0x007e67ff99
 353 634 l 0
 130 634 l 0
 130 690 l 0x007e67ff99
130 579 m 0
 353 579 l 0
 353 523 l 0
 130 523 l 0
 130 579 l 0
130 801 m 0
 187 801 l 0
 187 523 l 0
 130 523 l 0
 130 801 l 0
409 745 m 0
 464 745 l 0
 464 579 l 0
 409 579 l 0
 409 745 l 0
464 801 m 0
 575 801 l 0
 575 745 l 0x007e67ff99
 464 745 l 0
 464 801 l 0
575 745 m 0x007e67ff99
 630 745 l 0x007e67ff99
 630 634 l 0
 575 634 l 0
 575 745 l 0x007e67ff99
520 634 m 0
 575 634 l 0
 575 579 l 0
 520 579 l 0
 520 634 l 0
464 579 m 0
 520 579 l 0
 520 523 l 0
 464 523 l 0
 464 579 l 0
575 579 m 0
 630 579 l 0
 630 523 l 0
 575 523 l 0
 575 579 l 0
687 801 m 0
 742 801 l 0
 742 579 l 0
 687 579 l 0
 687 801 l 0
853 801 m 0
 909 801 l 0
 909 579 l 0
 853 579 l 0
 853 801 l 0
742 579 m 0
 853 579 l 0
 853 523 l 0
 742 523 l 0
 742 579 l 0
964 745 m 0
 1020 745 l 0
 1020 523 l 0
 964 523 l 0
 964 745 l 0
1131 745 m 0x007e67ff99
 1186 745 l 0
 1186 523 l 0
 1131 523 l 0
 1131 745 l 0x007e67ff99
1020 690 m 0x007e67ff99
 1131 690 l 0x007e67ff99
 1131 634 l 0
 1020 634 l 0
 1020 690 l 0x007e67ff99
1020 801 m 0
 1131 801 l 0x007e67ff99
 1131 745 l 0x007e67ff99
 1020 745 l 0
 1020 801 l 0
187 468 m 0
 298 468 l 0x007e67ff99
 298 413 l 0x007e67ff99
 187 413 l 0
 187 468 l 0
298 413 m 0x007e67ff99
 353 413 l 0
 353 190 l 0
 298 190 l 0x00fe67ff99
 298 413 l 0x007e67ff99
187 357 m 0
 298 357 l 0
 298 302 l 0
 187 302 l 0
 187 357 l 0
130 302 m 0
 187 302 l 0
 187 245 l 0
 130 245 l 0
 130 302 l 0
187 245 m 0
 298 245 l 0
 298 190 l 0
 187 190 l 0
 187 245 l 0
409 468 m 0
 464 468 l 0
 464 413 l 0
 409 413 l 0
 409 468 l 0
464 413 m 0
 520 413 l 0
 520 357 l 0
 464 357 l 0
 464 413 l 0
576 412 m 0
 632 412 l 0
 632 356 l 0
 576 356 l 0
 576 412 l 0
630 468 m 0
 686 468 l 0
 686 412 l 0
 630 412 l 0
 630 468 l 0
520 357 m 0
 576 357 l 0
 576 301 l 0
 520 301 l 0
 520 357 l 0
464 301 m 0
 520 301 l 0
 520 245 l 0
 464 245 l 0
 464 301 l 0
409 245 m 0
 464 245 l 0
 464 190 l 0
 409 190 l 0
 409 245 l 0
575 301 m 0
 631 301 l 0
 631 245 l 0
 575 245 l 0
 575 301 l 0
631 245 m 0
 686 245 l 0
 686 189 l 0
 631 189 l 0
 631 245 l 0
742 468 m 0
 798 468 l 0
 798 302 l 0
 742 302 l 0
 742 468 l 0
798 413 m 0
 853 413 l 0
 853 357 l 0
 798 357 l 0
 798 413 l 0
853 468 m 0
 909 468 l 0
 909 413 l 0
 853 413 l 0
 853 468 l 0
909 413 m 0
 964 413 l 0
 964 302 l 0
 909 302 l 0
 909 413 l 0
1075 468 m 0x007e67ffb9
 1131 468 l 0
 1131 302 l 0
 1075 302 l 0
 1075 468 l 0x007e67ffb9
1020 413 m 0
 1186 413 l 0
 1186 357 l 0
 1020 357 l 0
 1020 413 l 0
187 79 m 0x047e67ff99
 242 79 l 0x047e67ff99
 242 24 l 0x047e67ff99
 187 24 l 0
 187 79 l 0x047e67ff99
298 79 m 0
 354 79 l 0
 354 24 l 0
 298 24 l 0
 298 79 l 0
409 79 m 0
 465 79 l 0
 465 24 l 0
 409 24 l 0
 409 79 l 0
520 135 m 0x027e67ff99
 687 135 l 0
 687 79 l 0
 520 79 l 0
 520 135 l 0x027e67ff99
520 24 m 0x107e67ff99
 687 24 l 0
 687 -33 l 0
 520 -33 l 0
 520 24 l 0x107e67ff99
798 190 m 0x187e67ff99
 853 190 l 0
 853 24 l 0
 798 24 l 0
 798 190 l 0x187e67ff99
853 245 m 0x08fe67ff99
 964 245 l 0
 964 190 l 0
 853 190 l 0
 853 245 l 0x08fe67ff99
964 190 m 0
 1020 190 l 0
 1020 24 l 0x187e67ff99
 964 24 l 0x107e67ff99
 964 190 l 0
853 24 m 0
 964 24 l 0
 964 -33 l 0
 853 -33 l 0
 853 24 l 0
1353 -199 m 0x807e67ff9b
 1297 -199 l 0
 1297 801 l 0
 1353 801 l 0
 1353 -199 l 0x807e67ff9b
1409 -199 m 0
 1353 -199 l 0
 1353 745 l 0
 1409 745 l 0
 1409 -199 l 0
1297 -144 m 0x407e67ff9b
 130 -144 l 0
 130 -88 l 0x407e67ff9b
 1297 -88 l 0x807e67ff9b
 1297 -144 l 0x407e67ff9b
1297 -199 m 0x807e67ff9b
 187 -199 l 0x807e67ff9b
 187 -144 l 0
 1297 -144 l 0x407e67ff9b
 1297 -199 l 0x807e67ff9b
1297 190 m 0x00fe67ffbb
 1075 190 l 0x00fe67ffbb
 1075 245 l 0
 1297 245 l 0x017e67ffbb
 1297 190 l 0x00fe67ffbb
1075 190 m 0
 1131 190 l 0
 1131 -88 l 0
 1075 -88 l 0x80fe67ffb9
 1075 190 l 0
1131 190 m 0
 1186 190 l 0x00fe67ffb9
 1186 135 l 0
 1131 135 l 0x037e67ffb9
 1131 190 l 0
1186 135 m 0x027e67ff99
 1243 135 l 0
 1243 79 l 0
 1186 79 l 0
 1186 135 l 0x027e67ff99
1243 190 m 0x02fe67ff99
 1297 190 l 0x02fe67ff9b
 1297 135 l 0x017e67ff9b
 1243 135 l 0
 1243 190 l 0x02fe67ff99
1186 24 m 0xa07e67ff99
 1243 24 l 0
 1243 -88 l 0
 1186 -88 l 0
 1186 24 l 0xa07e67ff99
EndSplineSet
Validated: 5
EndChar

StartChar: l
Encoding: 108 108 73
Width: 1850
Flags: W
LayerCount: 2
Fore
SplineSet
181 629 m 0
 291 629 l 0
 291 684 l 0
 181 684 l 0
 181 740 l 0
 291 740 l 0
 291 795 l 0
 126 795 l 0
 126 519 l 0
 181 519 l 0
 181 629 l 0
346 684 m 0
 346 740 l 0
 291 740 l 0
 291 684 l 0
 346 684 l 0
457 629 m 0
 512 629 l 0
 512 574 l 0
 567 574 l 0
 567 519 l 0
 622 519 l 0
 622 574 l 0
 567 574 l 0
 567 684 l 0
 457 684 l 0
 457 740 l 0
 567 740 l 0
 567 795 l 0
 402 795 l 0
 402 519 l 0
 457 519 l 0
 457 629 l 0
567 684 m 0
 622 684 l 0
 622 739 l 0
 567 739 l 0
 567 684 l 0
732 740 m 0
 677 740 l 0
 677 575 l 0
 732 575 l 0
 732 740 l 0
897 795 m 0
 732 795 l 0
 732 740 l 0
 897 740 l 0
 897 795 l 0
897 519 m 0
 897 685 l 0
 788 685 l 0
 788 629 l 0
 842 629 l 0
 842 575 l 0
 732 575 l 0
 732 519 l 0
 897 519 l 0
1008 685 m 0
 1063 685 l 0
 1063 740 l 0
 1008 740 l 0
 1008 795 l 0
 952 795 l 0
 952 519 l 0
 1008 519 l 0
 1008 685 l 0
1173 519 m 0
 1228 519 l 0
 1228 795 l 0
 1173 795 l 0
 1173 740 l 0
 1118 740 l 0
 1118 685 l 0
 1173 685 l 0
 1173 519 l 0
1118 630 m 0
 1118 685 l 0
 1063 685 l 0
 1063 630 l 0
 1118 630 l 0
346 464 m 0
 346 409 l 0
 1063 409 l 0
 1063 464 l 0
 346 464 l 0
291 23 m 0
 346 23 l 0
 346 409 l 0
 291 409 l 0
 291 23 l 0
1008 355 m 0
 402 355 l 0
 402 78 l 0
 1008 79 l 0
 1008 355 l 0
567 244 m 0
 567 299 l 0
 622 299 l 0
 622 244 l 0
 567 244 l 0
623 187 m 0
 623 135 l 0
 567 135 l 0
 567 187 l 0
 623 187 l 0
678 187 m 0
 732 187 l 0
 732 135 l 0
 678 135 l 0
 678 187 l 0
677 244 m 0
 677 299 l 0
 733 299 l 0
 733 244 l 0
 677 244 l 0
457 299 m 0
 512 299 l 0
 512 244 l 0
 457 244 l 0
 457 299 l 0
457 187 m 0
 512 187 l 0
 512 135 l 0
 457 135 l 0
 457 187 l 0
842 244 m 0
 788 244 l 0
 788 299 l 0
 842 299 l 0
 842 244 l 0
237 -32 m 0
 291 -32 l 0
 291 23 l 0
 237 23 l 0
 237 -32 l 0
457 -32 m 0
 457 23 l 0
 402 23 l 0
 402 -32 l 0
 457 -32 l 0
568 -32 m 0
 568 23 l 0
 513 23 l 0
 513 -32 l 0
 568 -32 l 0
679 -32 m 0
 679 23 l 0
 624 23 l 0
 624 -32 l 0
 679 -32 l 0
789 -32 m 0
 789 23 l 0
 734 23 l 0
 734 -32 l 0
 789 -32 l 0
898 -32 m 0
 898 23 l 0
 844 23 l 0
 844 -32 l 0
 898 -32 l 0
1669 795 m 0
 1669 189 l 0
 1339 189 l 0
 1339 -142 l 0
 1119 -142 l 0
 1119 -88 l 0
 1173 -88 l 0
 1173 -32 l 0
 1228 -32 l 0
 1228 299 l 0
 1173 299 l 0
 1173 355 l 0
 1118 355 l 0
 1118 409 l 0
 1063 409 l 0
 1063 23 l 0
 1008 23 l 0
 1008 -31 l 0
 952 -31 l 0
 952 -87 l 0
 898 -87 l 0
 898 -142 l 0
 789 -142 l 0
 789 -87 l 0
 844 -87 l 0
 844 -32 l 0
 788 -32 l 0
 788 -86 l 0
 735 -86 l 0
 735 -32 l 0
 679 -32 l 0
 679 -86 l 0
 624 -86 l 0
 624 -32 l 0
 569 -32 l 0
 569 -86 l 0
 513 -86 l 0
 513 -32 l 0
 458 -32 l 0
 458 -86 l 0
 403 -86 l 0
 403 -142 l 0
 347 -142 l 0
 347 -87 l 0
 402 -87 l 0
 402 -32 l 0
 347 -32 l 0
 347 -86 l 0
 292 -86 l 0
 292 -142 l 0
 182 -142 l 0
 182 -87 l 0
 237 -87 l 0
 237 -32 l 0
 181 -32 l 0
 181 -86 l 0
 126 -86 l 0
 126 -197 l 0
 1724 -197 l 0
 1724 795 l 0
 1669 795 l 0
458 -142 m 0
 458 -87 l 0
 513 -87 l 0
 513 -142 l 0
 458 -142 l 0
569 -142 m 0
 569 -87 l 0
 624 -87 l 0
 624 -142 l 0
 569 -142 l 0
679 -142 m 0
 679 -87 l 0
 733 -87 l 0
 733 -142 l 0
 679 -142 l 0
1394 134 m 0
 1615 134 l 0
 1615 79 l 0
 1669 79 l 0
 1669 24 l 0
 1615 24 l 0
 1615 -31 l 0
 1450 -31 l 0
 1450 -87 l 0
 1615 -87 l 0
 1615 -142 l 0
 1394 -142 l 0
 1394 134 l 0
1615 -87 m 0
 1615 -32 l 0
 1669 -32 l 0
 1669 -87 l 0
 1615 -87 l 0
1450 24 m 0
 1615 24 l 0
 1615 79 l 0
 1450 79 l 0
 1450 24 l 0
EndSplineSet
Validated: 5
EndChar

StartChar: o
Encoding: 111 111 74
Width: 1530
Flags: W
HStem: -200 112<180 1293> -144 56<126 180> -33 166<1182 1293> 78 55<126 180 237 293 571 626> 189 55<126 180 237 293 348 404> 299 113<126 180 237 293> 522 56<571 626> 578 55<515 571 626 682> 633 56<904 959> 689 55<848 904 959 1015> 744 56<126 237 293 404>
VStem: 126 54<299 412> 180 57<-33 78 133 189 244 299> 237 56<299 412 522 744> 348 56<189 244> 459 56<633 800> 515 56<578 633> 571 55<78 133 522 578> 626 56<578 633> 682 55<633 800> 793 55<522 800> 848 56<689 744> 904 55<633 689> 959 56<689 744> 1015 56<522 800> 1182 222<-33 133> 1293 111<-88 -33 133 189 244 744> 1293 55<744 800>
LayerCount: 2
Fore
SplineSet
126 800 m 0x0fffff80
 404 800 l 0
 404 744 l 0
 126 744 l 0
 126 800 l 0x0fffff80
237 744 m 0
 293 744 l 0
 293 522 l 0
 237 522 l 0
 237 744 l 0
459 800 m 0
 515 800 l 0
 515 633 l 0
 459 633 l 0
 459 800 l 0
682 800 m 0
 737 800 l 0
 737 633 l 0
 682 633 l 0
 682 800 l 0
515 633 m 0
 571 633 l 0
 571 578 l 0
 515 578 l 0
 515 633 l 0
571 578 m 0
 626 578 l 0
 626 522 l 0
 571 522 l 0
 571 578 l 0
626 633 m 0
 682 633 l 0
 682 578 l 0
 626 578 l 0
 626 633 l 0
793 800 m 0
 848 800 l 0
 848 522 l 0
 793 522 l 0
 793 800 l 0
848 744 m 0
 904 744 l 0
 904 689 l 0
 848 689 l 0
 848 744 l 0
904 689 m 0
 959 689 l 0
 959 633 l 0
 904 633 l 0
 904 689 l 0
959 744 m 0
 1015 744 l 0
 1015 689 l 0
 959 689 l 0
 959 744 l 0
1015 800 m 0
 1071 800 l 0
 1071 522 l 0
 1015 522 l 0
 1015 800 l 0
237 -33 m 0x2fffff80
 180 -33 l 0x2fffff80
 180 78 l 0
 126 78 l 0
 126 133 l 0
 180 133 l 0
 180 189 l 0
 126 189 l 0
 126 244 l 0
 180 244 l 0
 180 299 l 0
 237 299 l 0
 237 244 l 0
 293 244 l 0
 293 189 l 0
 237 189 l 0
 237 133 l 0
 293 133 l 0
 293 78 l 0
 237 78 l 0x1fffff80
 237 -33 l 0x2fffff80
126 412 m 0
 180 412 l 0
 180 299 l 0
 126 299 l 0
 126 412 l 0
237 412 m 0
 293 412 l 0
 293 299 l 0
 237 299 l 0
 237 412 l 0
626 299 m 0
 515 299 l 0
 515 356 l 0
 459 356 l 0
 459 299 l 0
 404 299 l 0
 404 244 l 0
 459 244 l 0
 459 189 l 0
 404 189 l 0
 404 133 l 0
 459 133 l 0
 459 78 l 0
 348 78 l 0x1fffff80
 348 24 l 0
 459 24 l 0
 459 -33 l 0
 515 -33 l 0x2fffff80
 515 24 l 0
 571 24 l 0
 571 78 l 0
 515 78 l 0
 515 133 l 0
 571 133 l 0x1fffff80
 571 189 l 0
 515 189 l 0
 515 244 l 0
 626 244 l 0
 626 299 l 0
348 244 m 0
 404 244 l 0
 404 189 l 0
 348 189 l 0
 348 244 l 0
571 133 m 0
 626 133 l 0
 626 78 l 0
 571 78 l 0
 571 133 l 0
848 468 m 0
 682 468 l 0
 682 189 l 0
 737 189 l 0
 737 299 l 0
 848 299 l 0
 848 356 l 0
 737 356 l 0
 737 412 l 0
 848 412 l 0
 848 468 l 0
1070 468 m 0
 904 468 l 0
 904 189 l 0
 959 189 l 0
 959 299 l 0
 1070 299 l 0
 1070 356 l 0
 959 356 l 0
 959 412 l 0
 1070 412 l 0
 1070 468 l 0
1293 800 m 0x0fffff90
 1348 800 l 0
 1348 744 l 0x0fffff90
 1404 744 l 0
 1404 -200 l 0
 180 -200 l 0x8fffffa0
 180 -144 l 0
 126 -144 l 0
 126 -88 l 0x4fffffa0
 1293 -88 l 0x8fffffa0
 1293 800 l 0x0fffff90
1293 244 m 0x2fffffa0
 1071 244 l 0
 1071 -88 l 0
 1182 -88 l 0
 1182 -33 l 0
 1126 -33 l 0xafffffc0
 1126 133 l 0x1fffffc0
 1182 133 l 0
 1182 189 l 0x2fffffc0
 1293 189 l 0
 1293 244 l 0x2fffffa0
1182 133 m 0
 1293 133 l 0
 1293 -33 l 0x2fffffa0
 1182 -33 l 0
 1182 133 l 0
EndSplineSet
Validated: 5
EndChar

StartChar: s
Encoding: 115 115 75
Width: 1536
Flags: W
HStem: -200 111<185 1296> -144 55<129 185> -34 112<129 1018> -33 56<1184 1296> 78 56<1184 1296> 132 112<129 1018> 190 55<1129 1296> 300 111<129 1018> 522 56<185 351 463 573> 578 167<129 185 407 463 573 629> 633 56<795 851> 689 56<741 795> 745 55<185 351 463 573 962 1073 1129 1240>
VStem: 129 56<578 745> 185 166<522 578 745 800> 407 56<578 745> 463 110<522 578 745 800> 573 56<578 745> 684 57<522 800> 741 54<689 745> 795 56<633 689> 851 56<522 800> 1073 56<-89 190 522 745> 1296 111<-89 -33 23 78 134 190 245 745> 1296 55<745 800>
LayerCount: 2
Fore
SplineSet
185 800 m 0x018ffe
 351 800 l 0
 351 745 l 0
 185 745 l 0x018ffe
 185 800 l 0x018ffe
129 745 m 0x018ffe
 185 745 l 0x018ffe
 185 578 l 0
 129 578 l 0
 129 745 l 0x018ffe
185 578 m 0
 351 578 l 0
 351 522 l 0
 185 522 l 0
 185 578 l 0
463 800 m 0
 573 800 l 0
 573 745 l 0x018ffe
 463 745 l 0x018ffe
 463 800 l 0
407 745 m 0x018ffe
 463 745 l 0x018ffe
 463 578 l 0
 407 578 l 0
 407 745 l 0x018ffe
573 745 m 0x018ffe
 629 745 l 0x018ffe
 629 578 l 0
 573 578 l 0
 573 745 l 0x018ffe
463 578 m 0
 573 578 l 0
 573 522 l 0
 463 522 l 0
 463 578 l 0
684 800 m 0
 741 800 l 0
 741 522 l 0
 684 522 l 0
 684 800 l 0
741 745 m 0x01bffe
 795 745 l 0
 795 689 l 0
 741 689 l 0
 741 745 l 0x01bffe
795 689 m 0
 851 689 l 0
 851 633 l 0
 795 633 l 0
 795 689 l 0
851 800 m 0
 907 800 l 0
 907 522 l 0
 851 522 l 0
 851 800 l 0
962 800 m 0
 1240 800 l 0
 1240 745 l 0
 962 745 l 0
 962 800 l 0
1073 745 m 0
 1129 745 l 0
 1129 522 l 0
 1073 522 l 0
 1073 745 l 0
1018 300 m 0
 129 300 l 0
 129 411 l 0
 1018 411 l 0
 1018 300 l 0
1018 132 m 0x058ffe
 129 132 l 0
 129 244 l 0
 1018 244 l 0
 1018 132 l 0x058ffe
1018 -34 m 0x218ffe
 129 -34 l 0
 129 78 l 0
 1018 78 l 0
 1018 -34 l 0x218ffe
1407 -200 m 0x818fff
 1351 -200 l 0
 1351 745 l 0x818ffe80
 1407 745 l 0
 1407 -200 l 0x818fff
1351 -200 m 0
 1296 -200 l 0
 1296 800 l 0
 1351 800 l 0
 1351 -200 l 0
1296 -144 m 0x418ffe80
 129 -144 l 0
 129 -89 l 0x418ffe80
 1296 -89 l 0x818fff
 1296 -144 l 0x418ffe80
1296 -200 m 0x818ffe80
 185 -200 l 0x818ffe80
 185 -144 l 0
 1296 -144 l 0x418ffe80
 1296 -200 l 0x818ffe80
1296 190 m 0x038fff
 1073 190 l 0
 1073 245 l 0
 1296 245 l 0
 1296 190 l 0x038fff
1073 190 m 0
 1129 190 l 0
 1129 -89 l 0
 1073 -89 l 0x838ffe
 1073 190 l 0
1184 134 m 0x098fff
 1296 134 l 0
 1296 78 l 0
 1184 78 l 0
 1184 134 l 0x098fff
1184 23 m 0x118fff
 1296 23 l 0
 1296 -33 l 0
 1184 -33 l 0
 1184 23 l 0x118fff
EndSplineSet
Validated: 5
EndChar

StartChar: t
Encoding: 116 116 76
Width: 1857
Flags: W
LayerCount: 2
Fore
SplineSet
296 790 m 0
 185 790 l 0
 185 734 l 0
 296 734 l 0
 296 790 l 0
130 514 m 0
 240 514 l 0
 240 570 l 0
 130 570 l 0
 130 514 l 0
185 734 m 0
 130 734 l 0
 130 680 l 0
 185 680 l 0
 185 734 l 0
241 625 m 0
 241 679 l 0
 185 679 l 0
 185 625 l 0
 241 625 l 0
241 624 m 0
 241 569 l 0
 296 569 l 0
 296 624 l 0
 241 624 l 0
847 790 m 0
 737 790 l 0
 737 734 l 0
 847 734 l 0
 847 790 l 0
681 514 m 0
 792 514 l 0
 792 570 l 0
 681 570 l 0
 681 514 l 0
737 734 m 0
 681 734 l 0
 681 680 l 0
 737 680 l 0
 737 734 l 0
792 625 m 0
 792 679 l 0
 737 679 l 0
 737 625 l 0
 792 625 l 0
792 624 m 0
 792 569 l 0
 848 569 l 0
 848 624 l 0
 792 624 l 0
406 790 m 0
 350 790 l 0
 350 735 l 0
 406 735 l 0
 406 790 l 0
461 735 m 0
 405 735 l 0
 405 679 l 0
 461 679 l 0
 461 514 l 0
 516 514 l 0
 516 680 l 0
 461 680 l 0
 461 735 l 0
571 790 m 0
 571 735 l 0
 626 735 l 0
 626 790 l 0
 571 790 l 0
516 679 m 0
 571 679 l 0
 571 735 l 0
 516 735 l 0
 516 679 l 0
902 790 m 0
 902 735 l 0
 957 735 l 0
 957 514 l 0
 1011 514 l 0
 1011 735 l 0
 1066 735 l 0
 1066 790 l 0
 902 790 l 0
1287 735 m 0
 1287 790 l 0
 1122 790 l 0
 1122 514 l 0
 1287 514 l 0
 1287 569 l 0
 1177 569 l 0
 1177 624 l 0
 1287 624 l 0
 1287 679 l 0
 1177 679 l 0
 1177 735 l 0
 1287 735 l 0
1397 790 m 0
 1342 790 l 0
 1342 514 l 0
 1397 514 l 0
 1397 680 l 0
 1452 680 l 0
 1452 735 l 0
 1397 735 l 0
 1397 790 l 0
1562 790 m 0
 1562 735 l 0
 1508 735 l 0
 1508 680 l 0
 1562 680 l 0
 1562 514 l 0
 1617 514 l 0
 1617 790 l 0
 1562 790 l 0
1453 625 m 0
 1508 625 l 0
 1508 680 l 0
 1453 680 l 0
 1453 625 l 0
571 350 m 0
 1232 350 l 0
 1232 404 l 0
 516 404 l 0
 516 460 l 0
 350 460 l 0
 350 404 l 0
 406 404 l 0
 406 350 l 0
 461 350 l 0
 461 295 l 0
 350 295 l 0
 350 350 l 0
 296 350 l 0
 296 404 l 0
 240 404 l 0
 240 239 l 0
 296 239 l 0
 296 184 l 0
 516 184 l 0
 516 239 l 0
 1232 239 l 0
 1232 295 l 0
 571 295 l 0
 571 350 l 0
1232 350 m 0
 1232 295 l 0
 1287 295 l 0
 1287 350 l 0
 1232 350 l 0
296 73 m 0
 461 73 l 0
 461 128 l 0
 240 128 l 0
 240 -37 l 0
 461 -37 l 0
 461 18 l 0
 296 18 l 0
 296 73 l 0
1177 73 m 0
 847 73 l 0
 847 128 l 0
 1177 128 l 0
 1177 184 l 0
 791 184 l 0
 791 128 l 0
 626 128 l 0
 626 73 l 0
 461 73 l 0
 461 18 l 0
 626 18 l 0
 626 -37 l 0
 791 -37 l 0
 791 -92 l 0
 1177 -92 l 0
 1177 -37 l 0
 847 -37 l 0
 847 18 l 0
 1177 18 l 0
 1177 -37 l 0
 1232 -37 l 0
 1232 128 l 0
 1177 128 l 0
 1177 73 l 0
681 18 m 0
 681 73 l 0
 791 73 l 0
 791 18 l 0
 681 18 l 0
1673 790 m 0
 1673 184 l 0
 1342 184 l 0
 1342 -147 l 0
 130 -147 l 0
 130 -202 l 0
 1727 -202 l 0
 1727 790 l 0
 1673 790 l 0
1398 129 m 0
 1673 129 l 0
 1673 73 l 0
 1453 73 l 0
 1453 18 l 0
 1617 18 l 0
 1617 -37 l 0
 1453 -37 l 0
 1453 -147 l 0
 1398 -147 l 0
 1398 129 l 0
EndSplineSet
Validated: 5
EndChar

StartChar: u
Encoding: 117 117 77
Width: 1534
Flags: W
LayerCount: 2
Fore
SplineSet
350 744 m 0
 295 744 l 0
 295 688 l 0
 350 688 l 0
 350 522 l 0
 406 522 l 0
 406 800 l 0
 350 800 l 0
 350 744 l 0
184 744 m 0
 184 800 l 0
 128 800 l 0
 128 522 l 0
 184 522 l 0
 184 688 l 0
 240 688 l 0
 240 744 l 0
 184 744 l 0
240 633 m 0
 295 633 l 0
 295 688 l 0
 240 688 l 0
 240 633 l 0
462 800 m 0
 462 522 l 0
 684 522 l 0
 684 577 l 0
 517 577 l 0
 517 633 l 0
 684 633 l 0
 684 688 l 0
 517 688 l 0
 517 744 l 0
 684 744 l 0
 684 800 l 0
 462 800 l 0
962 800 m 0
 962 744 l 0
 906 744 l 0
 906 688 l 0
 962 688 l 0
 962 522 l 0
 1017 522 l 0
 1017 800 l 0
 962 800 l 0
795 744 m 0
 795 800 l 0
 739 800 l 0
 739 522 l 0
 795 522 l 0
 795 688 l 0
 850 688 l 0
 850 744 l 0
 795 744 l 0
850 633 m 0
 906 633 l 0
 906 688 l 0
 850 688 l 0
 850 633 l 0
1351 744 m 0
 1351 800 l 0
 1295 800 l 0
 1295 244 l 0
 1072 244 l 0
 1072 -89 l 0
 129 -89 l 0
 129 -144 l 0
 184 -144 l 0
 184 -200 l 0
 1406 -200 l 0
 1406 744 l 0
 1351 744 l 0
1295 133 m 0
 1183 133 l 0
 1183 77 l 0
 1295 77 l 0
 1295 23 l 0
 1183 23 l 0
 1183 -89 l 0
 1128 -89 l 0
 1128 189 l 0
 1295 189 l 0
 1295 133 l 0
962 355 m 0
 962 411 l 0
 517 411 l 0
 517 355 l 0
 406 355 l 0
 406 300 l 0
 295 300 l 0
 295 244 l 0
 184 244 l 0
 184 189 l 0
 129 189 l 0
 129 -34 l 0
 184 -34 l 0
 184 133 l 0
 240 133 l 0
 240 77 l 0
 573 77 l 0
 573 133 l 0
 629 133 l 0
 629 -34 l 0
 684 -34 l 0
 684 189 l 0
 740 189 l 0
 740 23 l 0
 795 23 l 0
 795 244 l 0
 851 244 l 0
 851 77 l 0
 906 77 l 0
 906 300 l 0
 962 300 l 0
 962 133 l 0
 1017 133 l 0
 1017 355 l 0
 962 355 l 0
629 189 m 0
 573 189 l 0
 573 244 l 0
 629 244 l 0
 629 189 l 0
740 244 m 0
 684 244 l 0
 684 300 l 0
 740 300 l 0
 740 244 l 0
851 300 m 0
 795 300 l 0
 795 355 l 0
 851 355 l 0
 851 300 l 0
EndSplineSet
Validated: 5
EndChar

StartChar: w
Encoding: 119 119 79
Width: 1874
Flags: W
HStem: -195 82<287.653 1586.01> 0 40<1435.56 1504.11> 89 58<387.667 466.996 569.333 626.738> 241 65<743 845 910 1012> 242 22<1122.8 1174.75> 270 20<1489.48 1527.7> 439 33<510.696 572.131> 490 42<1204.76 1281> 642 17<1101 1125.84> 699 93<269.305 1583.25>
VStem: 157 86<-67.6997 671.191> 315 99<150.22 287.264> 523 91<135.333 224.456> 845 65<139 241 306 407> 1046 74<267.297 360.043> 1249 76<363.012 489.107> 1348 78<46.1705 180.092> 1530 61<225.249 267.421> 1630 87<-70.9277 650.736>
LayerCount: 2
Fore
SplineSet
341 792 m 0xe3ffe0
 1550 792 l 0
 1603.33 792 1644.5 777.5 1673.5 748.5 c 0
 1702.5 719.5 1717 678 1717 624 c 0
 1717 -27 l 0
 1717 -139 1655.67 -195 1533 -195 c 0
 324 -195 l 0
 265.333 -195 221.667 -177.667 193 -143 c 0
 169 -114.333 157 -75.6667 157 -27 c 0
 157 609 l 0
 157 731 218.333 792 341 792 c 0xe3ffe0
312 699 m 0
 289.333 697 271.667 685.333 259 664 c 0
 248.333 646 243 624.333 243 599 c 0
 243 -14 l 0
 243 -33.3333 252.333 -54 271 -76 c 0
 292.333 -100.667 316.333 -113 343 -113 c 0
 1531 -113 l 0
 1552.33 -113 1573.33 -104.667 1594 -88 c 0
 1618 -68 1630 -43.3333 1630 -14 c 0
 1630 599 l 0
 1630 618.333 1620.33 639 1601 661 c 0
 1579.67 686.333 1556.33 699 1531 699 c 0
 312 699 l 0
577 395 m 0
 577 424.333 566.333 439 545 439 c 0
 515.667 439 485.667 404.333 455 335 c 0
 427.667 273.667 414 226.667 414 194 c 0
 414 182.667 417.167 172 423.5 162 c 0
 429.833 152 438.333 147 449 147 c 0
 478.333 147 508.667 182.333 540 253 c 0
 564.667 309 577 356.333 577 395 c 0
315 194 m 0
 315 254 338.833 315.333 386.5 378 c 0
 434.167 440.667 483.667 472 535 472 c 0
 555 472 570 466 580 454 c 0
 586 446.667 591 434.333 595 417 c 0
 609 460 l 0
 699 466 l 0
 642 278 l 0
 635.333 256.667 629.667 236 625 216 c 0
 617.667 186 614 166.667 614 158 c 0
 614 153.333 615.167 150.167 617.5 148.5 c 0
 619.833 146.833 622 146 624 146 c 0
 630 146 634.667 147.667 638 151 c 0
 653 166 l 0
 661.667 174.667 671.333 187 682 203 c 0
 699 191 l 0
 651.667 122.333 611 88 577 88 c 0
 561.667 88 548.833 93.3333 538.5 104 c 0
 528.167 114.667 523 127.667 523 143 c 0
 523 148.333 526.667 165 534 193 c 0
 530.667 187 525 178 517 166 c 0
 500.333 142 483.667 123.667 467 111 c 0
 447.667 96.3333 426 89 402 89 c 0
 373.333 89 351.333 99.6667 336 121 c 0
 322 140.333 315 164.667 315 194 c 0
1249 449 m 0
 1249 476.333 1239.67 490 1221 490 c 0
 1195.67 490 1173.33 462.333 1154 407 c 0
 1131.33 343 1120 300.667 1120 280 c 0
 1120 277.333 1121.33 274 1124 270 c 0
 1126.67 266 1132.33 264 1141 264 c 0xefffe0
 1173.67 264 1201 289.667 1223 341 c 0
 1240.33 381 1249 417 1249 449 c 0
1046 278 m 0
 1046 282 1047 287 1049 293 c 0
 1134 597 l 0
 1137.33 609 1139 617.667 1139 623 c 0
 1139 632.333 1134.67 638.333 1126 641 c 0
 1122.67 641.667 1114.33 642 1101 642 c 0
 1101 659 l 0
 1164 666 l 0
 1228 677 l 0
 1174 480 l 0
 1200.67 514.667 1229 532 1259 532 c 0
 1303 532 1325 505.333 1325 452 c 0
 1325 399.333 1305 351.167 1265 307.5 c 0
 1225 263.833 1179 242 1127 242 c 0
 1114.33 242 1098.67 245.333 1080 252 c 0
 1057.33 259.333 1046 268 1046 278 c 0
1348 95 m 0
 1348 140.333 1365.67 184.167 1401 226.5 c 0
 1436.33 268.833 1476.33 290 1521 290 c 0
 1539.67 290 1555.33 285.667 1568 277 c 0
 1583.33 266.333 1591 252.333 1591 235 c 0
 1591 207 1577.67 193 1551 193 c 0
 1528.33 193 1517 203.667 1517 225 c 0
 1517 230.333 1517.33 233.667 1518 235 c 0
 1518.67 236.333 1520.67 240 1524 246 c 0
 1527 251 l 0
 1527.67 252.333 1528.67 254 1530 256 c 0
 1530 260 l 0
 1530 263.333 1528.67 265.833 1526 267.5 c 0
 1523.33 269.167 1519.33 270 1514 270 c 0
 1490.67 270 1469.33 246.667 1450 200 c 0
 1434 160 1426 126 1426 98 c 0
 1426 83.3333 1428.67 71.6667 1434 63 c 0
 1440.67 47.6667 1453.33 40 1472 40 c 0
 1496 40 1520.33 58.3333 1545 95 c 0
 1562 83 l 0
 1543.33 57 1527.33 38.3333 1514 27 c 0
 1492 9 1466.67 0 1438 0 c 0
 1410.67 0 1388.83 9 1372.5 27 c 0
 1356.17 45 1348 67.6667 1348 95 c 0
743 241 m 0xf3ffe0
 743 306 l 0
 845 306 l 0
 845 407 l 0
 910 407 l 0
 910 306 l 0
 1012 306 l 0
 1012 241 l 0
 910 241 l 0
 910 139 l 0
 845 139 l 0
 845 241 l 0
 743 241 l 0xf3ffe0
1422 510 m 0
 1501 510 l 0
 1210 0 l 0
 1131 0 l 0
 1422 510 l 0
EndSplineSet
Validated: 1
EndChar

StartChar: x
Encoding: 120 120 80
Width: 1520
Flags: W
HStem: -195 82<283.653 1240.01> -59 45<982.309 1076.76> -39 47<1038.25 1088.25> 49 67<386.333 464.553> 94 96<1075.59 1155.95> 286 51<796.764 884.466> 365 79<463.859 537.887> 482 69<863.784 930.808> 699 93<265.959 1237.25>
VStem: 153 86<-67.6997 670.685> 774 88<536.403 619.496> 870 102<-3.49548 93.9538> 933 107<391.309 480.084> 1284 87<-70.9277 650.736>
LayerCount: 2
Fore
SplineSet
1040 450 m 0x87ec
 1040 398 1009 355.667 947 323 c 0
 899 298.333 854.667 286 814 286 c 0
 742.667 286 707 310.333 707 359 c 0
 707 363.667 718.167 404.167 740.5 480.5 c 0
 762.833 556.833 774 597.333 774 602 c 0
 774 611.333 768.333 617 757 619 c 0
 741.667 621.667 733 623.667 731 625 c 1
 738.333 640.333 762.333 650.667 803 656 c 0
 863 664 894.667 668.333 898 669 c 1
 896.667 661.667 889.667 642.333 877 611 c 0
 867 586.333 862 565.667 862 549 c 0
 862 543.667 862.333 538.667 863 534 c 1
 879.667 545.333 900 551 924 551 c 0
 953.333 551 979 543.333 1001 528 c 1
 1027 508.667 1040 482.667 1040 450 c 0x87ec
1176 133 m 0
 1176 107 1158 94 1122 94 c 0
 1105.33 94 1092.17 98.8333 1082.5 108.5 c 0
 1068 123 1068 123 1053 139 c 1
 1030.33 131.667 1011.17 117.667 995.5 97 c 0
 979.833 76.3333 972 58.3333 972 43 c 0
 972 5 993.667 -14 1037 -14 c 0xcff4
 1063.67 -14 1096.33 -6.66667 1135 8 c 1
 1132.33 -8 1111.67 -23.6667 1073 -39 c 0xa7f4
 1039 -52.3333 1011 -59 989 -59 c 0
 955 -59 927.333 -50.6667 906 -34 c 0
 882 -15.3333 870 10.3333 870 43 c 0
 870 85.6667 896.333 122.333 949 153 c 0
 991.667 177.667 1030.33 190 1065 190 c 0xcff4
 1091.67 190 1115 186.333 1135 179 c 0
 1162.33 169 1176 153.667 1176 133 c 0
695 154 m 0
 695 139.333 680 118.667 650 92 c 0
 618 64 590.333 50.6667 567 52 c 0
 547 53.3333 528.333 71 511 105 c 1
 486 86 486 86 461 68 c 1
 441.667 55.3333 422 49 402 49 c 0x97e4
 370.667 49 346.667 63 330 91 c 0
 316.667 113.667 308.667 142 306 176 c 0
 302 232 314.333 287.667 343 343 c 0
 377.667 411 425.333 444.667 486 444 c 0
 499.333 444 514.167 438.5 530.5 427.5 c 0
 546.833 416.5 559.667 403.333 569 388 c 1
 578.333 395.333 583 410 583 432 c 1
 689 432 l 1
 605 147 l 1
 603 137 603.5 130.5 606.5 127.5 c 0
 609.5 124.5 616.333 123 627 123 c 0
 635.667 123 645.667 130 657 144 c 0
 668.333 158 676.667 165 682 165 c 0
 690.667 165 695 161.333 695 154 c 0
933 450 m 0x87ec
 933 468.667 923 479.333 903 482 c 0
 891 483.333 877.333 481.333 862 476 c 0
 842 468.667 829.667 457.667 825 443 c 2
 795 347 l 1
 807.667 340.333 820.333 337 833 337 c 0
 861 337 885.667 352.667 907 384 c 0
 924.333 410 933 432 933 450 c 0x87ec
548 342 m 1
 529.333 357.333 514.333 365 503 365 c 0
 473 365 447.333 334 426 272 c 0
 410 225.333 402 188.667 402 162 c 0
 402 131.333 414 116 438 116 c 0x97e4
 464.667 116 487.667 135 507 173 c 0
 521 201 532.333 236.667 541 280 c 0
 547.667 316 550 336.667 548 342 c 1
337 792 m 2
 1204 792 l 2
 1257.33 792 1298.5 777.5 1327.5 748.5 c 0
 1356.5 719.5 1371 678 1371 624 c 2
 1371 -27 l 2
 1371 -139 1309.67 -195 1187 -195 c 2
 320 -195 l 2
 261.333 -195 217.667 -177.667 189 -143 c 0
 165 -114.333 153 -75.6667 153 -27 c 2
 150 606 l 2
 150 666.667 167 713.333 201 746 c 0
 233.667 776.667 279 792 337 792 c 2
308 699 m 1
 285.333 697 267.667 685.333 255 664 c 0
 244.333 646 239 624.333 239 599 c 2
 239 -14 l 2
 239 -33.3333 248.333 -54 267 -76 c 0
 288.333 -100.667 312.333 -113 339 -113 c 2
 1185 -113 l 2
 1206.33 -113 1227.33 -104.667 1248 -88 c 0
 1272 -68 1284 -43.3333 1284 -14 c 2xc7e4
 1284 599 l 2
 1284 618.333 1274.33 639 1255 661 c 0
 1233.67 686.333 1210.33 699 1185 699 c 2
 308 699 l 1
1121 413 m 1
 1167 346 l 1
 773 82 l 1
 728 149 l 1
 1121 413 l 1
EndSplineSet
Validated: 33
EndChar

StartChar: y
Encoding: 121 121 81
Width: 1520
Flags: W
HStem: -195 82<284.119 1244.41> 219 84<1102 1138.62> 439 90<1102 1137.83> 699 93<264.557 1237.59>
VStem: 153 86<-68.8945 672.193> 1152 75<313.744 428.349> 1284 87<-70.9277 652.955>
LayerCount: 2
Fore
SplineSet
326 536 m 1
 326 48 l 1
 589 48 l 1
 589 140 l 1
 405 140 l 1
 405 263 l 1
 561 263 l 1
 561 342 l 1
 407 342 l 1
 407 439 l 1
 580 439 l 1
 580 536 l 1
 326 536 l 1
620 533 m 1
 728 298 l 1
 613 48 l 1
 695 48 l 1
 769 217 l 1
 837 49 l 1
 929 49 l 1
 813 299 l 1
 921 529 l 1
 833 529 l 1
 771 378 l 1
 701 533 l 1
 620 533 l 1
960 529 m 1
 960 48 l 1
 1035 48 l 1
 1035 219 l 1
 1118 219 l 2
 1153.33 219 1181.33 237.333 1202 274 c 0
 1218.67 304 1227 338 1227 376 c 0
 1227 417.333 1217.33 452 1198 480 c 0
 1175.33 512.667 1144.33 529 1105 529 c 2
 960 529 l 1
1032 303 m 1
 1032 439 l 1
 1102 439 l 2
 1118.67 439 1131.33 431.333 1140 416 c 1
 1148 403.333 1152 388.333 1152 371 c 256
 1152 353.667 1148 338.667 1140 326 c 1
 1131.33 310.667 1118.67 303 1102 303 c 2
 1032 303 l 1
337 792 m 2
 1204 792 l 2
 1258 792 1299.33 777.5 1328 748.5 c 0
 1356.67 719.5 1371 678 1371 624 c 2
 1371 -27 l 2
 1371 -139 1309.67 -195 1187 -195 c 2
 320 -195 l 2
 266 -195 224.667 -180.333 196 -151 c 0
 167.333 -121.667 153 -80.3333 153 -27 c 2
 150 606 l 2
 150 666 166.333 712 199 744 c 0
 231.667 776 277.667 792 337 792 c 2
308 699 m 1
 284.667 697 267 685.333 255 664 c 0
 244.333 645.333 239 623.667 239 599 c 2
 239 -14 l 2
 239 -37.3333 249.833 -59.6667 271.5 -81 c 0
 293.167 -102.333 315.667 -113 339 -113 c 2
 1185 -113 l 2
 1211 -113 1234 -103 1254 -83 c 0
 1274 -63 1284 -40 1284 -14 c 2
 1284 599 l 2
 1284 621 1273 643.167 1251 665.5 c 0
 1229 687.833 1207 699 1185 699 c 2
 308 699 l 1
EndSplineSet
Validated: 9
EndChar

StartChar: z
Encoding: 122 122 82
Width: 2496
Flags: W
HStem: -152 89<1414 1892> -124 54<537 1028> 274 90<1414 1892> 282 53<537 1028> 686 102<1092.28 1319.38>
VStem: 155 100<117.088 462.504> 483 54<-70 282> 809 101<439.03 503.55> 1028 55<-70 282> 1327 87<-63 274> 1892 89<-63 274> 2241 100<125.496 470.912>
LayerCount: 2
Fore
SplineSet
400 794 m 1x0ff0
 346.667 694 311.333 616.667 294 562 c 0
 268 479.333 255 380.667 255 266 c 0
 255 186 268.667 106.333 296 27 c 0
 315.333 -29 350.333 -106.667 401 -206 c 1
 338 -206 l 1
 275.333 -112 231 -33 205 31 c 0
 171.667 113.667 155 200.667 155 292 c 0
 155 456.667 215 624 335 794 c 1
 400 794 l 1x0ff0
1083 335 m 1x5ff0
 1083 -124 l 1
 483 -124 l 1
 483 335 l 1
 1083 335 l 1x5ff0
537 282 m 1
 537 -70 l 1
 1028 -70 l 1
 1028 282 l 1
 537 282 l 1
1981 364 m 1xaff0
 1981 -152 l 1
 1327 -152 l 1
 1327 364 l 1
 1981 364 l 1xaff0
1414 274 m 1
 1414 -63 l 1
 1892 -63 l 1
 1892 274 l 1
 1414 274 l 1
1601 724 m 1
 1575 460 l 1
 1313 539 l 1
 1413 603 l 1
 1355.67 658.333 1287 686 1207 686 c 0
 1131 686 1065 661.5 1009 612.5 c 0
 953 563.5 920 501.333 910 426 c 1
 809 440 l 1
 822.333 540.667 866.5 623.833 941.5 689.5 c 0
 1016.5 755.167 1104.67 788 1206 788 c 0
 1323.33 788 1421.67 745.333 1501 660 c 1
 1601 724 l 1
2096 -206 m 1
 2149.33 -106 2184.67 -28.6667 2202 26 c 0
 2228 108.667 2241 207.333 2241 322 c 0
 2241 402 2227.33 481.667 2200 561 c 0
 2180.67 617 2145.67 694.667 2095 794 c 1
 2158 794 l 1
 2220.67 700 2265 621 2291 557 c 0
 2324.33 474.333 2341 387.333 2341 296 c 0
 2341 131.333 2281 -36 2161 -206 c 1
 2096 -206 l 1
EndSplineSet
Validated: 1
EndChar

StartChar: seven
Encoding: 55 55 83
Width: 1520
Flags: W
HStem: -152 78<314.328 1211.67> 23 92<695.353 789.844> 520 93<694.587 790.93> 697 89<290.996 1205.67>
VStem: 189 81<-29.5 664.185> 546 115<155.811 479.938> 825 116<156.598 480.305> 1249 82<-33.8359 654.594>
LayerCount: 2
Fore
SplineSet
363 786 m 2
 1173 786 l 2
 1278.33 786 1331 732.667 1331 626 c 2
 1331 8 l 2
 1331 -98.6667 1273 -152 1157 -152 c 2
 347 -152 l 2
 241.667 -152 189 -98.6667 189 8 c 2
 189 612 l 2
 189 728 247 786 363 786 c 2
336 697 m 2
 313.333 697 296 686.333 284 665 c 0
 274.667 647.667 270 626.667 270 602 c 2
 270 20 l 2
 270 -2 280.333 -23.1667 301 -43.5 c 0
 321.667 -63.8333 343 -74 365 -74 c 2
 1155 -74 l 2
 1179 -74 1200.67 -64.3333 1220 -45 c 0
 1239.33 -25.6667 1249 -4 1249 20 c 2
 1249 602 l 2
 1249 624 1238.83 645.333 1218.5 666 c 0
 1198.17 686.667 1177 697 1155 697 c 2
 336 697 l 2
743 115 m 0
 781 115 805.667 141.333 817 194 c 0
 821.667 216 824.333 257 825 317 c 0
 825.667 374.333 823.333 415.667 818 441 c 0
 806 493.667 781 520 743 520 c 0
 704.333 520 679.667 493.667 669 441 c 0
 664.333 418.333 661.667 377 661 317 c 0
 660.333 261.667 663 220.667 669 194 c 0
 681 141.333 705.667 115 743 115 c 0
941 317 m 0
 942.333 122.333 876.333 24.3333 743 23 c 0
 665 22.3333 610.667 53.6667 580 117 c 0
 557.333 163 546 229.667 546 317 c 0
 546 405.667 557 472.667 579 518 c 0
 609.667 581.333 664.333 613 743 613 c 0
 820.333 613 874.667 580.667 906 516 c 0
 928.667 470 940.333 403.667 941 317 c 0
EndSplineSet
Validated: 33
EndChar

